<svg width="128" height="128" viewBox="0 0 128 128" fill="none" xmlns="http://www.w3.org/2000/svg">
<path d="M90 4.99836L82.003 1L74 4.99836L66.003 1L58 4.99836L66.003 23H82.003L90 4.99836Z" fill="#FF7552"/>
<path d="M37 101V71.8309C37 36.8338 59.4504 31 65.8153 31H81.1847C87.538 31 110 38.7804 110 71.8309V101H37Z" fill="#FF7552"/>
<path d="M85 27C85 27.5253 84.9009 28.0454 84.7083 28.5307C84.5157 29.016 84.2334 29.457 83.8775 29.8284C83.5217 30.1999 83.0992 30.4945 82.6342 30.6955C82.1693 30.8965 81.6709 31 81.1676 31H65.8324C65.3291 31 64.8307 30.8965 64.3658 30.6955C63.9008 30.4945 63.4783 30.1999 63.1225 29.8284C62.7666 29.457 62.4843 29.016 62.2917 28.5307C62.0991 28.0454 62 27.5253 62 27V27C62 25.9391 62.4038 24.9217 63.1225 24.1716C63.8412 23.4214 64.816 23 65.8324 23H81.1676C82.184 23 83.1588 23.4214 83.8775 24.1716C84.5962 24.9217 85 25.9391 85 27Z" fill="#E6E6E6"/>
<path d="M81.2073 33H65.7927C64.2564 33 62.783 32.3679 61.6967 31.2426C60.6103 30.1174 60 28.5913 60 27C60 25.4087 60.6103 23.8826 61.6967 22.7574C62.783 21.6321 64.2564 21 65.7927 21H81.2073C82.7436 21 84.217 21.6321 85.3033 22.7574C86.3897 23.8826 87 25.4087 87 27C87 28.5913 86.3897 30.1174 85.3033 31.2426C84.217 32.3679 82.7436 33 81.2073 33ZM65.7927 25.014C65.2811 25.014 64.7905 25.2245 64.4288 25.5992C64.067 25.9739 63.8638 26.4821 63.8638 27.012C63.8638 27.5419 64.067 28.0501 64.4288 28.4248C64.7905 28.7995 65.2811 29.01 65.7927 29.01H81.2073C81.7189 29.01 82.2095 28.7995 82.5712 28.4248C82.933 28.0501 83.1362 27.5419 83.1362 27.012C83.1362 26.4821 82.933 25.9739 82.5712 25.5992C82.2095 25.2245 81.7189 25.014 81.2073 25.014H65.7927Z" fill="#E6E6E6"/>
<path d="M118.241 88.6348L95.311 95.7476L87.3691 98.7017C88.2722 97.9481 88.9197 96.9364 89.2234 95.8044C89.5271 94.6724 89.4723 93.475 89.0665 92.375C88.6607 91.275 87.9235 90.3258 86.9553 89.6566C85.9871 88.9874 84.8348 88.6306 83.6552 88.6348H66.3679L45.2338 81H26V111.528H37.5518L70.2089 123H74.0499L122.082 98.1969C122.082 98.1969 124 96.2811 124 94.3824C124.003 92.8621 123.398 91.4027 122.318 90.325C121.239 89.2473 119.772 88.6394 118.241 88.6348Z" fill="white"/>
<path d="M24 75H3V118H24V75Z" fill="#E6E6E6"/>
<path d="M58.9494 106H55.0891C55.0922 104.03 55.9074 102.142 57.3559 100.75C58.8044 99.3573 60.7679 98.5745 62.8156 98.573H84.0502C84.5701 98.5924 85.0888 98.5106 85.575 98.3326C86.0613 98.1546 86.5053 97.884 86.8802 97.537C87.2552 97.19 87.5535 96.7737 87.7573 96.3132C87.9611 95.8526 88.0661 95.3573 88.0661 94.8567C88.0661 94.3562 87.9611 93.8608 87.7573 93.4003C87.5535 92.9398 87.2552 92.5235 86.8802 92.1765C86.5053 91.8295 86.0613 91.5589 85.575 91.3809C85.0888 91.2028 84.5701 91.1211 84.0502 91.1405H66.3334L45.093 83.7135H30V80H45.7896L67.03 87.427H84.0618C85.0939 87.3998 86.1212 87.5718 87.083 87.9329C88.0448 88.2941 88.9216 88.837 89.6616 89.5296C90.4016 90.2222 90.9898 91.0505 91.3914 91.9654C91.7931 92.8804 92 93.8635 92 94.8567C92 95.8499 91.7931 96.8331 91.3914 97.748C90.9898 98.663 90.4016 99.4913 89.6616 100.184C88.9216 100.876 88.0448 101.419 87.083 101.781C86.1212 102.142 85.0939 102.314 84.0618 102.287H62.8156C61.7917 102.288 60.8101 102.68 60.0855 103.375C59.361 104.071 58.9525 105.015 58.9494 106V106Z" fill="#3C1A5E"/>
<path d="M74.5549 126H69.9306L37.2486 114.276H26V110.378H37.8671L70.5491 122.072H73.5954L120.954 97.1003C121.48 96.5141 122.11 95.4589 122.11 94.7554C122.109 93.7671 121.739 92.8158 121.074 92.0934C120.409 91.371 119.498 90.9313 118.526 90.8631L95.9422 98.0851L94.7861 94.3627L118.306 87C120.346 87.0016 122.302 87.8241 123.745 89.287C125.187 90.7498 125.998 92.7335 126 94.8023C126 97.4754 123.769 99.8202 123.514 100.078L123.04 100.43L74.5549 126Z" fill="#3C1A5E"/>
<path d="M19 106H14V110H19V106Z" fill="#3C1A5E"/>
<path d="M10 106H7V110H10V106Z" fill="#3C1A5E"/>
<path d="M26 75H22V118H26V75Z" fill="#3C1A5E"/>
<path d="M80 69H69V65.1954H76.3333V62.5734L69 58.7745V50H80V53.7989H72.6667V56.4209L80 60.2255V69Z" fill="#3C1A5E"/>
<path d="M76 46H72V53H76V46Z" fill="#3C1A5E"/>
<path d="M76 67H72V73H76V67Z" fill="#3C1A5E"/>
<path d="M87 58H83V62H87V58Z" fill="#3C1A5E"/>
<path d="M65 58H60V62H65V58Z" fill="#3C1A5E"/>
</svg>
