<svg width="128" height="128" viewBox="0 0 128 128" fill="none" xmlns="http://www.w3.org/2000/svg">
<path d="M50.2532 49.8325L9 91.335V119H119V36L77.7519 77.5025L50.2532 49.8325Z" fill="#FC7450"/>
<path d="M9 9V91L50.2532 49.9975L77.7519 77.3342L119 36.3317V9H9Z" fill="#B4F0E0"/>
<path d="M10.7344 93L8 90.2113L49.9699 47.4072L77.0351 75.0154L116.266 35L119 37.7887L77.0351 80.5928L49.9699 52.9846L10.7344 93Z" fill="#3C1A5E"/>
<path d="M50 56C53.3137 56 56 53.3137 56 50C56 46.6863 53.3137 44 50 44C46.6863 44 44 46.6863 44 50C44 53.3137 46.6863 56 50 56Z" fill="white"/>
<path d="M78 84C81.3137 84 84 81.3137 84 78C84 74.6863 81.3137 72 78 72C74.6863 72 72 74.6863 72 78C72 81.3137 74.6863 84 78 84Z" fill="white"/>
<path d="M8.5 98C11.5376 98 14 95.3137 14 92C14 88.6863 11.5376 86 8.5 86C5.46243 86 3 88.6863 3 92C3 95.3137 5.46243 98 8.5 98Z" fill="white"/>
<path d="M119 42C122.314 42 125 39.3137 125 36C125 32.6863 122.314 30 119 30C115.686 30 113 32.6863 113 36C113 39.3137 115.686 42 119 42Z" fill="white"/>
<path d="M49.5048 57C48.0213 57.001 46.5707 56.5619 45.3367 55.7384C44.1027 54.9148 43.1407 53.7438 42.5723 52.3735C42.0039 51.0031 41.8547 49.495 42.1435 48.0398C42.4324 46.5846 43.1463 45.2478 44.195 44.1984C45.2437 43.149 46.5801 42.4342 48.0351 42.1445C49.49 41.8547 50.9983 42.0029 52.369 42.5704C53.7397 43.138 54.9114 44.0993 55.7357 45.3327C56.56 46.5662 57 48.0164 57 49.5C56.9975 51.4875 56.2071 53.393 54.8022 54.7988C53.3973 56.2046 51.4923 56.9962 49.5048 57ZM49.5048 45.75C48.7629 45.749 48.0374 45.9682 47.4201 46.3796C46.8028 46.7911 46.3214 47.3765 46.0368 48.0616C45.7523 48.7467 45.6773 49.5009 45.8215 50.2286C45.9656 50.9564 46.3224 51.625 46.8466 52.1499C47.3709 52.6749 48.0391 53.0325 48.7666 53.1776C49.4942 53.3227 50.2484 53.2487 50.9339 52.965C51.6195 52.6813 52.2054 52.2007 52.6177 51.5839C53.0299 50.9671 53.25 50.2419 53.25 49.5C53.2487 48.5067 52.8539 47.5543 52.1519 46.8515C51.45 46.1486 50.4982 45.7526 49.5048 45.75V45.75Z" fill="#3C1A5E"/>
<path d="M77.5055 86C75.8239 86.0011 74.1797 85.5033 72.7811 84.5698C71.3824 83.6362 70.2921 82.3087 69.6481 80.7553C69.004 79.2019 68.8353 77.4924 69.1631 75.8431C69.4909 74.1937 70.3005 72.6787 71.4896 71.4896C72.6787 70.3005 74.1937 69.4909 75.8431 69.1631C77.4924 68.8353 79.2019 69.004 80.7553 69.6481C82.3087 70.2921 83.6362 71.3824 84.5698 72.7811C85.5033 74.1797 86.0011 75.8239 86 77.5055C85.9957 79.757 85.0993 81.9151 83.5072 83.5072C81.9151 85.0993 79.757 85.9957 77.5055 86V86ZM77.5055 73.2555C76.6649 73.2555 75.8432 73.5047 75.1443 73.9717C74.4454 74.4387 73.9007 75.1025 73.579 75.8791C73.2573 76.6556 73.1731 77.5102 73.3371 78.3346C73.5011 79.159 73.9059 79.9163 74.5003 80.5107C75.0946 81.105 75.8519 81.5098 76.6763 81.6738C77.5007 81.8378 78.3553 81.7536 79.1319 81.432C79.9085 81.1103 80.5722 80.5655 81.0392 79.8666C81.5062 79.1677 81.7555 78.346 81.7555 77.5055C81.754 76.3787 81.3058 75.2986 80.5091 74.5019C79.7124 73.7051 78.6322 73.2569 77.5055 73.2555V73.2555Z" fill="#3C1A5E"/>
<path d="M8.5 99C7.01643 99 5.5662 98.56 4.33272 97.7357C3.09925 96.9114 2.13796 95.7397 1.57044 94.369C1.00293 92.9983 0.854687 91.49 1.14447 90.035C1.43425 88.5801 2.14903 87.2437 3.19841 86.195C4.24778 85.1463 5.58461 84.4324 7.03978 84.1435C8.49495 83.8547 10.0031 84.0039 11.3735 84.5723C12.7438 85.1407 13.9148 86.1027 14.7384 87.3367C15.5619 88.5707 16.001 90.0213 16 91.5048C15.9974 93.4927 15.2063 95.3984 13.8002 96.8036C12.3941 98.2088 10.4879 98.9987 8.5 99V99ZM8.5 87.7548C7.75832 87.7548 7.0333 87.9748 6.41661 88.3868C5.79993 88.7989 5.31928 89.3845 5.03545 90.0698C4.75162 90.755 4.67736 91.509 4.82206 92.2364C4.96675 92.9638 5.3239 93.632 5.84835 94.1565C6.3728 94.6809 7.04098 95.0381 7.76841 95.1828C8.49584 95.3275 9.24984 95.2532 9.93506 94.9694C10.6203 94.6855 11.206 94.2049 11.618 93.5882C12.0301 92.9715 12.25 92.2465 12.25 91.5048C12.2487 90.5106 11.8532 89.5576 11.1502 88.8546C10.4473 88.1516 9.49417 87.7561 8.5 87.7548Z" fill="#3C1A5E"/>
<path d="M119 44C117.418 44 115.871 43.5308 114.555 42.6518C113.24 41.7727 112.214 40.5233 111.609 39.0615C111.003 37.5997 110.845 35.9911 111.154 34.4393C111.462 32.8874 112.224 31.462 113.343 30.3431C114.462 29.2243 115.887 28.4624 117.439 28.1537C118.991 27.845 120.6 28.0035 122.061 28.609C123.523 29.2145 124.773 30.2398 125.652 31.5554C126.531 32.871 127 34.4177 127 36C126.997 38.1209 126.154 40.1541 124.654 41.6538C123.154 43.1535 121.121 43.9973 119 44ZM119 32C118.209 32 117.436 32.2346 116.778 32.6741C116.12 33.1136 115.607 33.7384 115.304 34.4693C115.002 35.2002 114.923 36.0044 115.077 36.7804C115.231 37.5563 115.612 38.269 116.172 38.8284C116.731 39.3878 117.444 39.7688 118.22 39.9231C118.996 40.0775 119.8 39.9983 120.531 39.6955C121.262 39.3928 121.886 38.8801 122.326 38.2223C122.765 37.5645 123 36.7911 123 36C122.999 34.9396 122.577 33.9229 121.827 33.1731C121.077 32.4232 120.06 32.0014 119 32V32Z" fill="#3C1A5E"/>
<path d="M21 16H16V21H21V16Z" fill="#3C1A5E"/>
<path d="M21 25H16V28H21V25Z" fill="#3C1A5E"/>
<path d="M21 33H16V36H21V33Z" fill="#3C1A5E"/>
</svg>
