<svg width="122" height="122" viewBox="0 0 122 122" fill="none" xmlns="http://www.w3.org/2000/svg">
<path d="M61 99.9632C80.2893 99.9632 95.9263 84.1282 95.9263 64.5948C95.9263 45.0614 80.2893 29.2264 61 29.2264C41.7107 29.2264 26.0737 45.0614 26.0737 64.5948C26.0737 84.1282 41.7107 99.9632 61 99.9632Z" fill="white"/>
<path d="M58.4975 29.2264V25.1026H54.0907C53.695 25.1016 53.3158 24.9542 53.0364 24.6927C52.7569 24.4312 52.6 24.077 52.6 23.7077V18.2385C52.6 18.0558 52.6386 17.8749 52.7135 17.7062C52.7884 17.5374 52.8982 17.384 53.0366 17.2549C53.175 17.1257 53.3394 17.0232 53.5202 16.9533C53.7011 16.8834 53.8949 16.8474 54.0907 16.8474H68.7935C69.1889 16.8474 69.568 16.994 69.8476 17.2549C70.1272 17.5157 70.2842 17.8696 70.2842 18.2385V23.7077C70.2831 24.0763 70.1257 24.4296 69.8464 24.6902C69.5671 24.9509 69.1885 25.0978 68.7935 25.0988H64.3949V29.2264H58.4975Z" fill="#3C1A5E"/>
<path d="M60.9942 106.153C50.8684 106.149 41.0847 102.495 33.4438 95.8627C25.8029 89.2309 20.819 80.0677 19.4092 70.0595C17.9995 60.0514 20.2589 49.8718 25.7715 41.3942C31.2841 32.9166 39.679 26.7116 49.4112 23.9211L50.187 26.6081C41.1014 29.21 33.2635 35.0006 28.1164 42.9135C22.9693 50.8264 20.8597 60.3288 22.176 69.6712C23.4923 79.0136 28.1459 87.5668 35.2798 93.7559C42.4138 99.9451 51.5478 103.353 61 103.353C70.4522 103.353 79.5863 99.9451 86.7202 93.7559C93.8542 87.5668 98.5077 79.0136 99.824 69.6712C101.14 60.3288 99.0307 50.8264 93.8836 42.9135C88.7366 35.0006 80.8986 29.21 71.813 26.6081L72.5888 23.9211C82.3219 26.7119 90.7175 32.9178 96.2301 41.3966C101.743 49.8754 104.001 60.0563 102.59 70.0653C101.179 80.0742 96.1926 89.2375 88.5496 95.8684C80.9066 102.499 71.121 106.151 60.9942 106.153V106.153Z" fill="#3C1A5E"/>
<path d="M30.061 30.1378L28.0882 32.1107L32.2716 36.2941L34.2445 34.3212L30.061 30.1378Z" fill="#3C1A5E"/>
<path d="M28.0128 23.6569L21.6052 30.0646C21.0634 30.6063 21.0634 31.4847 21.6052 32.0265L25.3022 35.7235C25.844 36.2653 26.7224 36.2653 27.2642 35.7235L33.6718 29.3159C34.2136 28.7741 34.2136 27.8957 33.6718 27.354L29.9748 23.6569C29.433 23.1151 28.5546 23.1151 28.0128 23.6569Z" fill="#3C1A5E"/>
<path d="M92.246 30.1431L88.0625 34.3265L90.0354 36.2994L94.2188 32.116L92.246 30.1431Z" fill="#3C1A5E"/>
<path d="M61.4421 33.6474C55.3213 33.6474 49.338 35.4624 44.2487 38.863C39.1594 42.2635 35.1928 47.0968 32.8505 52.7517C30.5082 58.4066 29.8953 64.6291 31.0894 70.6323C32.2835 76.6355 35.231 82.1498 39.559 86.4778C43.8871 90.8059 49.4014 93.7534 55.4046 94.9475C61.4078 96.1416 67.6303 95.5287 73.2852 93.1864C78.9401 90.8441 83.7734 86.8775 87.1739 81.7882C90.5745 76.6989 92.3895 70.7156 92.3895 64.5948H61.4421V33.6474Z" fill="#B4F0E0"/>
<path d="M60.5579 33.6474V65.479H92.3895C92.3895 57.0367 89.0358 48.9402 83.0662 42.9707C77.0966 37.0011 69.0002 33.6474 60.5579 33.6474Z" fill="#FC7450"/>
<path d="M61.446 100.847C54.2756 100.848 47.266 98.7226 41.3037 94.7394C35.3414 90.7562 30.6942 85.0943 27.9498 78.4699C25.2055 71.8454 24.4872 64.5559 25.8859 57.5232C27.2846 50.4905 30.7374 44.0306 35.8076 38.9603C40.8779 33.8901 47.3379 30.4373 54.3705 29.0386C61.4032 27.6399 68.6927 28.3581 75.3172 31.1025C81.9416 33.8468 87.6035 38.494 91.5867 44.4563C95.5699 50.4186 97.6955 57.4282 97.6947 64.5987C97.6845 74.2093 93.8622 83.4234 87.0664 90.2191C80.2707 97.0149 71.0566 100.837 61.446 100.847V100.847ZM61.446 31.135C54.8273 31.1342 48.3571 33.0962 42.8535 36.7728C37.3499 40.4493 33.0602 45.6754 30.5268 51.79C27.9935 57.9046 27.3302 64.6332 28.621 71.1247C29.9118 77.6163 33.0986 83.5793 37.7784 88.2597C42.4582 92.9401 48.4208 96.1275 54.9123 97.4191C61.4037 98.7106 68.1323 98.0481 74.2472 95.5154C80.3621 92.9828 85.5887 88.6936 89.2659 83.1905C92.9431 77.6873 94.9058 71.2173 94.9058 64.5987C94.8956 55.7274 91.3672 47.2223 85.0946 40.9489C78.822 34.6756 70.3173 31.1462 61.446 31.135Z" fill="#3C1A5E"/>
<path d="M63.2105 36.3H59.6737V38.9527H63.2105V36.3Z" fill="#3C1A5E"/>
<path d="M63.2105 90.2369H59.6737V92.8895H63.2105V90.2369Z" fill="#3C1A5E"/>
<path d="M37.5684 62.8264H34.9158V66.3632H37.5684V62.8264Z" fill="#3C1A5E"/>
<path d="M88.8526 62.8264H86.2V66.3632H88.8526V62.8264Z" fill="#3C1A5E"/>
<path d="M80.8948 81.3948H78.2421V84.0474H80.8948V81.3948Z" fill="#3C1A5E"/>
<path d="M43.7579 81.3948H41.1053V84.0474H43.7579V81.3948Z" fill="#3C1A5E"/>
<path d="M80.8948 45.1422H78.2421V47.7948H80.8948V45.1422Z" fill="#3C1A5E"/>
<path d="M43.7579 45.1422H41.1053V47.7948H43.7579V45.1422Z" fill="#3C1A5E"/>
<path d="M92.3339 23.6607L88.6368 27.3578C88.095 27.8996 88.095 28.7779 88.6368 29.3197L95.0445 35.7274C95.5862 36.2691 96.4646 36.2691 97.0064 35.7274L100.703 32.0303C101.245 31.4885 101.245 30.6102 100.703 30.0684L94.2958 23.6607C93.754 23.119 92.8756 23.119 92.3339 23.6607Z" fill="#3C1A5E"/>
<path d="M61 68.1316C62.7092 68.1316 64.0947 66.5481 64.0947 64.5948C64.0947 62.6414 62.7092 61.0579 61 61.0579C59.2908 61.0579 57.9053 62.6414 57.9053 64.5948C57.9053 66.5481 59.2908 68.1316 61 68.1316Z" fill="white"/>
<path d="M61 69.0158C60.0382 69.0158 59.0979 68.7565 58.2982 68.2707C57.4984 67.7849 56.8751 67.0945 56.507 66.2866C56.1389 65.4788 56.0426 64.5899 56.2303 63.7323C56.4179 62.8747 56.8811 62.0869 57.5612 61.4686C58.2413 60.8503 59.1079 60.4292 60.0512 60.2587C60.9946 60.0881 61.9724 60.1756 62.861 60.5102C63.7497 60.8449 64.5092 61.4115 65.0436 62.1386C65.5779 62.8656 65.8632 63.7204 65.8632 64.5948C65.862 65.767 65.3492 66.8908 64.4375 67.7197C63.5257 68.5486 62.2894 69.0147 61 69.0158V69.0158ZM61 63.1211C60.6794 63.1211 60.366 63.2075 60.0994 63.3694C59.8328 63.5314 59.625 63.7615 59.5023 64.0308C59.3796 64.3001 59.3475 64.5964 59.4101 64.8823C59.4726 65.1681 59.627 65.4307 59.8537 65.6368C60.0804 65.8429 60.3693 65.9833 60.6838 66.0401C60.9982 66.097 61.3241 66.0678 61.6203 65.9563C61.9166 65.8447 62.1697 65.6558 62.3479 65.4135C62.526 65.1711 62.6211 64.8862 62.6211 64.5948C62.6211 64.4012 62.5791 64.2096 62.4977 64.0308C62.4162 63.852 62.2968 63.6896 62.1463 63.5527C61.9957 63.4159 61.817 63.3073 61.6203 63.2333C61.4237 63.1592 61.2129 63.1211 61 63.1211V63.1211Z" fill="#3C1A5E"/>
<path d="M83.5474 62.8264H64.0947V66.3632H83.5474V62.8264Z" fill="#3C1A5E"/>
</svg>
