<svg width="216" height="216" viewBox="0 0 216 216" fill="none" xmlns="http://www.w3.org/2000/svg">
<path d="M57.5108 127.503H31V180.524H57.5108V127.503Z" fill="#3C1A5E"/>
<path d="M101.004 166.108H96.2391C96.2391 160.733 100.515 156.457 105.89 156.457H132.401C135.089 156.579 137.288 154.502 137.41 151.814C137.532 149.127 135.455 146.928 132.768 146.805C132.646 146.805 132.523 146.805 132.401 146.805H110.289L83.7778 137.154H64.9637V132.389H84.633L111.144 142.041H132.401C137.777 141.919 142.175 146.072 142.297 151.448C142.419 156.823 138.265 161.221 132.89 161.344C132.768 161.344 132.523 161.344 132.401 161.344H105.768C103.081 161.344 101.004 163.42 101.004 166.108Z" fill="#3C1A5E"/>
<path d="M120.795 190.298H115.053L74.004 175.76H59.8324V170.995H74.737L115.786 185.411H119.573L178.947 154.502C179.558 153.769 180.413 152.425 180.413 151.57C180.413 149.004 178.459 146.928 175.893 146.805L147.55 155.724L146.084 151.081L175.649 141.919C181.024 141.919 185.3 146.195 185.3 151.57C185.3 154.869 182.49 157.801 182.124 158.045L181.513 158.534L120.795 190.298Z" fill="#3C1A5E"/>
<path d="M50.3032 166.108H45.5386V170.873H50.3032V166.108Z" fill="#E6E6E6"/>
<path d="M40.6514 166.108H35.8868V170.873H40.6514V166.108Z" fill="#E6E6E6"/>
<path d="M59.9551 127.503H55.1905V180.524H59.9551V127.503Z" fill="#3C1A5E"/>
<path d="M129.714 27.3237C156.835 27.3237 178.948 49.3142 178.948 76.558C178.948 103.802 156.958 125.792 129.714 125.792C102.592 125.792 80.4796 103.802 80.4796 76.558C80.4796 49.3142 102.47 27.3237 129.714 27.3237Z" fill="white"/>
<path d="M129.713 34.4094C153.047 34.4094 171.861 53.3457 171.861 76.5578C171.861 99.8922 152.925 118.706 129.713 118.706C106.379 118.706 87.5646 99.77 87.5646 76.5578C87.4425 53.2235 106.379 34.4094 129.713 34.4094Z" fill="#B4F0E0"/>
<path d="M129.713 29.6449C103.814 29.6449 82.8005 50.658 82.8005 76.5579C82.8005 102.458 103.814 123.471 129.713 123.471C155.613 123.471 176.627 102.458 176.627 76.5579C176.504 50.658 155.491 29.767 129.713 29.6449ZM129.713 128.113C101.248 128.113 78.1581 105.023 78.1581 76.5579C78.1581 48.0925 101.248 25.0024 129.713 25.0024C158.179 25.0024 181.269 48.0925 181.269 76.5579C181.147 105.023 158.057 128.113 129.713 128.113Z" fill="#3C1A5E"/>
<path d="M178.826 74.2366H80.4798V78.8791H178.826V74.2366Z" fill="#3C1A5E"/>
<path d="M131.913 27.3237H127.27V125.792H131.913V27.3237Z" fill="#3C1A5E"/>
<path d="M129.714 29.6449C117.008 29.6449 106.257 51.1467 106.257 76.5579C106.257 101.969 117.008 123.471 129.714 123.471C142.419 123.471 153.17 101.969 153.17 76.5579C153.048 51.1467 142.419 29.6449 129.714 29.6449ZM129.714 128.113C113.954 128.113 101.615 105.512 101.615 76.5579C101.615 47.6038 113.954 25.0024 129.714 25.0024C145.474 25.0024 157.813 47.6038 157.813 76.5579C157.813 105.512 145.474 128.113 129.714 128.113Z" fill="#3C1A5E"/>
</svg>
