<svg width="216" height="212" viewBox="0 0 216 212" fill="none" xmlns="http://www.w3.org/2000/svg">
<path d="M174.743 131.214L146.159 139.976L136.259 143.616C137.385 142.687 138.192 141.441 138.571 140.046C138.949 138.652 138.881 137.176 138.375 135.821C137.869 134.466 136.95 133.297 135.743 132.472C134.537 131.648 133.1 131.208 131.63 131.214H110.08L83.7353 121.808H59.7593V159.417H74.1593L114.868 173.55H119.656L179.531 142.994C179.531 142.994 181.922 140.633 181.922 138.294C181.925 136.421 181.172 134.624 179.826 133.296C178.48 131.968 176.652 131.219 174.743 131.214Z" fill="white"/>
<path d="M57.3985 114.762H31.0537V166.476H57.3985V114.762Z" fill="#3C1A5E"/>
<path d="M100.497 152.364H95.7092C95.713 149.871 96.7242 147.482 98.5207 145.72C100.317 143.958 102.753 142.967 105.292 142.966H131.63C132.275 142.99 132.918 142.887 133.521 142.661C134.124 142.436 134.675 142.094 135.14 141.654C135.605 141.215 135.975 140.689 136.228 140.106C136.481 139.523 136.611 138.896 136.611 138.263C136.611 137.629 136.481 137.002 136.228 136.42C135.975 135.837 135.605 135.31 135.14 134.871C134.675 134.432 134.124 134.089 133.521 133.864C132.918 133.639 132.275 133.535 131.63 133.56H109.656L83.3108 124.161H64.5908V119.462H84.1748L110.52 128.86H131.644C132.925 128.826 134.199 129.044 135.392 129.501C136.585 129.958 137.672 130.645 138.59 131.521C139.508 132.398 140.237 133.446 140.735 134.604C141.234 135.762 141.49 137.006 141.49 138.263C141.49 139.52 141.234 140.764 140.735 141.922C140.237 143.079 139.508 144.128 138.59 145.004C137.672 145.881 136.585 146.568 135.392 147.025C134.199 147.482 132.925 147.699 131.644 147.665H105.292C104.022 147.667 102.805 148.162 101.906 149.043C101.008 149.924 100.501 151.118 100.497 152.364Z" fill="#3C1A5E"/>
<path d="M120.239 175.876H114.479L73.7705 161.743H59.7593V157.043H74.5409L115.25 171.141H119.044L178.034 141.037C178.689 140.331 179.474 139.059 179.474 138.211C179.473 137.019 179.012 135.872 178.183 135.002C177.355 134.131 176.221 133.601 175.01 133.518L146.879 142.225L145.439 137.737L174.736 128.862C177.277 128.863 179.714 129.855 181.51 131.618C183.307 133.382 184.317 135.773 184.319 138.267C184.319 141.49 181.54 144.316 181.223 144.627L180.633 145.051L120.239 175.876Z" fill="#3C1A5E"/>
<path d="M50.2065 152.364H45.4185V157.063H50.2065V152.364Z" fill="#E6E6E6"/>
<path d="M40.6293 152.364H35.8413V157.063H40.6293V152.364Z" fill="#E6E6E6"/>
<path d="M59.789 114.762H55.001V166.476H59.789V114.762Z" fill="#3C1A5E"/>
<path d="M128.996 113.016C155.976 113.016 177.848 91.5494 177.848 65.0688C177.848 38.5882 155.976 17.1214 128.996 17.1214C102.015 17.1214 80.1436 38.5882 80.1436 65.0688C80.1436 91.5494 102.015 113.016 128.996 113.016Z" fill="white"/>
<path d="M128.995 106.17C152.122 106.17 170.87 87.7688 170.87 65.07C170.87 42.3713 152.122 23.9703 128.995 23.9703C105.868 23.9703 87.1196 42.3713 87.1196 65.07C87.1196 87.7688 105.868 106.17 128.995 106.17Z" fill="#B4F0E0"/>
<path d="M128.996 115.307C118.872 115.308 108.975 112.363 100.557 106.844C92.1388 101.324 85.5772 93.4789 81.702 84.2994C77.8268 75.1199 76.8122 65.0188 78.7864 55.2733C80.7605 45.5278 85.6348 36.5758 92.7929 29.5493C99.9509 22.5228 109.071 17.7375 119 15.7986C128.929 13.8596 139.221 14.854 148.574 18.6561C157.928 22.4582 165.922 28.8972 171.547 37.1588C177.171 45.4204 180.173 55.1335 180.173 65.0697C180.158 78.3875 174.762 91.1557 165.167 100.574C155.573 109.991 142.565 115.29 128.996 115.307ZM128.996 19.4049C119.794 19.4049 110.798 22.0831 103.147 27.1008C95.4958 32.1185 89.5324 39.2504 86.0109 47.5945C82.4895 55.9387 81.5681 65.1203 83.3633 73.9785C85.1586 82.8366 89.5898 90.9732 96.0966 97.3596C102.603 103.746 110.894 108.095 119.919 109.857C128.944 111.619 138.299 110.715 146.801 107.258C155.302 103.802 162.569 97.9492 167.681 90.4397C172.793 82.9302 175.522 74.1013 175.522 65.0697C175.507 52.9632 170.6 41.3569 161.878 32.7963C153.156 24.2358 141.331 19.4198 128.996 19.4049Z" fill="#3C1A5E"/>
<path d="M177.848 62.7883H80.1436V67.3534H177.848V62.7883Z" fill="#3C1A5E"/>
<path d="M131.322 17.1214H126.671V113.016H131.322V17.1214Z" fill="#3C1A5E"/>
<path d="M128.995 115.307C113.343 115.307 101.081 93.2373 101.081 65.0696C101.081 36.9018 113.343 14.8397 128.995 14.8397C144.648 14.8397 156.91 36.9018 156.91 65.0696C156.91 93.2373 144.648 115.307 128.995 115.307ZM128.995 19.4048C116.388 19.4048 105.732 40.315 105.732 65.0696C105.732 89.8241 116.388 110.734 128.995 110.734C141.603 110.734 152.259 89.8241 152.259 65.0696C152.259 40.315 141.61 19.4048 128.995 19.4048Z" fill="#3C1A5E"/>
</svg>
