<svg width="103" height="103" viewBox="0 0 103 103" fill="none" xmlns="http://www.w3.org/2000/svg">
<g clip-path="url(#clip0)">
<path d="M20.8057 94.9235V4.78224C20.8057 3.92838 20.4665 3.10949 19.8627 2.50571C19.259 1.90194 18.4401 1.56274 17.5862 1.56274C16.7323 1.56274 15.9134 1.90194 15.3097 2.50571C14.7059 3.10949 14.3667 3.92838 14.3667 4.78224V94.9235H20.8057Z" fill="#E6E6E6"/>
<path d="M20.8057 96.5311H14.3667C14.1556 96.5311 13.9466 96.4895 13.7516 96.4087C13.5565 96.3279 13.3793 96.2095 13.2301 96.0602C13.0808 95.911 12.9624 95.7338 12.8816 95.5388C12.8009 95.3438 12.7593 95.1347 12.7593 94.9236V4.78234C12.7593 4.14847 12.8841 3.5208 13.1267 2.93517C13.3693 2.34954 13.7248 1.81743 14.173 1.36921C14.6213 0.920992 15.1534 0.565445 15.739 0.32287C16.3246 0.0802958 16.9523 -0.0445557 17.5862 -0.0445557C18.2201 -0.0445557 18.8477 0.0802958 19.4334 0.32287C20.019 0.565445 20.5511 0.920992 20.9993 1.36921C21.4475 1.81743 21.8031 2.34954 22.0457 2.93517C22.2882 3.5208 22.4131 4.14847 22.4131 4.78234V8.00184H19.1983V4.78234C19.2101 4.56363 19.1772 4.3448 19.1017 4.13922C19.0261 3.93363 18.9095 3.7456 18.7588 3.5866C18.6082 3.42759 18.4267 3.30095 18.2255 3.21441C18.0243 3.12787 17.8076 3.08323 17.5885 3.08323C17.3695 3.08323 17.1528 3.12787 16.9516 3.21441C16.7503 3.30095 16.5689 3.42759 16.4182 3.5866C16.2676 3.7456 16.1509 3.93363 16.0754 4.13922C15.9998 4.3448 15.967 4.56363 15.9788 4.78234V93.3115H19.1983V62.7286H22.4131V94.9236C22.4131 95.35 22.2437 95.7588 21.9423 96.0602C21.6408 96.3617 21.232 96.5311 20.8057 96.5311Z" fill="#3C1A5E"/>
<path d="M12.7593 8.00183H85.52L65.78 35.3652L85.52 62.7286H12.7593V8.00183Z" fill="#FC7450"/>
<path d="M22.4177 14.4408H19.1982V56.2896H22.4177V14.4408Z" fill="#3C1A5E"/>
<path d="M102.901 99.7505H-0.118774V102.97H102.901V99.7505Z" fill="#3C1A5E"/>
<path d="M22.4177 94.9236H19.1982V101.363H22.4177V94.9236Z" fill="#3C1A5E"/>
<path d="M15.9788 94.9236H12.7593V101.363H15.9788V94.9236Z" fill="#3C1A5E"/>
<path d="M47.7602 33.7531H44.5406V36.9726H47.7602V33.7531Z" fill="#3C1A5E"/>
<path d="M54.1992 33.7531H50.9797V36.9726H54.1992V33.7531Z" fill="#3C1A5E"/>
<path d="M41.3212 33.7531H38.1017V36.9726H41.3212V33.7531Z" fill="#3C1A5E"/>
</g>
<defs>
<clipPath id="clip0">
<rect width="103" height="103" fill="white"/>
</clipPath>
</defs>
</svg>
