<svg width="346" height="316" viewBox="0 0 346 316" fill="none" xmlns="http://www.w3.org/2000/svg">
<path d="M290.995 33.4267H23.8395V305.585H290.995V33.4267Z" fill="white"/>
<path d="M295.761 33.4267H286.22V305.585H295.761V33.4267Z" fill="#E6E6E6"/>
<path d="M28.6142 33.4267H19.0733V305.585H28.6142V33.4267Z" fill="#E6E6E6"/>
<path d="M310.077 300.806H4.75748V310.355H310.077V300.806Z" fill="#97A0A5"/>
<path d="M276.687 42.976H38.155V100.272H276.687V42.976Z" fill="#E6E6E6"/>
<path d="M190.81 214.863H124.024V281.707H190.81V214.863Z" fill="#E6E6E6"/>
<path d="M104.942 214.863H38.155V224.412H104.942V214.863Z" fill="#E6E6E6"/>
<path d="M104.942 233.961H38.155V243.51H104.942V233.961Z" fill="#E6E6E6"/>
<path d="M104.942 253.06H38.155V262.609H104.942V253.06Z" fill="#E6E6E6"/>
<path d="M104.942 272.158H38.155V281.707H104.942V272.158Z" fill="#E6E6E6"/>
<path d="M276.679 214.863H209.892V224.412H276.679V214.863Z" fill="#E6E6E6"/>
<path d="M276.679 233.961H209.892V243.51H276.679V233.961Z" fill="#E6E6E6"/>
<path d="M276.679 253.06H209.892V262.609H276.679V253.06Z" fill="#E6E6E6"/>
<path d="M276.679 272.158H209.892V281.707H276.679V272.158Z" fill="#E6E6E6"/>
<path d="M190.81 157.567H124.024V167.116H190.81V157.567Z" fill="#E6E6E6"/>
<path d="M190.81 138.469H124.024V148.018H190.81V138.469Z" fill="#E6E6E6"/>
<path d="M190.81 195.764H124.024V205.313H190.81V195.764Z" fill="#E6E6E6"/>
<path d="M276.687 109.821H38.155V119.37H276.687V109.821Z" fill="#E6E6E6"/>
<path d="M295.761 4.77893H19.0645V33.4267H295.761V4.77893Z" fill="#97A0A5"/>
<path d="M47.696 14.3282H38.155V23.8775H47.696V14.3282Z" fill="#E8E5E3"/>
<path d="M66.778 14.3282H57.237V23.8775H66.778V14.3282Z" fill="#E8E5E3"/>
<path d="M85.8597 14.3282H76.3188V23.8775H85.8597V14.3282Z" fill="#E8E5E3"/>
<path d="M276.679 14.3282H104.942V23.8775H276.679V14.3282Z" fill="#E8E5E3"/>
<path d="M104.942 138.469H38.155V205.313H104.942V138.469Z" fill="#E6E6E6"/>
<path d="M276.679 138.469H209.892V205.313H276.679V138.469Z" fill="#E6E6E6"/>
<path d="M190.81 176.666H124.024V186.215H190.81V176.666Z" fill="#E6E6E6"/>
<g opacity="0.5">
<g opacity="0.5">
<path opacity="0.5" d="M120.235 40.5778H329.305C330.873 40.5778 332.425 40.8869 333.874 41.4873C335.322 42.0877 336.638 42.9677 337.746 44.0771C338.855 45.1866 339.734 46.5036 340.334 47.9531C340.934 49.4027 341.242 50.9563 341.242 52.5252V112.877C341.242 116.043 339.986 119.08 337.749 121.319C335.512 123.558 332.478 124.816 329.314 124.816H120.235C117.071 124.816 114.037 123.558 111.8 121.319C109.563 119.08 108.307 116.043 108.307 112.877V52.5166C108.307 49.3502 109.563 46.3135 111.8 44.0746C114.037 41.8356 117.071 40.5778 120.235 40.5778Z" fill="#FC7450"/>
</g>
</g>
<path d="M319.41 50.9062H130.122C124.384 50.9062 119.733 55.5615 119.733 61.3039V104.99C119.733 110.732 124.384 115.388 130.122 115.388H319.41C325.147 115.388 329.799 110.732 329.799 104.99V61.3039C329.799 55.5615 325.147 50.9062 319.41 50.9062Z" fill="white"/>
<path d="M319.41 50.9062H130.122C124.384 50.9062 119.733 55.5615 119.733 61.3039V104.99C119.733 110.732 124.384 115.388 130.122 115.388H319.41C325.147 115.388 329.799 110.732 329.799 104.99V61.3039C329.799 55.5615 325.147 50.9062 319.41 50.9062Z" stroke="#3C1A5E" stroke-width="4.18"/>
<path d="M315.621 65.4682H196.64V72.8011H315.621V65.4682Z" fill="#3C1A5E"/>
<path d="M315.621 79.0346H196.64V86.3675H315.621V79.0346Z" fill="#3C1A5E"/>
<path d="M315.621 92.5923H196.64V99.9252H315.621V92.5923Z" fill="#3C1A5E"/>
<path d="M174.717 81.1242C173.544 81.1242 172.592 80.1724 172.592 78.9993C172.592 73.0387 170.271 67.4372 166.057 63.2209C165.227 62.3902 165.227 61.0474 166.057 60.2163C166.888 59.3856 168.231 59.3856 169.062 60.2163C174.079 65.2334 176.842 71.9041 176.842 78.9993C176.842 80.1724 175.89 81.1242 174.717 81.1242Z" fill="#FC7450"/>
<path d="M132.217 81.1242C131.044 81.1242 130.092 80.1724 130.092 78.9993C130.092 71.9041 132.854 65.2334 137.871 60.2163C138.702 59.3856 140.045 59.3856 140.876 60.2163C141.707 61.0474 141.707 62.3902 140.876 63.2209C136.662 67.4349 134.342 73.0387 134.342 78.9993C134.342 80.1724 133.39 81.1242 132.217 81.1242Z" fill="#FC7450"/>
<path d="M173.397 93.9403C170.184 91.2244 168.342 87.2548 168.342 83.0494V77.125C168.342 69.6473 162.787 63.4571 155.592 62.4202V60.1249C155.592 58.9498 154.64 58 153.467 58C152.294 58 151.342 58.9498 151.342 60.1249V62.4202C144.145 63.4571 138.592 69.6473 138.592 77.125V83.0494C138.592 87.2548 136.749 91.2244 133.517 93.957C132.691 94.6648 132.217 95.6932 132.217 96.7811C132.217 98.8321 133.885 100.5 135.936 100.5H170.998C173.049 100.5 174.717 98.8321 174.717 96.7811C174.717 95.6932 174.243 94.6648 173.397 93.9403V93.9403Z" fill="#FC7450"/>
<path d="M153.467 109C157.315 109 160.535 106.256 161.274 102.625H145.66C146.399 106.256 149.618 109 153.467 109Z" fill="#FC7450"/>
</svg>
