<svg width="180" height="184" viewBox="0 0 180 184" fill="none" xmlns="http://www.w3.org/2000/svg">
<path d="M165.869 19.7384H12.7642V176.649H165.869V19.7384Z" fill="white"/>
<path d="M168.601 19.7384H163.133V176.649H168.601V19.7384Z" fill="#E6E6E6"/>
<path d="M15.4964 19.7384H10.0278V176.649H15.4964V19.7384Z" fill="#E6E6E6"/>
<path d="M176.802 173.894H1.82764V179.4H176.802V173.894Z" fill="#97A0A5"/>
<path d="M157.665 25.2449H20.9653V58.2775H157.665V25.2449Z" fill="#FC7450"/>
<path d="M59.2405 124.343H20.9653V129.849H59.2405V124.343Z" fill="#E6E6E6"/>
<path d="M59.2405 135.355H20.9653V140.861H59.2405V135.355Z" fill="#E6E6E6"/>
<path d="M59.2405 146.367H20.9653V151.873H59.2405V146.367Z" fill="#E6E6E6"/>
<path d="M59.2405 157.38H20.9653V162.886H59.2405V157.38Z" fill="#E6E6E6"/>
<path d="M157.664 124.343H119.389V129.849H157.664V124.343Z" fill="#E6E6E6"/>
<path d="M157.664 135.355H119.389V140.861H157.664V135.355Z" fill="#E6E6E6"/>
<path d="M157.664 146.367H119.389V151.873H157.664V146.367Z" fill="#E6E6E6"/>
<path d="M157.664 157.38H119.389V162.886H157.664V157.38Z" fill="#E6E6E6"/>
<path d="M157.665 63.7834H20.9653V69.2896H157.665V63.7834Z" fill="#E6E6E6"/>
<path d="M168.597 3.22009H10.0278V19.7387H168.597V3.22009Z" fill="#97A0A5"/>
<path d="M26.4339 8.72638H20.9653V14.2326H26.4339V8.72638Z" fill="#E8E5E3"/>
<path d="M37.3704 8.72638H31.9019V14.2326H37.3704V8.72638Z" fill="#E8E5E3"/>
<path d="M48.3079 8.72638H42.8394V14.2326H48.3079V8.72638Z" fill="#E8E5E3"/>
<path d="M157.665 8.72638H59.2402V14.2326H157.665V8.72638Z" fill="#E8E5E3"/>
<path d="M59.2405 80.298H20.9653V118.837H59.2405V80.298Z" fill="#E6E6E6"/>
<path d="M157.664 80.298H119.389V118.837H157.664V80.298Z" fill="#E6E6E6"/>
<path d="M70.1765 162.886L108.452 162.886L108.452 124.347L70.1765 124.347L70.1765 162.886Z" fill="#E6E6E6"/>
<path d="M70.1765 118.841L108.452 118.841L108.452 113.335L70.1765 113.335L70.1765 118.841Z" fill="#E6E6E6"/>
<path d="M70.1765 96.8168L108.452 96.8168L108.452 91.3105L70.1765 91.3105L70.1765 96.8168Z" fill="#E6E6E6"/>
<path d="M70.1765 85.8041L108.452 85.8041L108.452 80.2979L70.1765 80.2979L70.1765 85.8041Z" fill="#E6E6E6"/>
<path d="M70.1765 107.828L108.452 107.828L108.452 102.322L70.1765 102.322L70.1765 107.828Z" fill="#E6E6E6"/>
</svg>
