<svg width="122" height="122" viewBox="0 0 122 122" fill="none" xmlns="http://www.w3.org/2000/svg">
<path d="M82.1547 46.5512H43.0008V54.0826H82.1547V46.5512Z" fill="#E6E6E6"/>
<path d="M82.1551 46.5512L91.1912 14.9247H89.6825L74.6236 34.5016L62.5782 14.9247L50.5286 34.5016L35.4698 14.9247H33.9651L42.9972 46.5512H82.1551Z" fill="#FC7450"/>
<path d="M74.623 36.0103H74.5457C74.2996 36.0005 74.0597 35.9305 73.847 35.8065C73.6343 35.6824 73.4553 35.508 73.3257 35.2986L62.5612 17.8119L51.7927 35.2986C51.6647 35.5057 51.4883 35.6786 51.2787 35.8025C51.0692 35.9264 50.8326 35.9977 50.5895 36.0101C50.3463 36.0224 50.1038 35.9757 49.8827 35.8737C49.6616 35.7717 49.4686 35.6176 49.3202 35.4247L34.2776 15.8599C34.0545 15.5875 33.934 15.2455 33.9371 14.8934C33.9402 14.5413 34.0667 14.2015 34.2945 13.933C34.5223 13.6646 34.8371 13.4845 35.1839 13.4242C35.5308 13.3639 35.8879 13.4271 36.193 13.6029L52.7606 22.6391L51.3169 25.2824L41.016 19.6663L50.3694 31.8663L61.2721 14.1479C61.4164 13.9415 61.6084 13.7729 61.8318 13.6566C62.0552 13.5402 62.3033 13.4795 62.5551 13.4795C62.807 13.4795 63.0551 13.5402 63.2785 13.6566C63.5018 13.7729 63.6938 13.9415 63.8382 14.1479L74.7409 31.8663L84.0942 19.6663L73.8381 25.2824L72.3863 22.6391L88.9539 13.6029C89.2591 13.4221 89.6183 13.355 89.9681 13.4132C90.318 13.4715 90.636 13.6515 90.8661 13.9215C91.0961 14.1914 91.2234 14.5339 91.2255 14.8886C91.2276 15.2433 91.1043 15.5873 90.8774 15.8599L75.8308 35.4369C75.6873 35.619 75.5036 35.7656 75.2941 35.8651C75.0845 35.9645 74.8549 36.0142 74.623 36.0103Z" fill="#3C1A5E"/>
<path d="M62.5782 42.0331C65.0735 42.0331 67.0963 40.0103 67.0963 37.5151C67.0963 35.0198 65.0735 32.997 62.5782 32.997C60.083 32.997 58.0602 35.0198 58.0602 37.5151C58.0602 40.0103 60.083 42.0331 62.5782 42.0331Z" fill="white"/>
<path d="M62.5776 43.5378C61.3865 43.5378 60.222 43.1846 59.2316 42.5228C58.2412 41.861 57.4692 40.9204 57.0134 39.8198C56.5575 38.7193 56.4382 37.5084 56.6706 36.3401C56.903 35.1718 57.4766 34.0986 58.3189 33.2563C59.1612 32.414 60.2344 31.8404 61.4027 31.608C62.571 31.3756 63.7819 31.4949 64.8824 31.9508C65.983 32.4066 66.9236 33.1786 67.5854 34.169C68.2471 35.1594 68.6004 36.3239 68.6004 37.515C68.5982 39.1117 67.963 40.6424 66.834 41.7714C65.705 42.9004 64.1743 43.5356 62.5776 43.5378ZM62.5776 34.5057C61.9813 34.5049 61.3981 34.6811 60.902 35.0119C60.4058 35.3427 60.0189 35.8133 59.7903 36.3641C59.5618 36.9148 59.5017 37.5211 59.6179 38.106C59.734 38.6909 60.0211 39.2282 60.4428 39.6499C60.8645 40.0716 61.4018 40.3587 61.9867 40.4748C62.5716 40.591 63.1778 40.5309 63.7286 40.3024C64.2794 40.0738 64.75 39.6869 65.0808 39.1907C65.4116 38.6946 65.5878 38.1114 65.587 37.515C65.5859 36.7173 65.2685 35.9524 64.7044 35.3883C64.1402 34.8242 63.3754 34.5068 62.5776 34.5057Z" fill="#3C1A5E"/>
<path d="M29.4466 99.2592L41.4799 87.2097V69.1333H49.0113V81.1788C49.0108 81.7723 49.1273 82.36 49.3542 82.9084C49.581 83.4568 49.9138 83.9551 50.3334 84.3747C50.7531 84.7944 51.2514 85.1272 51.7998 85.354C52.3482 85.5809 52.9359 85.6974 53.5294 85.6969C55.0341 85.6969 56.5387 85.6969 58.0475 84.1922C59.5562 82.6875 65.5749 69.1455 65.5749 69.1455H83.6471L53.5294 99.2633L29.4466 99.2592Z" fill="white"/>
<path d="M103.237 63.1147L97.2139 69.1415H27.9382L21.9155 63.1147H103.237Z" fill="#B4F0E0"/>
<path d="M30.5122 100.325L28.3813 98.1937L39.9875 86.5874V69.1414H42.9969V87.8359L30.5122 100.325Z" fill="#3C1A5E"/>
<path d="M82.5922 68.072L52.4735 98.1907L54.6043 100.321L84.723 70.2028L82.5922 68.072Z" fill="#3C1A5E"/>
<path d="M64.2436 68.4721L56.713 83.53L59.4082 84.8779L66.9387 69.82L64.2436 68.4721Z" fill="#3C1A5E"/>
<path d="M110.768 61.61H14.3879V64.6234H110.768V61.61Z" fill="#3C1A5E"/>
<path d="M97.8361 70.6461H27.3161L20.8501 64.1801L22.981 62.0532L28.5645 67.6327H96.5877L102.171 62.0532L104.302 64.1801L97.8361 70.6461Z" fill="#3C1A5E"/>
<path d="M50.5281 109.8H17.397V106.787L26.4331 97.7546H59.5642V100.764L50.5281 109.8Z" fill="#3C1A5E"/>
<path d="M53.5419 87.2097C51.9445 87.2087 50.4128 86.5739 49.2829 85.4448C48.153 84.3156 47.5172 82.7844 47.5151 81.187V69.1334H50.5285V81.1789C50.5285 81.9781 50.846 82.7445 51.4111 83.3097C51.9762 83.8748 52.7427 84.1923 53.5419 84.1923C54.9286 84.1923 55.929 84.1923 56.9945 83.1268L72.0411 68.0801L74.1721 70.207L59.1254 85.2537C57.1775 87.2097 55.1604 87.2097 53.5419 87.2097Z" fill="#3C1A5E"/>
<path d="M36.9785 73.6596H33.9651V76.673H36.9785V73.6596Z" fill="#3C1A5E"/>
<path d="M36.9785 79.6823H33.9651V82.6957H36.9785V79.6823Z" fill="#3C1A5E"/>
<path d="M80.6458 55.5873H44.5054C44.1193 55.5673 43.7557 55.3998 43.4895 55.1194C43.2233 54.8391 43.0749 54.4672 43.0749 54.0806C43.0749 53.694 43.2233 53.3222 43.4895 53.0419C43.7557 52.7615 44.1193 52.594 44.5054 52.5739H80.6458C80.8503 52.5633 81.0547 52.5944 81.2468 52.6653C81.4388 52.7362 81.6144 52.8455 81.7629 52.9865C81.9114 53.1274 82.0296 53.2971 82.1104 53.4852C82.1912 53.6733 82.2329 53.8759 82.2329 54.0806C82.2329 54.2854 82.1912 54.4879 82.1104 54.676C82.0296 54.8642 81.9114 55.0338 81.7629 55.1748C81.6144 55.3158 81.4388 55.425 81.2468 55.4959C81.0547 55.5669 80.8503 55.598 80.6458 55.5873Z" fill="#3C1A5E"/>
</svg>
