<svg width="184" height="184" viewBox="0 0 184 184" fill="none" xmlns="http://www.w3.org/2000/svg">
<path d="M170.49 19.4534H14.3198V178.411H170.49V19.4534Z" fill="white"/>
<path d="M173.273 19.4534H167.698V178.411H173.273V19.4534Z" fill="#E6E6E6"/>
<path d="M17.1074 19.4534H11.5322V178.411H17.1074V19.4534Z" fill="#E6E6E6"/>
<path d="M181.645 175.623H3.16504V181.199H181.645V175.623Z" fill="#97A0A5"/>
<path d="M162.122 25.0332H22.687V58.4982H162.122V25.0332Z" fill="#E6E6E6"/>
<path d="M160.954 74.5798H22.687V147.738H160.954V74.5798Z" fill="#3C1A5E"/>
<path d="M162.122 64.0734H22.687V69.6486H162.122V64.0734Z" fill="#E6E6E6"/>
<path d="M173.278 2.71851H11.5278V19.4487H173.278V2.71851Z" fill="#97A0A5"/>
<path d="M28.2622 8.2984H22.687V13.8736H28.2622V8.2984Z" fill="#E8E5E3"/>
<path d="M39.4175 8.2984H33.8423V13.8736H39.4175V8.2984Z" fill="#E8E5E3"/>
<path d="M50.5723 8.2984H44.9971V13.8736H50.5723V8.2984Z" fill="#E8E5E3"/>
<path d="M162.123 8.2984H61.728V13.8736H162.123V8.2984Z" fill="#E8E5E3"/>
<path d="M160.954 83.6738H22.687V138.639H160.954V83.6738Z" fill="#FC7450"/>
<g opacity="0.4">
<path opacity="0.4" d="M83.0537 99.2864V123.262L103.823 111.274L83.0537 99.2864Z" fill="white"/>
</g>
<g opacity="0.4">
<path opacity="0.4" d="M153.838 94.148C154.505 94.1489 155.156 93.952 155.711 93.5824C156.265 93.2128 156.697 92.6869 156.953 92.0715C157.208 91.456 157.275 90.7786 157.146 90.125C157.016 89.4714 156.695 88.871 156.224 88.3998C155.753 87.9286 155.152 87.6078 154.499 87.4781C153.845 87.3483 153.168 87.4153 152.552 87.6708C151.937 87.9262 151.411 88.3585 151.041 88.9129C150.672 89.4674 150.475 90.119 150.476 90.7854C150.477 91.6768 150.831 92.5314 151.462 93.1617C152.092 93.7921 152.947 94.1467 153.838 94.148Z" fill="white"/>
</g>
<g opacity="0.4">
<path opacity="0.4" d="M153.838 104.337C154.504 104.338 155.156 104.141 155.71 103.772C156.264 103.402 156.697 102.877 156.952 102.261C157.208 101.646 157.275 100.969 157.146 100.315C157.016 99.662 156.696 99.0616 156.225 98.5902C155.755 98.1188 155.155 97.7977 154.501 97.6674C153.848 97.5371 153.171 97.6035 152.555 97.8582C151.94 98.1129 151.414 98.5445 151.043 99.0984C150.673 99.6522 150.476 100.303 150.476 100.97C150.476 101.862 150.83 102.718 151.46 103.349C152.091 103.98 152.946 104.336 153.838 104.337Z" fill="white"/>
</g>
<g opacity="0.4">
<path opacity="0.4" d="M153.838 124.71C154.504 124.711 155.156 124.514 155.71 124.145C156.264 123.775 156.697 123.25 156.952 122.635C157.208 122.019 157.275 121.342 157.146 120.689C157.016 120.035 156.696 119.435 156.225 118.964C155.755 118.492 155.155 118.171 154.501 118.041C153.848 117.91 153.171 117.977 152.555 118.232C151.94 118.486 151.414 118.918 151.043 119.472C150.673 120.026 150.476 120.677 150.476 121.343C150.476 122.235 150.83 123.091 151.46 123.722C152.091 124.354 152.946 124.709 153.838 124.71Z" fill="white"/>
</g>
<g opacity="0.4">
<path opacity="0.4" d="M153.838 114.54C154.505 114.541 155.156 114.344 155.711 113.974C156.265 113.604 156.697 113.079 156.953 112.463C157.208 111.848 157.275 111.17 157.146 110.517C157.016 109.863 156.695 109.263 156.224 108.792C155.753 108.32 155.152 108 154.499 107.87C153.845 107.74 153.168 107.807 152.552 108.062C151.937 108.318 151.411 108.75 151.041 109.305C150.672 109.859 150.475 110.511 150.476 111.177C150.476 112.069 150.83 112.924 151.46 113.555C152.091 114.185 152.946 114.54 153.838 114.54Z" fill="white"/>
</g>
<g opacity="0.4">
<path opacity="0.4" d="M153.838 134.895C154.505 134.896 155.156 134.699 155.711 134.329C156.265 133.959 156.697 133.434 156.953 132.818C157.208 132.203 157.275 131.525 157.146 130.872C157.016 130.218 156.695 129.618 156.224 129.147C155.753 128.675 155.152 128.355 154.499 128.225C153.845 128.095 153.168 128.162 152.552 128.417C151.937 128.673 151.411 129.105 151.041 129.66C150.672 130.214 150.475 130.866 150.476 131.532C150.476 132.424 150.83 133.279 151.46 133.91C152.091 134.54 152.946 134.895 153.838 134.895Z" fill="white"/>
</g>
<g opacity="0.4">
<path opacity="0.4" d="M30.4756 94.148C31.1418 94.148 31.793 93.9504 32.3468 93.5802C32.9006 93.21 33.3322 92.6838 33.5869 92.0683C33.8416 91.4527 33.9081 90.7755 33.7778 90.1222C33.6475 89.4689 33.3263 88.8689 32.8549 88.3982C32.3836 87.9275 31.7832 87.6071 31.1297 87.4777C30.4762 87.3483 29.799 87.4156 29.1838 87.6712C28.5686 87.9268 28.0431 88.3591 27.6736 88.9134C27.3042 89.4677 27.1075 90.1192 27.1084 90.7854C27.1084 91.2273 27.1955 91.665 27.3648 92.0732C27.5341 92.4815 27.7822 92.8524 28.0949 93.1647C28.4076 93.477 28.7789 93.7246 29.1874 93.8933C29.5959 94.062 30.0336 94.1486 30.4756 94.148Z" fill="white"/>
</g>
<g opacity="0.4">
<path opacity="0.4" d="M30.4756 104.337C31.1416 104.337 31.7926 104.139 32.3463 103.769C32.9001 103.399 33.3316 102.873 33.5865 102.258C33.8413 101.643 33.908 100.966 33.7781 100.313C33.6482 99.6594 33.3275 99.0594 32.8566 98.5885C32.3857 98.1176 31.7857 97.7969 31.1325 97.667C30.4793 97.5371 29.8023 97.6038 29.187 97.8586C28.5718 98.1135 28.0459 98.5451 27.6759 99.0988C27.3059 99.6525 27.1084 100.304 27.1084 100.969C27.1078 101.412 27.1945 101.85 27.3635 102.259C27.5325 102.668 27.7805 103.039 28.0933 103.352C28.4061 103.665 28.7775 103.913 29.1863 104.082C29.5951 104.251 30.0332 104.337 30.4756 104.337Z" fill="white"/>
</g>
<g opacity="0.4">
<path opacity="0.4" d="M30.4756 124.71C31.1416 124.71 31.7926 124.513 32.3463 124.143C32.9001 123.773 33.3316 123.247 33.5865 122.631C33.8413 122.016 33.908 121.339 33.7781 120.686C33.6482 120.033 33.3275 119.433 32.8566 118.962C32.3857 118.491 31.7857 118.17 31.1325 118.04C30.4793 117.91 29.8023 117.977 29.187 118.232C28.5718 118.487 28.0459 118.918 27.6759 119.472C27.3059 120.026 27.1084 120.677 27.1084 121.343C27.1078 121.785 27.1945 122.223 27.3635 122.632C27.5325 123.041 27.7805 123.412 28.0933 123.725C28.4061 124.038 28.7775 124.286 29.1863 124.455C29.5951 124.624 30.0332 124.711 30.4756 124.71Z" fill="white"/>
</g>
<g opacity="0.4">
<path opacity="0.4" d="M30.4756 114.54C31.1418 114.54 31.793 114.342 32.3468 113.972C32.9006 113.602 33.3322 113.076 33.5869 112.46C33.8416 111.844 33.9081 111.167 33.7778 110.514C33.6475 109.861 33.3263 109.261 32.8549 108.79C32.3836 108.319 31.7832 107.999 31.1297 107.869C30.4762 107.74 29.799 107.807 29.1838 108.063C28.5686 108.318 28.0431 108.751 27.6736 109.305C27.3042 109.859 27.1075 110.511 27.1084 111.177C27.1084 111.619 27.1955 112.057 27.3648 112.465C27.5341 112.873 27.7822 113.244 28.0949 113.556C28.4076 113.869 28.7789 114.116 29.1874 114.285C29.5959 114.454 30.0336 114.54 30.4756 114.54Z" fill="white"/>
</g>
<g opacity="0.4">
<path opacity="0.4" d="M30.4756 134.895C31.1418 134.895 31.793 134.697 32.3468 134.327C32.9006 133.957 33.3322 133.431 33.5869 132.815C33.8416 132.199 33.9081 131.522 33.7778 130.869C33.6475 130.216 33.3263 129.616 32.8549 129.145C32.3836 128.674 31.7832 128.354 31.1297 128.224C30.4762 128.095 29.799 128.162 29.1838 128.418C28.5686 128.673 28.0431 129.106 27.6736 129.66C27.3042 130.214 27.1075 130.866 27.1084 131.532C27.1084 131.974 27.1955 132.412 27.3648 132.82C27.5341 133.228 27.7822 133.599 28.0949 133.911C28.4076 134.224 28.7789 134.471 29.1874 134.64C29.5959 134.809 30.0336 134.895 30.4756 134.895Z" fill="white"/>
</g>
<path d="M160.955 152.885H22.7246V165.866H160.955V152.885Z" fill="#3C1A5E"/>
<path d="M38.6815 162.228L36.9519 156.538C36.9436 156.519 36.9404 156.499 36.9426 156.478C36.9448 156.458 36.9524 156.439 36.9646 156.422C36.9768 156.406 36.9931 156.393 37.0119 156.385C37.0307 156.377 37.0512 156.374 37.0715 156.377H38.0605C38.0973 156.374 38.1339 156.384 38.1636 156.406C38.1932 156.428 38.2138 156.46 38.2215 156.496L39.3393 160.609C39.3419 160.616 39.3466 160.622 39.3528 160.626C39.359 160.631 39.3663 160.633 39.3738 160.633C39.3813 160.633 39.3887 160.631 39.3948 160.626C39.401 160.622 39.4057 160.616 39.4083 160.609L40.5077 156.506C40.516 156.469 40.5365 156.437 40.5657 156.413C40.595 156.39 40.6313 156.377 40.6687 156.377H41.6347C41.655 156.374 41.6755 156.377 41.6943 156.385C41.7131 156.393 41.7295 156.406 41.7416 156.422C41.7538 156.439 41.7614 156.458 41.7636 156.478C41.7659 156.499 41.7626 156.519 41.7543 156.538L40.0201 162.228C40.0115 162.264 39.9907 162.295 39.9613 162.317C39.9319 162.339 39.8957 162.35 39.8591 162.348H38.8471C38.8099 162.35 38.7731 162.339 38.7429 162.317C38.7127 162.296 38.691 162.264 38.6815 162.228Z" fill="white"/>
<path d="M42.5229 162.2V156.524C42.52 156.504 42.5216 156.484 42.5276 156.466C42.5336 156.447 42.544 156.429 42.5578 156.415C42.5716 156.401 42.5885 156.39 42.6072 156.383C42.6259 156.377 42.6458 156.375 42.6655 156.377H43.5855C43.6052 156.375 43.6252 156.377 43.6439 156.383C43.6626 156.39 43.6795 156.401 43.6933 156.415C43.7071 156.429 43.7174 156.447 43.7235 156.466C43.7295 156.484 43.7311 156.504 43.7281 156.524V162.2C43.7311 162.22 43.7295 162.24 43.7235 162.259C43.7174 162.278 43.7071 162.295 43.6933 162.309C43.6795 162.324 43.6626 162.335 43.6439 162.341C43.6252 162.348 43.6052 162.35 43.5855 162.348H42.6655C42.6458 162.35 42.6259 162.348 42.6072 162.341C42.5885 162.335 42.5716 162.324 42.5578 162.309C42.544 162.295 42.5336 162.278 42.5276 162.259C42.5216 162.24 42.52 162.22 42.5229 162.2Z" fill="white"/>
<path d="M44.7625 162.201V156.524C44.7603 156.504 44.7626 156.484 44.7693 156.465C44.7759 156.447 44.7867 156.429 44.8008 156.415C44.8149 156.401 44.832 156.39 44.8509 156.384C44.8698 156.377 44.8899 156.375 44.9097 156.377H46.9981C48.2861 156.377 49.1325 157.095 49.1325 158.185V160.54C49.1325 161.63 48.2861 162.348 46.9981 162.348H44.9097C44.8899 162.35 44.8698 162.348 44.8509 162.341C44.832 162.334 44.8149 162.324 44.8008 162.31C44.7867 162.295 44.7759 162.278 44.7693 162.259C44.7626 162.241 44.7603 162.22 44.7625 162.201ZM46.0183 161.317H47.0395C47.1638 161.318 47.2869 161.293 47.4007 161.243C47.5146 161.193 47.6166 161.119 47.7003 161.027C47.784 160.935 47.8475 160.827 47.8866 160.709C47.9257 160.591 47.9396 160.466 47.9273 160.342V158.383C47.9412 158.258 47.9282 158.133 47.8894 158.014C47.8505 157.895 47.7867 157.786 47.7021 157.694C47.6175 157.602 47.5142 157.529 47.3991 157.481C47.284 157.432 47.1598 157.409 47.0349 157.412H45.9999C45.9631 157.412 45.9493 157.412 45.9493 157.463V161.262C45.9677 161.299 45.9999 161.317 45.9999 161.317H46.0183Z" fill="white"/>
<path d="M54.0369 157.412H51.2769C51.27 157.411 51.2631 157.412 51.2567 157.414C51.2502 157.417 51.2443 157.42 51.2395 157.425C51.2346 157.43 51.2309 157.436 51.2286 157.442C51.2263 157.449 51.2255 157.456 51.2263 157.462V158.764C51.2263 158.801 51.2263 158.815 51.2769 158.815H53.0571C53.0769 158.813 53.097 158.815 53.1159 158.822C53.1347 158.828 53.1519 158.839 53.166 158.853C53.1801 158.867 53.1909 158.884 53.1975 158.903C53.2041 158.922 53.2064 158.942 53.2043 158.962V159.703C53.2064 159.723 53.2041 159.743 53.1975 159.761C53.1909 159.78 53.1801 159.797 53.166 159.812C53.1519 159.826 53.1347 159.837 53.1159 159.843C53.097 159.85 53.0769 159.852 53.0571 159.85H51.2907C51.2838 159.849 51.2769 159.85 51.2705 159.852C51.264 159.855 51.2581 159.858 51.2533 159.863C51.2484 159.868 51.2447 159.874 51.2424 159.88C51.2401 159.887 51.2393 159.894 51.2401 159.9V161.28C51.2394 161.287 51.2402 161.295 51.2425 161.301C51.2448 161.308 51.2484 161.314 51.2531 161.319C51.2579 161.324 51.2637 161.329 51.2702 161.331C51.2766 161.334 51.2836 161.336 51.2907 161.336H54.0507C54.0699 161.333 54.0894 161.336 54.1077 161.342C54.126 161.348 54.1427 161.359 54.1564 161.373C54.1701 161.386 54.1805 161.403 54.1869 161.421C54.1933 161.439 54.1955 161.459 54.1933 161.478V162.219C54.1962 162.238 54.1946 162.259 54.1886 162.277C54.1826 162.296 54.1722 162.314 54.1584 162.328C54.1446 162.342 54.1277 162.353 54.109 162.36C54.0903 162.366 54.0704 162.368 54.0507 162.366H50.1959C50.176 162.368 50.1559 162.366 50.137 162.359C50.1182 162.353 50.1011 162.342 50.0869 162.328C50.0728 162.314 50.062 162.297 50.0554 162.278C50.0488 162.259 50.0465 162.239 50.0487 162.219V156.524C50.0465 156.504 50.0488 156.484 50.0554 156.465C50.062 156.446 50.0728 156.429 50.0869 156.415C50.1011 156.401 50.1182 156.39 50.137 156.384C50.1559 156.377 50.176 156.375 50.1959 156.377H54.0507C54.0704 156.375 54.0903 156.377 54.109 156.383C54.1277 156.39 54.1446 156.401 54.1584 156.415C54.1722 156.429 54.1826 156.447 54.1886 156.466C54.1946 156.484 54.1962 156.504 54.1933 156.524V157.265C54.1958 157.285 54.1934 157.306 54.1862 157.326C54.1791 157.346 54.1675 157.363 54.1522 157.378C54.137 157.392 54.1187 157.403 54.0986 157.409C54.0786 157.415 54.0574 157.416 54.0369 157.412Z" fill="white"/>
<path d="M54.8967 160.273V158.433C54.8867 158.14 54.9387 157.849 55.0494 157.577C55.16 157.306 55.3268 157.061 55.5388 156.859C55.7508 156.656 56.0031 156.501 56.2793 156.403C56.5556 156.305 56.8494 156.266 57.1415 156.29C58.4939 156.29 59.3909 157.155 59.3909 158.433V160.273C59.3648 160.852 59.1166 161.398 58.698 161.798C58.2795 162.198 57.7228 162.421 57.1438 162.421C56.5649 162.421 56.0082 162.198 55.5896 161.798C55.1711 161.398 54.9229 160.852 54.8967 160.273ZM58.1903 160.319V158.443C58.1998 158.299 58.1798 158.156 58.1315 158.02C58.0832 157.885 58.0077 157.761 57.9096 157.657C57.8115 157.552 57.6929 157.468 57.5612 157.411C57.4295 157.354 57.2874 157.324 57.1438 157.324C57.0002 157.324 56.8582 157.354 56.7265 157.411C56.5948 157.468 56.4762 157.552 56.3781 157.657C56.28 157.761 56.2044 157.885 56.1561 158.02C56.1078 158.156 56.0878 158.299 56.0973 158.443V160.319C56.0878 160.463 56.1078 160.606 56.1561 160.742C56.2044 160.877 56.28 161.001 56.3781 161.105C56.4762 161.21 56.5948 161.294 56.7265 161.351C56.8582 161.408 57.0002 161.438 57.1438 161.438C57.2874 161.438 57.4295 161.408 57.5612 161.351C57.6929 161.294 57.8115 161.21 57.9096 161.105C58.0077 161.001 58.0832 160.877 58.1315 160.742C58.1798 160.606 58.1998 160.463 58.1903 160.319Z" fill="white"/>
<path d="M61.8242 160.632V160.489C61.8212 160.47 61.8228 160.45 61.8289 160.431C61.8349 160.412 61.8452 160.395 61.859 160.38C61.8728 160.366 61.8898 160.355 61.9085 160.349C61.9271 160.342 61.9471 160.34 61.9668 160.342H62.8638C62.9558 160.342 63.0064 160.388 63.0064 160.453V160.572C63.0064 161.009 63.4434 161.382 64.1334 161.382C64.8234 161.382 65.0212 161.06 65.0212 160.719C65.0212 160.282 64.5842 160.131 63.7746 159.832C62.8868 159.523 61.8656 159.123 61.8656 157.992C61.8656 156.943 62.7258 156.303 63.9448 156.303C65.2604 156.303 66.1896 157.039 66.1896 158.143V158.24C66.192 158.26 66.1897 158.28 66.1831 158.298C66.1765 158.317 66.1656 158.334 66.1513 158.348C66.1371 158.362 66.1199 158.372 66.101 158.378C66.0821 158.384 66.062 158.386 66.0424 158.383H65.15C65.0534 158.383 65.0028 158.35 65.0028 158.295V158.212C65.0028 157.752 64.621 157.352 63.9034 157.352C63.356 157.352 63.0524 157.591 63.0524 157.992C63.0524 158.392 63.425 158.59 64.3726 158.912C65.15 159.192 66.2126 159.523 66.2126 160.683C66.2126 161.727 65.3708 162.417 64.0322 162.417C62.6936 162.417 61.8242 161.718 61.8242 160.632Z" fill="white"/>
<path d="M71.2311 156.524V157.274C71.2335 157.294 71.2312 157.313 71.2246 157.332C71.218 157.351 71.2071 157.368 71.1929 157.382C71.1786 157.395 71.1614 157.406 71.1425 157.412C71.1236 157.418 71.1035 157.419 71.0839 157.416H69.6073C69.6005 157.416 69.5936 157.417 69.5871 157.419C69.5807 157.421 69.5748 157.425 69.5699 157.43C69.5651 157.434 69.5614 157.44 69.5591 157.447C69.5568 157.453 69.556 157.46 69.5567 157.467V162.2C69.5597 162.22 69.5581 162.24 69.5521 162.259C69.546 162.278 69.5357 162.295 69.5219 162.309C69.5081 162.324 69.4912 162.334 69.4725 162.341C69.4538 162.348 69.4338 162.35 69.4141 162.348H68.4941C68.4744 162.35 68.4545 162.348 68.4358 162.341C68.4171 162.334 68.4002 162.324 68.3864 162.309C68.3726 162.295 68.3622 162.278 68.3562 162.259C68.3502 162.24 68.3486 162.22 68.3515 162.2V157.467C68.3523 157.46 68.3514 157.453 68.3492 157.447C68.3469 157.44 68.3432 157.434 68.3383 157.43C68.3335 157.425 68.3276 157.421 68.3211 157.419C68.3147 157.417 68.3078 157.416 68.3009 157.416H66.8657C66.8465 157.419 66.827 157.416 66.8087 157.41C66.7904 157.404 66.7737 157.393 66.76 157.38C66.7463 157.366 66.7359 157.349 66.7295 157.331C66.7231 157.313 66.7209 157.293 66.7231 157.274V156.524C66.7202 156.504 66.7218 156.484 66.7278 156.465C66.7338 156.447 66.7442 156.429 66.758 156.415C66.7718 156.401 66.7887 156.39 66.8074 156.383C66.8261 156.377 66.846 156.374 66.8657 156.377H71.0793C71.0996 156.374 71.1202 156.376 71.1396 156.382C71.1591 156.388 71.1768 156.399 71.1915 156.413C71.2061 156.427 71.2173 156.445 71.2242 156.464C71.2311 156.483 71.2335 156.504 71.2311 156.524Z" fill="white"/>
<path d="M75.1369 162.228L74.8977 161.437C74.8977 161.4 74.8701 161.391 74.8471 161.391H72.7587C72.7311 161.391 72.7127 161.391 72.7081 161.437L72.4689 162.228C72.4594 162.264 72.4377 162.296 72.4075 162.317C72.3773 162.339 72.3405 162.35 72.3033 162.348H71.3005C71.2803 162.35 71.2597 162.347 71.2409 162.339C71.2221 162.331 71.2058 162.318 71.1936 162.302C71.1814 162.286 71.1738 162.266 71.1716 162.246C71.1694 162.226 71.1726 162.205 71.1809 162.187L72.9979 156.496C73.0065 156.461 73.0273 156.429 73.0567 156.407C73.0861 156.385 73.1223 156.375 73.1589 156.377H74.4147C74.4515 156.374 74.4881 156.384 74.5178 156.406C74.5474 156.428 74.568 156.46 74.5757 156.496L76.3927 162.187C76.4295 162.279 76.3927 162.348 76.2731 162.348H75.2841C75.2499 162.346 75.2169 162.334 75.1903 162.313C75.1637 162.291 75.145 162.261 75.1369 162.228ZM73.0485 160.462H74.5573C74.5895 160.462 74.6079 160.462 74.5987 160.402L73.8305 157.803C73.8305 157.757 73.7799 157.757 73.7615 157.803L73.0025 160.402C72.9979 160.443 73.0117 160.462 73.0485 160.462Z" fill="white"/>
<path d="M80.321 162.237L79.2722 159.937C79.2683 159.924 79.2605 159.913 79.2497 159.905C79.239 159.897 79.2259 159.892 79.2124 159.891H78.435C78.4282 159.891 78.4213 159.892 78.4148 159.894C78.4083 159.896 78.4025 159.9 78.3976 159.905C78.3928 159.91 78.3891 159.915 78.3868 159.922C78.3845 159.928 78.3837 159.935 78.3844 159.942V162.219C78.3874 162.239 78.3858 162.259 78.3797 162.278C78.3737 162.296 78.3634 162.314 78.3496 162.328C78.3358 162.342 78.3188 162.353 78.3002 162.36C78.2815 162.366 78.2615 162.369 78.2418 162.366H77.3218C77.3021 162.369 77.2821 162.366 77.2634 162.36C77.2447 162.353 77.2278 162.342 77.214 162.328C77.2002 162.314 77.1899 162.296 77.1839 162.278C77.1778 162.259 77.1762 162.239 77.1792 162.219V156.515C77.1762 156.495 77.1778 156.475 77.1839 156.457C77.1899 156.438 77.2002 156.42 77.214 156.406C77.2278 156.392 77.2447 156.381 77.2634 156.374C77.2821 156.368 77.3021 156.366 77.3218 156.368H79.7184C79.9617 156.349 80.2061 156.383 80.4354 156.466C80.6647 156.55 80.8734 156.681 81.0477 156.852C81.2219 157.023 81.3577 157.229 81.4457 157.456C81.5338 157.684 81.5722 157.927 81.5584 158.171C81.5739 158.518 81.4758 158.86 81.2791 159.145C81.0823 159.431 80.7975 159.645 80.4682 159.753C80.4612 159.755 80.4547 159.759 80.4492 159.763C80.4438 159.768 80.4396 159.774 80.4369 159.781C80.4342 159.788 80.4331 159.795 80.4338 159.802C80.4344 159.809 80.4367 159.816 80.4406 159.822L81.5676 162.178C81.6182 162.27 81.5676 162.348 81.4664 162.348H80.5004C80.4629 162.349 80.4258 162.34 80.3938 162.32C80.3619 162.3 80.3365 162.272 80.321 162.237ZM78.3844 157.463V158.893C78.3837 158.9 78.3845 158.907 78.3868 158.913C78.3891 158.92 78.3928 158.926 78.3976 158.931C78.4025 158.935 78.4083 158.939 78.4148 158.941C78.4213 158.944 78.4282 158.945 78.435 158.944H79.5436C79.6481 158.953 79.7534 158.94 79.8525 158.906C79.9517 158.871 80.0426 158.817 80.1194 158.745C80.1961 158.674 80.257 158.587 80.298 158.49C80.3391 158.394 80.3595 158.29 80.3578 158.185C80.36 158.079 80.3401 157.974 80.2994 157.877C80.2587 157.779 80.1981 157.691 80.1215 157.619C80.0448 157.546 79.9538 157.49 79.8543 157.454C79.7548 157.419 79.649 157.404 79.5436 157.412H78.435C78.4282 157.411 78.4213 157.412 78.4148 157.414C78.4083 157.417 78.4025 157.42 78.3976 157.425C78.3928 157.43 78.3891 157.436 78.3868 157.442C78.3845 157.449 78.3837 157.456 78.3844 157.463Z" fill="white"/>
<path d="M86.641 156.524V157.274C86.6432 157.293 86.641 157.312 86.6346 157.331C86.6282 157.349 86.6178 157.366 86.6041 157.379C86.5904 157.393 86.5737 157.404 86.5554 157.41C86.5371 157.416 86.5176 157.418 86.4984 157.416H85.0218C85.0149 157.416 85.008 157.416 85.0016 157.419C84.9951 157.421 84.9892 157.425 84.9844 157.429C84.9795 157.434 84.9758 157.44 84.9735 157.447C84.9712 157.453 84.9704 157.46 84.9712 157.467V162.2C84.9733 162.22 84.971 162.24 84.9644 162.259C84.9578 162.278 84.947 162.295 84.9329 162.309C84.9188 162.323 84.9016 162.334 84.8828 162.341C84.8639 162.347 84.8438 162.35 84.824 162.347H83.904C83.8841 162.35 83.864 162.347 83.8451 162.341C83.8263 162.334 83.8092 162.323 83.795 162.309C83.7809 162.295 83.7701 162.278 83.7635 162.259C83.7569 162.24 83.7546 162.22 83.7568 162.2V157.467C83.7575 157.46 83.7567 157.453 83.7544 157.447C83.7521 157.44 83.7484 157.434 83.7435 157.429C83.7387 157.425 83.7328 157.421 83.7263 157.419C83.7199 157.416 83.713 157.416 83.7062 157.416H82.2756C82.2559 157.419 82.2359 157.418 82.217 157.412C82.1981 157.406 82.1809 157.395 82.1666 157.381C82.1524 157.368 82.1415 157.351 82.1349 157.332C82.1282 157.313 82.126 157.293 82.1283 157.274V156.524C82.1262 156.504 82.1285 156.484 82.1351 156.465C82.1417 156.446 82.1525 156.429 82.1666 156.415C82.1808 156.401 82.1979 156.39 82.2167 156.383C82.2356 156.377 82.2557 156.374 82.2756 156.377H86.48C86.501 156.371 86.5231 156.37 86.5443 156.376C86.5655 156.381 86.5851 156.391 86.6012 156.406C86.6172 156.42 86.6293 156.439 86.6363 156.46C86.6433 156.48 86.6449 156.502 86.641 156.524Z" fill="white"/>
<path d="M87.1702 160.632V160.489C87.168 160.469 87.1703 160.449 87.177 160.431C87.1836 160.412 87.1944 160.395 87.2085 160.38C87.2226 160.366 87.2398 160.356 87.2586 160.349C87.2775 160.342 87.2976 160.34 87.3174 160.342H88.2098C88.3064 160.342 88.357 160.388 88.357 160.453V160.572C88.357 161.009 88.7894 161.382 89.484 161.382C90.1786 161.382 90.3672 161.06 90.3672 160.719C90.3672 160.282 89.9348 160.131 89.1252 159.832C88.2374 159.523 87.2116 159.123 87.2116 157.992C87.2116 156.943 88.0764 156.303 89.2954 156.303C90.6064 156.303 91.5356 157.039 91.5356 158.143V158.24C91.5378 158.259 91.5357 158.279 91.5293 158.297C91.5229 158.315 91.5125 158.332 91.4987 158.346C91.485 158.359 91.4684 158.37 91.4501 158.376C91.4318 158.383 91.4123 158.385 91.393 158.383H90.473C90.381 158.383 90.3304 158.35 90.3304 158.295V158.212C90.3304 157.752 89.944 157.352 89.2264 157.352C88.6836 157.352 88.3754 157.591 88.3754 157.992C88.3754 158.392 88.7526 158.59 89.6956 158.912C90.473 159.192 91.5356 159.523 91.5356 160.683C91.5356 161.727 90.6892 162.417 89.3506 162.417C88.012 162.417 87.1702 161.718 87.1702 160.632Z" fill="white"/>
<path d="M94.1209 162.201V156.524C94.1187 156.504 94.121 156.484 94.1277 156.465C94.1343 156.447 94.1451 156.429 94.1592 156.415C94.1733 156.401 94.1904 156.39 94.2093 156.384C94.2282 156.377 94.2483 156.375 94.2681 156.377H95.1881C95.208 156.375 95.2281 156.377 95.2469 156.384C95.2658 156.39 95.2829 156.401 95.2971 156.415C95.3112 156.429 95.322 156.447 95.3286 156.465C95.3352 156.484 95.3375 156.504 95.3353 156.524V162.201C95.3375 162.22 95.3352 162.241 95.3286 162.259C95.322 162.278 95.3112 162.295 95.2971 162.31C95.2829 162.324 95.2658 162.334 95.2469 162.341C95.2281 162.348 95.208 162.35 95.1881 162.348H94.2681C94.2483 162.35 94.2282 162.348 94.2093 162.341C94.1904 162.334 94.1733 162.324 94.1592 162.31C94.1451 162.295 94.1343 162.278 94.1277 162.259C94.121 162.241 94.1187 162.22 94.1209 162.201Z" fill="white"/>
<path d="M96.3658 162.2V156.524C96.3628 156.504 96.3644 156.484 96.3705 156.466C96.3765 156.447 96.3868 156.429 96.4007 156.415C96.4145 156.401 96.4314 156.39 96.4501 156.383C96.4687 156.377 96.4887 156.375 96.5084 156.377H97.387C97.4217 156.375 97.4562 156.383 97.4864 156.4C97.5167 156.417 97.5412 156.443 97.5572 156.473L99.6916 160.02C99.7146 160.061 99.7514 160.052 99.7514 160.02V156.542C99.7484 156.523 99.75 156.503 99.7561 156.484C99.7621 156.465 99.7724 156.448 99.7863 156.434C99.8001 156.419 99.817 156.408 99.8357 156.402C99.8543 156.395 99.8743 156.393 99.894 156.395H100.814C100.834 156.393 100.854 156.395 100.873 156.402C100.892 156.409 100.909 156.419 100.923 156.434C100.937 156.448 100.948 156.465 100.954 156.484C100.961 156.503 100.963 156.523 100.961 156.542V162.219C100.963 162.239 100.961 162.259 100.954 162.278C100.948 162.297 100.937 162.314 100.923 162.328C100.909 162.342 100.892 162.353 100.873 162.359C100.854 162.366 100.834 162.368 100.814 162.366H99.9446C99.9095 162.367 99.8749 162.358 99.8447 162.34C99.8146 162.322 99.7902 162.296 99.7744 162.265L97.6354 158.681C97.6078 158.64 97.5756 158.649 97.5756 158.681V162.2C97.5786 162.22 97.577 162.24 97.5709 162.259C97.5649 162.278 97.5546 162.295 97.5408 162.309C97.527 162.324 97.5101 162.335 97.4914 162.341C97.4727 162.348 97.4527 162.35 97.433 162.348H96.513C96.493 162.351 96.4725 162.349 96.4532 162.343C96.4339 162.337 96.4163 162.326 96.402 162.312C96.3876 162.297 96.3769 162.28 96.3706 162.26C96.3643 162.241 96.3627 162.221 96.3658 162.2Z" fill="white"/>
<path d="M101.807 161.639C101.822 161.442 101.911 161.257 102.057 161.122C102.202 160.988 102.393 160.913 102.591 160.913C102.79 160.913 102.981 160.988 103.126 161.122C103.271 161.257 103.361 161.442 103.376 161.639C103.373 161.741 103.351 161.841 103.309 161.933C103.268 162.025 103.208 162.109 103.134 162.178C103.06 162.247 102.973 162.3 102.877 162.335C102.782 162.37 102.681 162.385 102.58 162.38C102.48 162.384 102.381 162.367 102.287 162.332C102.194 162.296 102.109 162.242 102.037 162.173C101.965 162.104 101.907 162.021 101.868 161.93C101.828 161.838 101.808 161.739 101.807 161.639ZM104.296 161.639C104.311 161.442 104.4 161.257 104.545 161.122C104.691 160.988 104.882 160.913 105.08 160.913C105.278 160.913 105.469 160.988 105.615 161.122C105.76 161.257 105.849 161.442 105.864 161.639C105.862 161.74 105.84 161.84 105.798 161.932C105.757 162.024 105.698 162.107 105.624 162.176C105.551 162.245 105.464 162.298 105.369 162.333C105.275 162.369 105.174 162.384 105.073 162.38C104.973 162.384 104.873 162.368 104.779 162.333C104.685 162.298 104.599 162.244 104.527 162.175C104.454 162.106 104.396 162.023 104.357 161.931C104.317 161.839 104.296 161.74 104.296 161.639ZM106.771 161.639C106.786 161.442 106.875 161.257 107.02 161.122C107.166 160.988 107.357 160.913 107.555 160.913C107.753 160.913 107.944 160.988 108.089 161.122C108.235 161.257 108.324 161.442 108.339 161.639C108.337 161.74 108.314 161.84 108.273 161.932C108.232 162.024 108.173 162.107 108.099 162.176C108.025 162.245 107.939 162.298 107.844 162.333C107.749 162.369 107.649 162.384 107.548 162.38C107.448 162.384 107.348 162.368 107.254 162.333C107.16 162.298 107.074 162.244 107.002 162.175C106.929 162.106 106.871 162.023 106.832 161.931C106.792 161.839 106.771 161.74 106.771 161.639Z" fill="white"/>
<path d="M110.727 160.632V160.489C110.725 160.469 110.727 160.449 110.734 160.431C110.74 160.412 110.751 160.395 110.765 160.38C110.779 160.366 110.796 160.356 110.815 160.349C110.834 160.342 110.854 160.34 110.874 160.342H111.78C111.877 160.342 111.927 160.388 111.927 160.453V160.572C111.927 161.009 112.36 161.382 113.054 161.382C113.749 161.382 113.942 161.06 113.942 160.719C113.942 160.282 113.505 160.131 112.696 159.832C111.808 159.523 110.787 159.123 110.787 157.992C110.787 156.943 111.647 156.303 112.866 156.303C114.177 156.303 115.106 157.039 115.106 158.143V158.24C115.108 158.259 115.106 158.279 115.1 158.297C115.093 158.315 115.083 158.332 115.069 158.346C115.055 158.359 115.039 158.37 115.021 158.376C115.002 158.383 114.983 158.385 114.963 158.383H114.066C113.974 158.383 113.924 158.35 113.924 158.295V158.212C113.924 157.752 113.537 157.352 112.824 157.352C112.277 157.352 111.969 157.591 111.969 157.992C111.969 158.392 112.346 158.59 113.294 158.912C114.066 159.192 115.134 159.523 115.134 160.683C115.134 161.727 114.287 162.417 112.949 162.417C111.61 162.417 110.727 161.718 110.727 160.632Z" fill="white"/>
<path d="M119.973 157.412H117.212C117.206 157.411 117.199 157.412 117.192 157.414C117.186 157.417 117.18 157.42 117.175 157.425C117.17 157.43 117.167 157.436 117.164 157.442C117.162 157.449 117.161 157.456 117.162 157.462V158.764C117.161 158.771 117.162 158.778 117.164 158.784C117.167 158.791 117.17 158.797 117.175 158.802C117.18 158.807 117.186 158.81 117.192 158.813C117.199 158.815 117.206 158.816 117.212 158.815H118.997C119.017 158.813 119.036 158.816 119.055 158.823C119.073 158.83 119.089 158.841 119.103 158.855C119.117 158.869 119.127 158.886 119.133 158.904C119.14 158.923 119.142 158.943 119.14 158.962V159.703C119.143 159.722 119.141 159.742 119.135 159.761C119.129 159.78 119.119 159.797 119.105 159.812C119.091 159.826 119.074 159.837 119.056 159.843C119.037 159.85 119.017 159.852 118.997 159.85H117.212C117.206 159.849 117.199 159.85 117.192 159.852C117.186 159.855 117.18 159.858 117.175 159.863C117.17 159.868 117.167 159.874 117.164 159.88C117.162 159.887 117.161 159.894 117.162 159.9V161.28C117.161 161.287 117.162 161.295 117.164 161.301C117.167 161.308 117.17 161.314 117.175 161.319C117.18 161.324 117.186 161.329 117.192 161.331C117.198 161.334 117.205 161.336 117.212 161.336H119.973C119.992 161.333 120.012 161.334 120.031 161.34C120.05 161.346 120.067 161.357 120.081 161.371C120.096 161.384 120.107 161.401 120.113 161.42C120.12 161.439 120.122 161.459 120.12 161.478V162.219C120.122 162.239 120.12 162.259 120.113 162.278C120.106 162.297 120.096 162.314 120.081 162.328C120.067 162.342 120.05 162.353 120.031 162.359C120.012 162.366 119.992 162.368 119.973 162.366H116.118C116.098 162.368 116.078 162.366 116.059 162.36C116.041 162.353 116.024 162.342 116.01 162.328C115.996 162.314 115.986 162.296 115.98 162.277C115.974 162.259 115.972 162.238 115.975 162.219V156.524C115.972 156.504 115.974 156.484 115.98 156.466C115.986 156.447 115.996 156.429 116.01 156.415C116.024 156.401 116.041 156.39 116.059 156.383C116.078 156.377 116.098 156.375 116.118 156.377H119.973C119.992 156.375 120.012 156.377 120.031 156.384C120.05 156.39 120.067 156.401 120.081 156.415C120.096 156.429 120.106 156.446 120.113 156.465C120.12 156.484 120.122 156.504 120.12 156.524V157.265C120.122 157.285 120.12 157.305 120.113 157.323C120.106 157.342 120.096 157.359 120.081 157.374C120.067 157.388 120.05 157.399 120.031 157.405C120.012 157.412 119.992 157.414 119.973 157.412Z" fill="white"/>
<path d="M120.833 160.342V158.374C120.833 157.127 121.712 156.308 123.05 156.308C124.389 156.308 125.263 157.095 125.263 158.282C125.263 158.332 125.208 158.364 125.125 158.374L124.205 158.433C124.108 158.433 124.048 158.433 124.048 158.392V158.341C124.031 158.085 123.917 157.845 123.73 157.67C123.542 157.495 123.295 157.398 123.039 157.398C122.782 157.398 122.535 157.495 122.348 157.67C122.16 157.845 122.046 158.085 122.029 158.341V160.393C122.046 160.649 122.16 160.889 122.348 161.064C122.535 161.239 122.782 161.337 123.039 161.337C123.295 161.337 123.542 161.239 123.73 161.064C123.917 160.889 124.031 160.649 124.048 160.393C124.048 160.333 124.099 160.292 124.196 160.301L125.116 160.342C125.203 160.342 125.263 160.342 125.263 160.388V160.43C125.263 161.621 124.375 162.417 123.05 162.417C121.725 162.417 120.833 161.589 120.833 160.342Z" fill="white"/>
<path d="M126.04 160.273V158.433C126.029 158.141 126.081 157.849 126.191 157.578C126.301 157.306 126.467 157.061 126.679 156.859C126.891 156.656 127.143 156.501 127.419 156.403C127.695 156.305 127.988 156.266 128.28 156.29C129.637 156.29 130.534 157.155 130.534 158.433V160.273C130.508 160.852 130.26 161.398 129.841 161.798C129.423 162.198 128.866 162.421 128.287 162.421C127.708 162.421 127.151 162.198 126.733 161.798C126.314 161.398 126.066 160.852 126.04 160.273ZM129.329 160.319V158.443C129.329 158.166 129.219 157.9 129.023 157.704C128.827 157.508 128.562 157.398 128.285 157.398C128.008 157.398 127.742 157.508 127.546 157.704C127.351 157.9 127.241 158.166 127.241 158.443V160.319C127.241 160.596 127.351 160.862 127.546 161.058C127.742 161.254 128.008 161.364 128.285 161.364C128.562 161.364 128.827 161.254 129.023 161.058C129.219 160.862 129.329 160.596 129.329 160.319Z" fill="white"/>
<path d="M131.436 162.201V156.524C131.434 156.504 131.436 156.484 131.443 156.465C131.449 156.447 131.46 156.429 131.474 156.415C131.488 156.401 131.505 156.39 131.524 156.384C131.543 156.377 131.563 156.375 131.583 156.377H132.48C132.515 156.376 132.549 156.384 132.579 156.402C132.609 156.419 132.633 156.443 132.65 156.474L134.78 160.02C134.808 160.062 134.84 160.052 134.84 160.02V156.543C134.838 156.523 134.84 156.503 134.847 156.484C134.853 156.465 134.864 156.448 134.878 156.434C134.892 156.42 134.909 156.409 134.928 156.402C134.947 156.396 134.967 156.393 134.987 156.395H135.879C135.899 156.393 135.919 156.396 135.938 156.402C135.957 156.409 135.974 156.42 135.988 156.434C136.002 156.448 136.013 156.465 136.02 156.484C136.027 156.503 136.029 156.523 136.027 156.543V162.219C136.029 162.239 136.027 162.259 136.02 162.278C136.013 162.297 136.002 162.314 135.988 162.328C135.974 162.342 135.957 162.353 135.938 162.359C135.919 162.366 135.899 162.368 135.879 162.366H135.01C134.975 162.367 134.941 162.358 134.911 162.34C134.881 162.322 134.856 162.296 134.84 162.265L132.701 158.682C132.673 158.64 132.641 158.649 132.641 158.682V162.201C132.643 162.22 132.641 162.241 132.634 162.259C132.628 162.278 132.617 162.295 132.603 162.31C132.589 162.324 132.572 162.334 132.553 162.341C132.534 162.348 132.514 162.35 132.494 162.348H131.574C131.555 162.349 131.536 162.345 131.518 162.338C131.5 162.331 131.484 162.32 131.471 162.306C131.458 162.292 131.448 162.275 131.442 162.257C131.436 162.239 131.434 162.22 131.436 162.201Z" fill="white"/>
<path d="M136.997 162.201V156.524C136.995 156.504 136.997 156.484 137.004 156.465C137.011 156.447 137.022 156.429 137.036 156.415C137.05 156.401 137.067 156.39 137.086 156.384C137.105 156.377 137.125 156.375 137.145 156.377H139.233C140.521 156.377 141.363 157.095 141.363 158.185V160.54C141.363 161.63 140.521 162.348 139.233 162.348H137.145C137.125 162.35 137.105 162.348 137.086 162.341C137.067 162.334 137.05 162.324 137.036 162.31C137.022 162.295 137.011 162.278 137.004 162.259C136.997 162.241 136.995 162.22 136.997 162.201ZM138.253 161.317H139.274C139.399 161.318 139.522 161.293 139.636 161.243C139.749 161.193 139.851 161.119 139.935 161.027C140.019 160.935 140.082 160.827 140.121 160.709C140.161 160.591 140.174 160.466 140.162 160.342V158.383C140.176 158.258 140.163 158.132 140.124 158.013C140.085 157.894 140.021 157.784 139.935 157.692C139.85 157.6 139.746 157.528 139.631 157.479C139.515 157.431 139.39 157.408 139.265 157.412H138.253C138.216 157.412 138.198 157.412 138.198 157.463V161.262C138.197 161.27 138.198 161.277 138.201 161.284C138.203 161.291 138.207 161.298 138.213 161.303C138.218 161.308 138.224 161.312 138.231 161.315C138.238 161.317 138.246 161.318 138.253 161.317Z" fill="white"/>
<path d="M142.072 160.632V160.489C142.069 160.469 142.072 160.449 142.078 160.431C142.085 160.412 142.096 160.395 142.11 160.38C142.124 160.366 142.141 160.356 142.16 160.349C142.179 160.342 142.199 160.34 142.219 160.342H143.111C143.208 160.342 143.258 160.388 143.258 160.453V160.572C143.258 161.009 143.691 161.382 144.385 161.382C145.08 161.382 145.273 161.06 145.273 160.719C145.273 160.282 144.836 160.131 144.027 159.832C143.139 159.523 142.113 159.123 142.113 157.992C142.113 156.943 142.978 156.303 144.197 156.303C145.508 156.303 146.437 157.039 146.437 158.143V158.24C146.439 158.259 146.437 158.279 146.431 158.297C146.424 158.315 146.414 158.332 146.4 158.346C146.386 158.359 146.37 158.37 146.351 158.376C146.333 158.383 146.314 158.385 146.294 158.383H145.397C145.305 158.383 145.255 158.35 145.255 158.295V158.212C145.255 157.752 144.868 157.352 144.155 157.352C143.608 157.352 143.3 157.591 143.3 157.992C143.3 158.392 143.677 158.59 144.625 158.912C145.397 159.192 146.465 159.523 146.465 160.683C146.465 161.727 145.618 162.417 144.28 162.417C142.941 162.417 142.072 161.718 142.072 160.632Z" fill="white"/>
<g opacity="0.25">
<g opacity="0.25">
<path opacity="0.25" d="M30.4756 145.084C31.1416 145.084 31.7926 144.886 32.3463 144.516C32.9001 144.146 33.3316 143.62 33.5865 143.005C33.8413 142.39 33.908 141.713 33.7781 141.059C33.6482 140.406 33.3275 139.806 32.8566 139.335C32.3857 138.865 31.7857 138.544 31.1325 138.414C30.4793 138.284 29.8023 138.351 29.187 138.605C28.5718 138.86 28.0459 139.292 27.6759 139.846C27.3059 140.399 27.1084 141.05 27.1084 141.716C27.1078 142.159 27.1945 142.597 27.3635 143.006C27.5325 143.414 27.7805 143.786 28.0933 144.099C28.4061 144.411 28.7775 144.659 29.1863 144.828C29.5951 144.997 30.0332 145.084 30.4756 145.084Z" fill="white"/>
</g>
</g>
<g opacity="0.25">
<g opacity="0.25">
<path opacity="0.25" d="M153.838 145.084C154.504 145.084 155.156 144.888 155.71 144.518C156.264 144.149 156.697 143.623 156.952 143.008C157.208 142.393 157.275 141.716 157.146 141.062C157.016 140.409 156.696 139.808 156.225 139.337C155.755 138.866 155.155 138.545 154.501 138.414C153.848 138.284 153.171 138.35 152.555 138.605C151.94 138.86 151.414 139.291 151.043 139.845C150.673 140.399 150.476 141.05 150.476 141.716C150.476 142.609 150.83 143.464 151.46 144.096C152.091 144.727 152.946 145.082 153.838 145.084Z" fill="white"/>
</g>
</g>
<g opacity="0.25">
<g opacity="0.25">
<path opacity="0.25" d="M30.4756 83.9634C31.1416 83.9634 31.7926 83.7659 32.3463 83.3959C32.9001 83.026 33.3316 82.5001 33.5865 81.8848C33.8413 81.2695 33.908 80.5925 33.7781 79.9393C33.6482 79.2861 33.3275 78.6862 32.8566 78.2152C32.3857 77.7443 31.7857 77.4236 31.1325 77.2937C30.4793 77.1638 29.8023 77.2305 29.187 77.4853C28.5718 77.7402 28.0459 78.1718 27.6759 78.7255C27.3059 79.2792 27.1084 79.9302 27.1084 80.5962C27.1078 81.0386 27.1945 81.4767 27.3635 81.8855C27.5325 82.2943 27.7805 82.6657 28.0933 82.9785C28.4061 83.2913 28.7775 83.5393 29.1863 83.7083C29.5951 83.8773 30.0332 83.964 30.4756 83.9634Z" fill="white"/>
</g>
</g>
<g opacity="0.25">
<g opacity="0.25">
<path opacity="0.25" d="M153.838 83.9634C154.504 83.9643 155.156 83.7676 155.71 83.3982C156.264 83.0287 156.697 82.5032 156.952 81.888C157.208 81.2728 157.275 80.5956 157.146 79.9421C157.016 79.2887 156.696 78.6882 156.225 78.2169C155.755 77.7455 155.155 77.4243 154.501 77.294C153.848 77.1637 153.171 77.2302 152.555 77.4849C151.94 77.7396 151.414 78.1712 151.043 78.725C150.673 79.2788 150.476 79.93 150.476 80.5962C150.476 81.4885 150.83 82.3442 151.46 82.9756C152.091 83.6069 152.946 83.9622 153.838 83.9634Z" fill="white"/>
</g>
</g>
</svg>
