<svg width="128" height="128" viewBox="0 0 128 128" fill="none" xmlns="http://www.w3.org/2000/svg">
<path d="M64 100C89.4051 100 110 79.4051 110 54C110 28.5949 89.4051 8 64 8C38.5949 8 18 28.5949 18 54C18 79.4051 38.5949 100 64 100Z" fill="#FC7450"/>
<path d="M30 74H22C19.7909 74 18 75.7911 18 78.0006V109.999C18 112.209 19.7909 114 22 114H30C32.2091 114 34 112.209 34 109.999V78.0006C34 75.7911 32.2091 74 30 74Z" fill="#E6E6E6"/>
<path d="M106 74H98C95.7909 74 94 75.7911 94 78.0006V109.999C94 112.209 95.7909 114 98 114H106C108.209 114 110 112.209 110 109.999V78.0006C110 75.7911 108.209 74 106 74Z" fill="#E6E6E6"/>
<path d="M71.9991 116H56.0009C53.7913 116 52 117.791 52 120V122C52 124.209 53.7913 126 56.0009 126H71.9991C74.2087 126 76 124.209 76 122V120C76 117.791 74.2087 116 71.9991 116Z" fill="#E6E6E6"/>
<path d="M14 66C17.3137 66 20 63.3137 20 60C20 56.6863 17.3137 54 14 54C10.6863 54 8 56.6863 8 60C8 63.3137 10.6863 66 14 66Z" fill="#E6E6E6"/>
<path d="M114 66C117.314 66 120 63.3137 120 60C120 56.6863 117.314 54 114 54C110.686 54 108 56.6863 108 60C108 63.3137 110.686 66 114 66Z" fill="#E6E6E6"/>
<path d="M14.0222 68C12.439 68.0044 10.8901 67.5389 9.57158 66.6625C8.25307 65.7861 7.22425 64.5382 6.61535 63.0768C6.00645 61.6154 5.84485 60.0062 6.15103 58.4529C6.4572 56.8996 7.21738 55.472 8.33531 54.351C9.45324 53.23 10.8787 52.4658 12.4311 52.1554C13.9836 51.8449 15.5932 52.002 17.0563 52.6068C18.5194 53.2117 19.7702 54.237 20.6502 55.5531C21.5302 56.8692 22 58.4168 22 60C21.9971 62.117 21.1563 64.1468 19.6615 65.6458C18.1666 67.1448 16.1391 67.9912 14.0222 68ZM14.0222 56C13.231 56 12.4577 56.2346 11.7999 56.6741C11.1421 57.1136 10.6294 57.7383 10.3266 58.4692C10.0239 59.2001 9.94468 60.0044 10.099 60.7803C10.2534 61.5563 10.6343 62.269 11.1937 62.8284C11.7531 63.3878 12.4659 63.7688 13.2418 63.9231C14.0177 64.0774 14.822 63.9982 15.5529 63.6955C16.2838 63.3927 16.9085 62.88 17.348 62.2222C17.7876 61.5645 18.0222 60.7911 18.0222 60C18.0207 58.9396 17.5988 57.923 16.849 57.1732C16.0991 56.4233 15.0826 56.0014 14.0222 56Z" fill="#3C1A5E"/>
<path d="M66 52H62V56H66V52Z" fill="#3C1A5E"/>
<path d="M58 52H54V56H58V52Z" fill="#3C1A5E"/>
<path d="M74 52H70V56H74V52Z" fill="#3C1A5E"/>
<path d="M10.2496 82H6V71.4257L12.9982 65L16 67.7585L10.2496 73.0429V82Z" fill="#3C1A5E"/>
<path d="M114 68C112.418 68 110.871 67.5308 109.555 66.6518C108.24 65.7727 107.214 64.5233 106.609 63.0615C106.003 61.5997 105.845 59.9911 106.154 58.4393C106.462 56.8874 107.224 55.462 108.343 54.3432C109.462 53.2243 110.887 52.4624 112.439 52.1537C113.991 51.845 115.6 52.0035 117.061 52.609C118.523 53.2145 119.773 54.2398 120.652 55.5554C121.531 56.871 122 58.4177 122 60C121.997 62.1208 121.153 64.154 119.654 65.6536C118.154 67.1533 116.121 67.9971 114 68ZM114 56C113.209 56 112.436 56.2346 111.778 56.6741C111.12 57.1137 110.607 57.7384 110.304 58.4693C110.002 59.2002 109.923 60.0044 110.077 60.7804C110.231 61.5563 110.612 62.269 111.172 62.8284C111.731 63.3878 112.444 63.7688 113.22 63.9231C113.996 64.0775 114.8 63.9983 115.531 63.6955C116.262 63.3928 116.886 62.8801 117.326 62.2223C117.765 61.5645 118 60.7911 118 60C117.999 58.9396 117.577 57.923 116.827 57.1732C116.077 56.4234 115.06 56.0015 114 56Z" fill="#3C1A5E"/>
<path d="M122 82H118.175V73.0429L113 67.7585L115.702 65L122 71.4257V82Z" fill="#3C1A5E"/>
<path d="M14.9732 47.9724L11 47.5422C12.5284 34.449 18.8222 22.3725 28.6856 13.6075C38.5489 4.84258 51.2944 0 64.5 0C77.7056 0 90.4511 4.84258 100.314 13.6075C110.178 22.3725 116.472 34.449 118 47.5422L114.032 48C112.624 35.8719 106.8 24.6834 97.6665 16.5623C88.5334 8.44115 76.7286 3.9539 64.4972 3.9539C52.2659 3.9539 40.4611 8.44115 31.3279 16.5623C22.1948 24.6834 16.3703 35.8719 14.9621 48L14.9732 47.9724Z" fill="#3C1A5E"/>
<path d="M30.0033 116H21.9911C20.4021 115.997 18.8791 115.364 17.756 114.239C16.633 113.114 16.0015 111.589 16 109.999V78.0008C16.0015 76.4107 16.633 74.886 17.756 73.7612C18.8791 72.6363 20.4021 72.0029 21.9911 72H30.0033C31.5933 72.0015 33.1177 72.6342 34.242 73.7592C35.3663 74.8842 35.9985 76.4097 36 78.0008V109.999C35.9985 111.59 35.3663 113.116 34.242 114.241C33.1177 115.366 31.5933 115.999 30.0033 116ZM21.9911 76.0005C21.462 76.002 20.955 76.2134 20.5813 76.5883C20.2076 76.9633 19.9978 77.4712 19.9978 78.0008V109.999C19.9978 110.529 20.2076 111.037 20.5813 111.412C20.955 111.787 21.462 111.998 21.9911 111.999H30.0033C30.5335 111.999 31.0419 111.789 31.4167 111.414C31.7916 111.039 32.0022 110.53 32.0022 109.999V78.0008C32.0022 77.4703 31.7916 76.9615 31.4167 76.5864C31.0419 76.2112 30.5335 76.0005 30.0033 76.0005H21.9911Z" fill="#3C1A5E"/>
<path d="M71.9988 128H56.0012C54.4105 128 52.8849 127.368 51.7597 126.244C50.6344 125.119 50.0015 123.594 50 122.003V120.002C50 118.41 50.6323 116.884 51.7577 115.758C52.8831 114.632 54.4096 114 56.0012 114H71.9988C73.59 114.001 75.1155 114.634 76.2407 115.76C77.3658 116.885 77.9985 118.411 78 120.002V122.003C77.9971 123.594 77.3637 125.118 76.2387 126.242C75.1137 127.366 73.589 127.999 71.9988 128ZM56.0012 118.024C55.4706 118.024 54.9618 118.235 54.5867 118.61C54.2115 118.985 54.0008 119.494 54.0008 120.025V122.025C54.0023 122.555 54.2137 123.063 54.5886 123.437C54.9636 123.811 55.4716 124.021 56.0012 124.021H71.9988C72.5284 124.021 73.0364 123.811 73.4113 123.437C73.7863 123.063 73.9977 122.555 73.9992 122.025V120.025C73.9992 119.762 73.9475 119.502 73.8469 119.259C73.7464 119.016 73.5991 118.796 73.4133 118.61C73.2276 118.424 73.007 118.277 72.7643 118.176C72.5216 118.076 72.2615 118.024 71.9988 118.024H56.0012Z" fill="#3C1A5E"/>
<path d="M103.997 128H72V123.993H103.997C105.057 123.993 106.074 123.571 106.824 122.821C107.575 122.07 107.997 121.053 107.998 119.991V110H112V119.991C111.997 122.115 111.153 124.151 109.652 125.653C108.152 127.154 106.118 127.999 103.997 128Z" fill="#3C1A5E"/>
<path d="M16 109.997C13.913 110.037 11.8392 109.652 9.89975 108.866C7.96032 108.08 6.19416 106.908 4.70451 105.418C3.21485 103.929 2.03156 102.152 1.2238 100.192C0.416037 98.2311 0 96.1262 0 94C0 91.8738 0.416037 89.7689 1.2238 87.8084C2.03156 85.8478 3.21485 84.0709 4.70451 82.5815C6.19416 81.0921 7.96032 79.9201 9.89975 79.1339C11.8392 78.3477 13.913 77.9632 16 78.0028V109.997Z" fill="#595857"/>
<path d="M106 116H98C96.4092 115.999 94.8839 115.366 93.759 114.241C92.6341 113.116 92.0015 111.59 92 109.999V78.0008C92.0015 76.4097 92.6341 74.8842 93.759 73.7592C94.8839 72.6342 96.4092 72.0015 98 72H106C107.591 72.0015 109.116 72.6342 110.241 73.7592C111.366 74.8842 111.999 76.4097 112 78.0008V109.999C111.999 111.59 111.366 113.116 110.241 114.241C109.116 115.366 107.591 115.999 106 116ZM98 76.0005C97.7374 76.0005 97.4773 76.0522 97.2346 76.1528C96.992 76.2533 96.7715 76.4006 96.5858 76.5864C96.4001 76.7721 96.2528 76.9926 96.1522 77.2353C96.0517 77.478 96 77.7381 96 78.0008V109.999C96 110.262 96.0517 110.522 96.1522 110.765C96.2528 111.007 96.4001 111.228 96.5858 111.414C96.7715 111.599 96.992 111.747 97.2346 111.847C97.4773 111.948 97.7374 111.999 98 111.999H106C106.263 111.999 106.523 111.948 106.765 111.847C107.008 111.747 107.228 111.599 107.414 111.414C107.6 111.228 107.747 111.007 107.848 110.765C107.948 110.522 108 110.262 108 109.999V78.0008C108 77.7381 107.948 77.478 107.848 77.2353C107.747 76.9926 107.6 76.7721 107.414 76.5864C107.228 76.4006 107.008 76.2533 106.765 76.1528C106.523 76.0522 106.263 76.0005 106 76.0005H98Z" fill="#3C1A5E"/>
<path d="M112 110C116.271 109.922 120.34 108.202 123.332 105.21C126.324 102.218 128 98.1926 128 94C128 89.8074 126.324 85.7822 123.332 82.7901C120.34 79.798 116.271 78.078 112 78V110Z" fill="#595857"/>
</svg>
