<svg width="184" height="184" viewBox="0 0 184 184" fill="none" xmlns="http://www.w3.org/2000/svg">
<path d="M168.291 20.24H13.7314V177.56H168.291V20.24Z" fill="white"/>
<path d="M171.051 20.24H165.531V177.56H171.051V20.24Z" fill="#E6E6E6"/>
<path d="M16.4912 20.24H10.9712V177.56H16.4912V20.24Z" fill="#E6E6E6"/>
<path d="M179.331 174.8H2.69141V180.32H179.331V174.8Z" fill="#97A0A5"/>
<path d="M160.011 25.76H22.0112V58.88H160.011V25.76Z" fill="#E6E6E6"/>
<path d="M110.331 125.12H71.6914V163.76H110.331V125.12Z" fill="#E6E6E6"/>
<path d="M60.6512 125.12H22.0112V130.64H60.6512V125.12Z" fill="#E6E6E6"/>
<path d="M60.6512 136.16H22.0112V141.68H60.6512V136.16Z" fill="#E6E6E6"/>
<path d="M60.6512 147.2H22.0112V152.72H60.6512V147.2Z" fill="#E6E6E6"/>
<path d="M60.6512 158.24H22.0112V163.76H60.6512V158.24Z" fill="#E6E6E6"/>
<path d="M160.012 125.12H121.372V130.64H160.012V125.12Z" fill="#E6E6E6"/>
<path d="M160.012 136.16H121.372V141.68H160.012V136.16Z" fill="#E6E6E6"/>
<path d="M160.012 147.2H121.372V152.72H160.012V147.2Z" fill="#E6E6E6"/>
<path d="M160.012 158.24H121.372V163.76H160.012V158.24Z" fill="#E6E6E6"/>
<path d="M110.331 92H71.6914V97.52H110.331V92Z" fill="#E6E6E6"/>
<path d="M110.331 80.96H71.6914V86.48H110.331V80.96Z" fill="#E6E6E6"/>
<path d="M110.331 114.08H71.6914V119.6H110.331V114.08Z" fill="#E6E6E6"/>
<path d="M160.011 64.4H22.0112V69.92H160.011V64.4Z" fill="#E6E6E6"/>
<path d="M171.051 3.67999H10.9712V20.24H171.051V3.67999Z" fill="#97A0A5"/>
<path d="M27.5312 9.19995H22.0112V14.72H27.5312V9.19995Z" fill="#E8E5E3"/>
<path d="M38.5713 9.19995H33.0513V14.72H38.5713V9.19995Z" fill="#E8E5E3"/>
<path d="M49.6113 9.19995H44.0913V14.72H49.6113V9.19995Z" fill="#E8E5E3"/>
<path d="M160.011 9.19995H60.6514V14.72H160.011V9.19995Z" fill="#E8E5E3"/>
<path d="M60.6512 80.96H22.0112V119.6H60.6512V80.96Z" fill="#E6E6E6"/>
<path d="M160.012 80.96H121.372V119.6H160.012V80.96Z" fill="#E6E6E6"/>
<path d="M110.331 103.04H71.6914V108.56H110.331V103.04Z" fill="#E6E6E6"/>
<path d="M162.605 116.969H97.2349V170.991H162.605V116.969Z" fill="#FC7450"/>
<path d="M162.605 105.805H97.2349V116.964H162.605V105.805Z" fill="#3C1A5E"/>
<g opacity="0.4">
<path opacity="0.4" d="M125.843 133.57V151.326L141.221 142.448L125.843 133.57Z" fill="white"/>
</g>
<g opacity="0.4">
<path opacity="0.4" d="M104.83 126.914C105.497 126.914 106.15 126.716 106.705 126.345C107.261 125.974 107.693 125.447 107.949 124.83C108.204 124.213 108.271 123.534 108.141 122.879C108.011 122.224 107.689 121.623 107.217 121.15C106.745 120.678 106.143 120.357 105.488 120.226C104.833 120.096 104.154 120.163 103.537 120.418C102.92 120.674 102.393 121.107 102.022 121.662C101.651 122.217 101.453 122.87 101.453 123.538C101.453 123.981 101.539 124.421 101.709 124.831C101.878 125.241 102.127 125.613 102.441 125.927C102.754 126.24 103.127 126.489 103.537 126.658C103.947 126.828 104.386 126.915 104.83 126.914Z" fill="white"/>
</g>
<g opacity="0.4">
<path opacity="0.4" d="M104.83 137.135C105.497 137.135 106.15 136.937 106.705 136.566C107.261 136.195 107.693 135.668 107.949 135.051C108.204 134.434 108.271 133.755 108.141 133.1C108.011 132.445 107.689 131.844 107.217 131.372C106.745 130.899 106.143 130.578 105.488 130.448C104.833 130.317 104.154 130.384 103.537 130.64C102.92 130.895 102.393 131.328 102.022 131.883C101.651 132.439 101.453 133.091 101.453 133.759C101.453 134.655 101.809 135.513 102.442 136.147C103.075 136.78 103.934 137.135 104.83 137.135Z" fill="white"/>
</g>
<g opacity="0.4">
<path opacity="0.4" d="M104.83 157.578C105.497 157.578 106.15 157.38 106.705 157.009C107.261 156.638 107.693 156.11 107.949 155.493C108.204 154.876 108.271 154.197 108.141 153.543C108.011 152.888 107.689 152.286 107.217 151.814C106.745 151.342 106.143 151.02 105.488 150.89C104.833 150.759 104.154 150.826 103.537 151.082C102.92 151.337 102.393 151.77 102.022 152.325C101.651 152.881 101.453 153.533 101.453 154.201C101.453 155.097 101.809 155.956 102.442 156.589C103.075 157.222 103.934 157.578 104.83 157.578Z" fill="white"/>
</g>
<g opacity="0.4">
<path opacity="0.4" d="M104.83 147.356C105.497 147.356 106.15 147.158 106.705 146.787C107.261 146.416 107.693 145.889 107.949 145.272C108.204 144.655 108.271 143.976 108.141 143.321C108.011 142.666 107.689 142.065 107.217 141.592C106.745 141.12 106.143 140.799 105.488 140.668C104.833 140.538 104.154 140.605 103.537 140.86C102.92 141.116 102.393 141.549 102.022 142.104C101.651 142.659 101.453 143.312 101.453 143.98C101.453 144.875 101.809 145.734 102.442 146.367C103.075 147.001 103.934 147.356 104.83 147.356Z" fill="white"/>
</g>
<g opacity="0.4">
<path opacity="0.4" d="M104.83 167.794C105.497 167.794 106.15 167.596 106.705 167.225C107.261 166.854 107.693 166.327 107.949 165.71C108.204 165.093 108.271 164.414 108.141 163.759C108.011 163.104 107.689 162.503 107.217 162.03C106.745 161.558 106.143 161.237 105.488 161.106C104.833 160.976 104.154 161.043 103.537 161.298C102.92 161.554 102.393 161.987 102.022 162.542C101.651 163.097 101.453 163.75 101.453 164.418C101.453 164.861 101.539 165.301 101.709 165.711C101.878 166.121 102.127 166.493 102.441 166.807C102.754 167.12 103.127 167.369 103.537 167.538C103.947 167.708 104.386 167.795 104.83 167.794Z" fill="white"/>
</g>
<path d="M153.539 115.184H155.379C155.438 115.186 155.497 115.172 155.548 115.144C155.6 115.115 155.643 115.074 155.674 115.023L156.962 113.059C156.989 112.999 157.049 112.999 157.081 113.059L158.365 115.023C158.396 115.074 158.44 115.115 158.493 115.143C158.545 115.172 158.604 115.186 158.664 115.184H160.347C160.554 115.184 160.628 115.037 160.508 114.876L158.208 111.444C158.195 111.428 158.188 111.408 158.188 111.387C158.188 111.366 158.195 111.346 158.208 111.329L160.508 107.898C160.628 107.732 160.554 107.585 160.347 107.585H158.544C158.485 107.584 158.426 107.599 158.374 107.628C158.323 107.657 158.28 107.699 158.25 107.75L156.962 109.715C156.934 109.774 156.874 109.761 156.842 109.715L155.54 107.75C155.51 107.699 155.467 107.657 155.415 107.628C155.364 107.599 155.305 107.584 155.246 107.585H153.562C153.355 107.585 153.282 107.732 153.397 107.898L155.697 111.329C155.71 111.346 155.717 111.366 155.717 111.387C155.717 111.408 155.71 111.428 155.697 111.444L153.397 114.876C153.282 115.037 153.355 115.184 153.562 115.184" fill="white"/>
<g opacity="0.4">
<path opacity="0.4" d="M157.168 137.135C157.836 137.135 158.488 136.937 159.044 136.566C159.599 136.195 160.032 135.668 160.287 135.051C160.543 134.434 160.61 133.755 160.479 133.1C160.349 132.445 160.028 131.844 159.555 131.372C159.083 130.899 158.482 130.578 157.827 130.448C157.172 130.317 156.493 130.384 155.876 130.64C155.259 130.895 154.732 131.328 154.361 131.883C153.99 132.439 153.792 133.091 153.792 133.759C153.792 134.655 154.147 135.513 154.78 136.147C155.414 136.78 156.272 137.135 157.168 137.135Z" fill="white"/>
</g>
<g opacity="0.4">
<path opacity="0.4" d="M157.168 157.578C157.836 157.578 158.488 157.38 159.044 157.009C159.599 156.638 160.032 156.11 160.287 155.493C160.543 154.876 160.61 154.197 160.479 153.543C160.349 152.888 160.028 152.286 159.555 151.814C159.083 151.342 158.482 151.02 157.827 150.89C157.172 150.759 156.493 150.826 155.876 151.082C155.259 151.337 154.732 151.77 154.361 152.325C153.99 152.881 153.792 153.533 153.792 154.201C153.792 155.097 154.147 155.956 154.78 156.589C155.414 157.222 156.272 157.578 157.168 157.578Z" fill="white"/>
</g>
<g opacity="0.4">
<path opacity="0.4" d="M157.168 147.356C157.836 147.356 158.488 147.158 159.044 146.787C159.599 146.416 160.032 145.889 160.287 145.272C160.543 144.655 160.61 143.976 160.479 143.321C160.349 142.666 160.028 142.065 159.555 141.592C159.083 141.12 158.482 140.799 157.827 140.668C157.172 140.538 156.493 140.605 155.876 140.86C155.259 141.116 154.732 141.549 154.361 142.104C153.99 142.659 153.792 143.312 153.792 143.98C153.792 144.875 154.147 145.734 154.78 146.367C155.414 147.001 156.272 147.356 157.168 147.356Z" fill="white"/>
</g>
<g opacity="0.4">
<path opacity="0.4" d="M157.168 167.794C157.836 167.794 158.488 167.596 159.044 167.225C159.599 166.854 160.032 166.327 160.287 165.71C160.543 165.093 160.61 164.414 160.479 163.759C160.349 163.104 160.028 162.503 159.555 162.03C159.083 161.558 158.482 161.237 157.827 161.106C157.172 160.976 156.493 161.043 155.876 161.298C155.259 161.554 154.732 161.987 154.361 162.542C153.99 163.097 153.792 163.75 153.792 164.418C153.792 165.313 154.147 166.172 154.78 166.805C155.414 167.439 156.272 167.794 157.168 167.794Z" fill="white"/>
</g>
<g opacity="0.4">
<path opacity="0.4" d="M157.168 126.914C157.836 126.914 158.488 126.716 159.044 126.345C159.599 125.974 160.032 125.447 160.287 124.83C160.543 124.213 160.61 123.534 160.479 122.879C160.349 122.224 160.028 121.623 159.555 121.15C159.083 120.678 158.482 120.357 157.827 120.226C157.172 120.096 156.493 120.163 155.876 120.418C155.259 120.674 154.732 121.107 154.361 121.662C153.99 122.217 153.792 122.87 153.792 123.538C153.792 124.433 154.147 125.292 154.78 125.925C155.414 126.558 156.272 126.914 157.168 126.914Z" fill="white"/>
</g>
</svg>
