<svg width="103" height="103" viewBox="0 0 103 103" fill="none" xmlns="http://www.w3.org/2000/svg">
<path d="M98.3483 14.3335H4.65186V96.6161H98.3483V14.3335Z" fill="white"/>
<path d="M94.8125 17.8348H8.1875V96.6161H94.8125V17.8348Z" fill="#E6E6E6"/>
<path d="M101 6.45532H2V14.3334H101V6.45532Z" fill="#3C1A5E"/>
<path d="M101 14.3335H98.3481V96.6161H101V14.3335Z" fill="#3C1A5E"/>
<path d="M10.8393 9.08142H8.1875V11.7075H10.8393V9.08142Z" fill="#E6E6E6"/>
<path d="M17.0268 9.08142H14.375V11.7075H17.0268V9.08142Z" fill="#E6E6E6"/>
<path d="M23.2143 9.08142H20.5625V11.7075H23.2143V9.08142Z" fill="#E6E6E6"/>
<path d="M94.8126 9.08142H29.4019V11.7075H94.8126V9.08142Z" fill="#E6E6E6"/>
<path d="M4.65179 14.3335H2V96.6161H4.65179V14.3335Z" fill="#3C1A5E"/>
<path d="M68.6458 30.0897L66.9676 31.6212V51.4381L51.4977 61.2294L36.0324 51.4381V31.6212L34.3542 30.0897C30.1336 32.5025 26.6532 35.8582 24.2405 39.841C21.8278 43.8238 20.5621 48.3028 20.5625 52.8566C20.5625 69.8407 37.578 73.8534 37.578 88.1261V96.6161H65.422V88.1261C65.422 73.8534 82.4375 69.8407 82.4375 52.8566C82.437 48.3029 81.171 43.8243 78.7583 39.8416C76.3457 35.8589 72.8658 32.5031 68.6458 30.0897V30.0897Z" fill="white"/>
<path d="M65.6429 37.0925V51.3164L51.5 59.8515V45.6277L65.6429 37.0925Z" fill="#FC7450"/>
<path d="M37.3572 37.528L51.4977 45.8458L65.6429 37.528L51.4977 29.2142L37.3572 37.528Z" fill="#E8E6E4"/>
<path d="M37.3572 37.0925V51.3164L51.5 59.8515V45.6277L37.3572 37.0925Z" fill="#B4F0E0"/>
<path d="M51.4978 78.2336C50.3262 78.2336 49.2026 78.6803 48.3742 79.4753C47.5457 80.2703 47.0803 81.3485 47.0803 82.4728V96.6159H55.9196V82.4728C55.9196 81.9158 55.8052 81.3642 55.5829 80.8496C55.3607 80.335 55.0349 79.8675 54.6242 79.4738C54.2136 79.0801 53.7261 78.7679 53.1896 78.5551C52.6532 78.3423 52.0783 78.2331 51.4978 78.2336Z" fill="#E6E6E6"/>
<path d="M51.0558 61.6023L35.5894 52.2767V36.7893L51.0558 27.4637L66.5269 36.7893V52.2767L51.0558 61.6023ZM38.6808 50.7797L51.0558 58.2236L63.4354 50.7797V38.2863L51.0558 30.8424L38.6808 38.2863V50.7797Z" fill="#3C1A5E"/>
<path d="M51.4976 47.5967L36.4731 38.5752L38.221 36.2172L51.4976 44.1958L64.7788 36.2172L66.5267 38.5752L51.4976 47.5967Z" fill="#3C1A5E"/>
<path d="M52.9244 44.1779H49.8126V59.5766H52.9244V44.1779Z" fill="#3C1A5E"/>
<path d="M52.9244 67.0662H49.8126V70.1477H52.9244V67.0662Z" fill="#3C1A5E"/>
<path d="M59.1434 67.0662H56.0316V70.1477H59.1434V67.0662Z" fill="#3C1A5E"/>
<path d="M46.7056 67.0662H43.5939V70.1477H46.7056V67.0662Z" fill="#3C1A5E"/>
</svg>
