<svg width="128" height="129" viewBox="0 0 128 129" fill="none" xmlns="http://www.w3.org/2000/svg">
<path d="M98 49L65 83H98V49Z" fill="#595857"/>
<path d="M116 75H100V79H116V75Z" fill="#595857"/>
<path d="M25.8577 80.9806L15.7963 91.0421L31.8938 107.14L41.9552 97.0781L25.8577 80.9806Z" fill="#595857"/>
<path d="M15.9979 91L32 107.799L27.9995 112H23.999L10 97.2988L15.9979 91Z" fill="#FC7450"/>
<path d="M30 85.0006L44 99H48.0008L86 61.0026L70.0025 45L30 85.0006Z" fill="#E6E6E6"/>
<path d="M48.9558 101H43.3822L29 86.206L31.7868 83.3394L45.0112 96.9424H47.3212L84.2132 59L87 61.8665L48.9558 101Z" fill="#3C1A5E"/>
<path d="M86.0001 20L110 44.2789L90.001 64.5104H71.9997L50.0031 86.7685H23.9999L4.00094 107H0V94.8634L74.003 20H86.0001Z" fill="#A8A7A5"/>
<path d="M28.8929 114H23.0324L10 100.986L12.9272 98.0648L24.7494 109.864H27.1759L41.0668 96L44 98.9217L28.8929 114Z" fill="#3C1A5E"/>
<path d="M19.2345 91.6316L16.3884 94.4776L30.4712 108.56L33.3172 105.714L19.2345 91.6316Z" fill="#3C1A5E"/>
<path d="M86.8016 21.2157L48.5747 59.4427L51.4207 62.2887L89.6477 24.0618L86.8016 21.2157Z" fill="#3C1A5E"/>
<path d="M86.8053 33.2821L78.7585 41.3288L81.6046 44.1748L89.6513 36.1281L86.8053 33.2821Z" fill="#3C1A5E"/>
<path d="M92 85C96.4183 85 100 81.4183 100 77C100 72.5817 96.4183 69 92 69C87.5817 69 84 72.5817 84 77C84 81.4183 87.5817 85 92 85Z" fill="#A8A7A5"/>
<path d="M91.9827 87C90.0061 86.9966 88.0749 86.4075 86.4329 85.3071C84.791 84.2067 83.5119 82.6444 82.7574 80.8175C82.0028 78.9906 81.8065 76.9811 82.1934 75.0427C82.5803 73.1044 83.5329 71.3242 84.931 69.9269C86.329 68.5296 88.1098 67.578 90.0484 67.1923C91.987 66.8065 93.9964 67.0039 95.8228 67.7595C97.6493 68.5152 99.2109 69.7951 100.31 71.4377C101.41 73.0803 101.998 75.0119 102 76.9885C102 78.3037 101.741 79.606 101.237 80.8211C100.734 82.0361 99.9959 83.14 99.0657 84.0697C98.1354 84.9995 97.0311 85.7368 95.8157 86.2396C94.6004 86.7424 93.2979 87.0008 91.9827 87ZM91.9827 71.0011C90.7968 71.0057 89.6388 71.3617 88.6551 72.0241C87.6713 72.6866 86.906 73.6257 86.4559 74.7229C86.0057 75.8201 85.8909 77.0261 86.1259 78.1886C86.3609 79.3511 86.9351 80.4178 87.7762 81.254C88.6172 82.0901 89.6872 82.6583 90.851 82.8866C92.0147 83.1149 93.2201 82.9931 94.3147 82.5367C95.4093 82.0802 96.344 81.3095 97.0008 80.322C97.6576 79.3345 98.0069 78.1744 98.0046 76.9885C98.0023 76.1999 97.8448 75.4196 97.5409 74.6919C97.2371 73.9643 96.7929 73.3036 96.2337 72.7476C95.6745 72.1917 95.0113 71.7513 94.2819 71.4516C93.5525 71.1519 92.7713 70.9989 91.9827 71.0011Z" fill="#3C1A5E"/>
<path d="M128 1H124V129H128V1Z" fill="#3C1A5E"/>
<path d="M124 45H116V109H124V45Z" fill="#595857"/>
<path d="M116 71H98V75H116V71Z" fill="#3C1A5E"/>
<path d="M116 79H98V83H116V79Z" fill="#3C1A5E"/>
<path d="M96.2786 22.63L92.2532 26.6554L104.325 38.7275L108.351 34.7021L96.2786 22.63Z" fill="#595857"/>
<path d="M103.724 30L101 27.213L108.145 19.9019V1H112V21.5367L103.724 30Z" fill="#3C1A5E"/>
<path d="M82 87H78V91H82V87Z" fill="#3C1A5E"/>
<path d="M74 87H70V91H74V87Z" fill="#3C1A5E"/>
<path d="M80.1807 28.6685H47.9873V32.6934H80.1807V28.6685Z" fill="#3C1A5E"/>
<path d="M72.1309 36.7183H39.9375V40.7432H72.1309V36.7183Z" fill="#3C1A5E"/>
<path d="M64.0869 44.7623H31.8936V48.7872H64.0869V44.7623Z" fill="#3C1A5E"/>
</svg>
