<svg width="128" height="128" viewBox="0 0 128 128" fill="none" xmlns="http://www.w3.org/2000/svg">
<path d="M120 15H8V117H120V15Z" fill="white"/>
<path d="M117 19H11V117H117V19Z" fill="#FC7450"/>
<path d="M124 5H4V15H124V5Z" fill="#595857"/>
<path d="M124 15H120V117H124V15Z" fill="#3C1A5E"/>
<path d="M14 8H11V12H14V8Z" fill="#E6E6E6"/>
<path d="M23 8H18V12H23V8Z" fill="#E6E6E6"/>
<path d="M30 8H27V12H30V8Z" fill="#E6E6E6"/>
<path d="M117 8H37V12H117V8Z" fill="#E6E6E6"/>
<path d="M8 15H4V117H8V15Z" fill="#3C1A5E"/>
<path d="M68 88H60V97H68V88Z" fill="#A8A7A5"/>
<path d="M68 97H60V125H68V97Z" fill="white"/>
<path d="M69 88H66V125H69V88Z" fill="#3C1A5E"/>
<path d="M62 88H58V125H62V88Z" fill="#3C1A5E"/>
<path d="M64 88C76.1503 88 86 78.1503 86 66C86 53.8497 76.1503 44 64 44C51.8497 44 42 53.8497 42 66C42 78.1503 51.8497 88 64 88Z" fill="white"/>
<path d="M68 95H60V98H68V95Z" fill="#3C1A5E"/>
<path d="M63 90C49.7208 90 39 79.2792 39 66C39 52.7208 49.7208 42 63 42C76.2792 42 87 52.7208 87 66C87 79.2183 76.2792 90 63 90ZM63 45.7157C51.7919 45.7157 42.7157 54.7919 42.7157 66C42.7157 77.2081 51.7919 86.2843 63 86.2843C74.2081 86.2843 83.2843 77.2081 83.2843 66C83.2843 54.7919 74.2081 45.7157 63 45.7157Z" fill="#3C1A5E"/>
<path d="M74.7862 97L73.4621 93.4034C88.2792 87.8508 95.8454 71.3824 90.2968 56.5544C84.7483 41.7265 68.2919 34.1548 53.4748 39.7074C38.6578 45.2599 31.0916 61.7284 36.6401 76.5564C39.5405 84.3805 45.7195 90.5009 53.4748 93.4034L52.1508 97C35.316 90.7533 26.8041 72.0133 33.0462 55.1663C39.2883 38.3192 58.0145 29.801 74.8492 36.0477C91.684 42.2944 100.196 61.0343 93.9538 77.8814C90.6121 86.7151 83.6134 93.7189 74.7862 97Z" fill="#3C1A5E"/>
<path d="M62.2659 74L54 65.8618L56.4855 63.4146L62.2659 69.1057L71.5144 60L74 62.3902L62.2659 74Z" fill="#3C1A5E"/>
</svg>
