<svg width="122" height="122" viewBox="0 0 122 122" fill="none" xmlns="http://www.w3.org/2000/svg">
<path d="M61.4314 86.0196C78.8229 86.0196 92.9216 71.921 92.9216 54.5294C92.9216 37.1379 78.8229 23.0392 61.4314 23.0392C44.0398 23.0392 29.9412 37.1379 29.9412 54.5294C29.9412 71.921 44.0398 86.0196 61.4314 86.0196Z" fill="#FC7450"/>
<path d="M37.7059 67.902H32.5294C31.1 67.902 29.9412 69.1382 29.9412 70.6631V92.7487C29.9412 94.2736 31.1 95.5098 32.5294 95.5098H37.7059C39.1353 95.5098 40.2941 94.2736 40.2941 92.7487V70.6631C40.2941 69.1382 39.1353 67.902 37.7059 67.902Z" fill="#E6E6E6"/>
<path d="M90.1176 67.902H84.5098C82.9612 67.902 81.7059 69.1382 81.7059 70.6631V92.7487C81.7059 94.2736 82.9612 95.5098 84.5098 95.5098H90.1176C91.6662 95.5098 92.9216 94.2736 92.9216 92.7487V70.6631C92.9216 69.1382 91.6662 67.902 90.1176 67.902Z" fill="#E6E6E6"/>
<path d="M66.8948 97.2354H55.9679C54.4587 97.2354 53.2353 98.4714 53.2353 99.9961V101.377C53.2353 102.901 54.4587 104.137 55.9679 104.137H66.8948C68.404 104.137 69.6274 102.901 69.6274 101.377V99.9961C69.6274 98.4714 68.404 97.2354 66.8948 97.2354Z" fill="#E6E6E6"/>
<path d="M26.9216 62.7255C29.0657 62.7255 30.8039 60.7942 30.8039 58.4117C30.8039 56.0293 29.0657 54.098 26.9216 54.098C24.7774 54.098 23.0392 56.0293 23.0392 58.4117C23.0392 60.7942 24.7774 62.7255 26.9216 62.7255Z" fill="#E6E6E6"/>
<path d="M95.5098 62.7255C97.8922 62.7255 99.8235 60.7942 99.8235 58.4117C99.8235 56.0293 97.8922 54.098 95.5098 54.098C93.1274 54.098 91.1961 56.0293 91.1961 58.4117C91.1961 60.7942 93.1274 62.7255 95.5098 62.7255Z" fill="#E6E6E6"/>
<path d="M26.9371 63.5882C25.8273 63.591 24.7416 63.2899 23.8173 62.7228C22.8931 62.1557 22.1719 61.3483 21.7451 60.4026C21.3182 59.457 21.205 58.4158 21.4196 57.4107C21.6342 56.4056 22.1671 55.4819 22.9507 54.7565C23.7344 54.0311 24.7336 53.5367 25.8218 53.3358C26.91 53.1349 28.0384 53.2366 29.064 53.628C30.0896 54.0193 30.9663 54.6828 31.5832 55.5344C32.2001 56.3859 32.5294 57.3873 32.5294 58.4117C32.5274 59.7816 31.938 61.095 30.8901 62.0649C29.8423 63.0349 28.4211 63.5825 26.9371 63.5882V63.5882ZM26.9371 55.8235C26.3825 55.8235 25.8404 55.9753 25.3793 56.2597C24.9182 56.5441 24.5588 56.9483 24.3466 57.4213C24.1344 57.8942 24.0789 58.4146 24.1871 58.9167C24.2952 59.4188 24.5623 59.8799 24.9544 60.2419C25.3466 60.6039 25.8462 60.8504 26.3901 60.9502C26.934 61.0501 27.4978 60.9989 28.0101 60.803C28.5225 60.6071 28.9604 60.2753 29.2685 59.8497C29.5766 59.4241 29.741 58.9236 29.741 58.4117C29.74 57.7256 29.4443 57.0678 28.9186 56.5826C28.393 56.0974 27.6804 55.8245 26.9371 55.8235V55.8235Z" fill="#3C1A5E"/>
<path d="M62.7255 53.2353H60.1372V55.8235H62.7255V53.2353Z" fill="#3C1A5E"/>
<path d="M56.6863 53.2353H54.098V55.8235H56.6863V53.2353Z" fill="#3C1A5E"/>
<path d="M67.902 53.2353H65.3137V55.8235H67.902V53.2353Z" fill="#3C1A5E"/>
<path d="M24.2467 73.0784H21.3137V66.1021L26.1439 61.8627L28.2157 63.6827L24.2467 67.169V73.0784Z" fill="#3C1A5E"/>
<path d="M95.5098 63.5882C94.486 63.5882 93.4852 63.2846 92.6339 62.7158C91.7826 62.147 91.1191 61.3386 90.7274 60.3927C90.3356 59.4468 90.233 58.406 90.4328 57.4019C90.6325 56.3977 91.1255 55.4754 91.8495 54.7514C92.5734 54.0275 93.4958 53.5345 94.4999 53.3348C95.504 53.135 96.5449 53.2375 97.4907 53.6293C98.4366 54.0211 99.2451 54.6846 99.8139 55.5359C100.383 56.3871 100.686 57.388 100.686 58.4118C100.684 59.7841 100.138 61.0996 99.168 62.07C98.1976 63.0403 96.8821 63.5863 95.5098 63.5882ZM95.5098 55.8235C94.9979 55.8235 94.4975 55.9753 94.0718 56.2597C93.6462 56.5441 93.3145 56.9484 93.1186 57.4213C92.9227 57.8942 92.8714 58.4146 92.9713 58.9167C93.0711 59.4188 93.3177 59.88 93.6796 60.2419C94.0416 60.6039 94.5028 60.8504 95.0048 60.9503C95.5069 61.0501 96.0273 60.9989 96.5003 60.803C96.9732 60.6071 97.3774 60.2753 97.6618 59.8497C97.9462 59.4241 98.098 58.9237 98.098 58.4118C98.0971 57.7256 97.8241 57.0678 97.3389 56.5827C96.8537 56.0975 96.1959 55.8245 95.5098 55.8235V55.8235Z" fill="#3C1A5E"/>
<path d="M100.686 73.0784H98.1199V67.169L94.6471 63.6827L96.4599 61.8627L100.686 66.1021V73.0784Z" fill="#3C1A5E"/>
<path d="M26.657 50.6277L23.9019 50.3261C24.9618 41.1481 29.326 32.6827 36.1655 26.5386C43.005 20.3946 51.8429 17 61 17C70.157 17 78.995 20.3946 85.8345 26.5386C92.6739 32.6827 97.0382 41.1481 98.098 50.3261L95.3468 50.6471C94.3703 42.1455 90.3315 34.3026 83.9984 28.6098C77.6652 22.9171 69.4796 19.7716 60.9981 19.7716C52.5166 19.7716 44.3309 22.9171 37.9978 28.6098C31.6646 34.3026 27.6258 42.1455 26.6494 50.6471L26.657 50.6277Z" fill="#3C1A5E"/>
<path d="M37.8807 97.2353H32.3508C31.254 97.2333 30.2029 96.7987 29.4277 96.0267C28.6526 95.2547 28.2167 94.2084 28.2157 93.1172V71.1574C28.2167 70.0662 28.6526 69.0199 29.4277 68.2479C30.2029 67.4759 31.254 67.0413 32.3508 67.0392H37.8807C38.9781 67.0403 40.0303 67.4745 40.8063 68.2465C41.5822 69.0186 42.0186 70.0655 42.0196 71.1574V93.1172C42.0186 94.2091 41.5822 95.2559 40.8063 96.028C40.0303 96.8001 38.9781 97.2343 37.8807 97.2353V97.2353ZM32.3508 69.7847C31.9855 69.7857 31.6356 69.9308 31.3777 70.1881C31.1198 70.4454 30.975 70.794 30.975 71.1574V93.1172C30.975 93.4806 31.1198 93.8291 31.3777 94.0865C31.6356 94.3438 31.9855 94.4889 32.3508 94.4899H37.8807C38.2466 94.4899 38.5975 94.3453 38.8563 94.0878C39.115 93.8304 39.2604 93.4812 39.2604 93.1172V71.1574C39.2604 70.7933 39.115 70.4442 38.8563 70.1867C38.5975 69.9293 38.2466 69.7847 37.8807 69.7847H32.3508Z" fill="#3C1A5E"/>
<path d="M66.4222 105H55.5779C54.4996 105 53.4654 104.572 52.7026 103.81C51.9399 103.047 51.5108 102.013 51.5098 100.935V99.5786C51.5098 98.4995 51.9384 97.4646 52.7013 96.7015C53.4642 95.9384 54.4989 95.5098 55.5779 95.5098H66.4222C67.5008 95.5108 68.5349 95.9398 69.2976 96.7026C70.0603 97.4654 70.4892 98.4998 70.4902 99.5786V100.935C70.4882 102.013 70.0589 103.046 69.2963 103.808C68.5337 104.57 67.5001 104.999 66.4222 105V105ZM55.5779 98.2374C55.2182 98.2374 54.8733 98.3802 54.619 98.6346C54.3647 98.8889 54.2218 99.2339 54.2218 99.5936V100.95C54.2228 101.309 54.3661 101.653 54.6203 101.907C54.8745 102.16 55.2189 102.302 55.5779 102.302H66.4222C66.7812 102.302 67.1255 102.16 67.3797 101.907C67.6339 101.653 67.7772 101.309 67.7782 100.95V99.5936C67.7782 99.4155 67.7431 99.2392 67.675 99.0746C67.6068 98.9101 67.5069 98.7605 67.381 98.6346C67.2551 98.5087 67.1056 98.4088 66.9411 98.3406C66.7766 98.2724 66.6003 98.2374 66.4222 98.2374H55.5779Z" fill="#3C1A5E"/>
<path d="M88.4331 105H67.0392V102.311H88.4331C89.142 102.311 89.822 102.028 90.3237 101.525C90.8254 101.021 91.1077 100.338 91.1087 99.6256V92.9216H93.7843V99.6256C93.7824 101.051 93.2178 102.417 92.2146 103.425C91.2113 104.433 89.8514 104.999 88.4331 105V105Z" fill="#3C1A5E"/>
<path d="M28.2157 92.9196C26.7527 92.9473 25.299 92.6778 23.9395 92.1267C22.58 91.5756 21.342 90.754 20.2978 89.71C19.2535 88.6659 18.4241 87.4204 17.8579 86.0461C17.2916 84.6718 17 83.1963 17 81.7059C17 80.2154 17.2916 78.74 17.8579 77.3656C18.4241 75.9913 19.2535 74.7458 20.2978 73.7017C21.342 72.6577 22.58 71.8361 23.9395 71.285C25.299 70.7339 26.7527 70.4644 28.2157 70.4921V92.9196Z" fill="#595857"/>
<path d="M89.902 97.2353H84.7255C83.6961 97.2343 82.7092 96.8001 81.9813 96.028C81.2534 95.2559 80.8441 94.2091 80.8431 93.1172V71.1574C80.8441 70.0655 81.2534 69.0186 81.9813 68.2465C82.7092 67.4745 83.6961 67.0403 84.7255 67.0392H89.902C90.9313 67.0403 91.9183 67.4745 92.6462 68.2465C93.374 69.0186 93.7834 70.0655 93.7843 71.1574V93.1172C93.7834 94.2091 93.374 95.2559 92.6462 96.028C91.9183 96.8001 90.9313 97.2343 89.902 97.2353V97.2353ZM84.7255 69.7847C84.5555 69.7847 84.3873 69.8202 84.2303 69.8892C84.0732 69.9582 83.9306 70.0593 83.8104 70.1867C83.6902 70.3142 83.5949 70.4655 83.5299 70.6321C83.4648 70.7986 83.4314 70.9771 83.4314 71.1574V93.1172C83.4314 93.2974 83.4648 93.4759 83.5299 93.6425C83.5949 93.809 83.6902 93.9604 83.8104 94.0878C83.9306 94.2153 84.0732 94.3164 84.2303 94.3854C84.3873 94.4544 84.5555 94.4899 84.7255 94.4899H89.902C90.0719 94.4899 90.2402 94.4544 90.3972 94.3854C90.5542 94.3164 90.6969 94.2153 90.817 94.0878C90.9372 93.9604 91.0325 93.809 91.0976 93.6425C91.1626 93.4759 91.1961 93.2974 91.1961 93.1172V71.1574C91.1961 70.9771 91.1626 70.7986 91.0976 70.6321C91.0325 70.4655 90.9372 70.3142 90.817 70.1867C90.6969 70.0593 90.5542 69.9582 90.3972 69.8892C90.2402 69.8202 90.0719 69.7847 89.902 69.7847H84.7255Z" fill="#3C1A5E"/>
<path d="M93.7843 92.9215C96.7779 92.8669 99.6301 91.6612 101.728 89.5638C103.825 87.4664 105 84.6448 105 81.7059C105 78.7669 103.825 75.9453 101.728 73.8479C99.6301 71.7505 96.7779 70.5449 93.7843 70.4902V92.9215Z" fill="#595857"/>
</svg>
