<svg width="216" height="216" viewBox="0 0 216 216" fill="none" xmlns="http://www.w3.org/2000/svg">
<mask id="mask0" mask-type="alpha" maskUnits="userSpaceOnUse" x="16" y="16" width="183" height="183">
<circle cx="107.5" cy="107.5" r="91.5" fill="#C4C4C4"/>
</mask>
<g mask="url(#mask0)">
<path d="M111.029 205.212C164.063 205.212 207.055 162.22 207.055 109.187C207.055 56.153 164.063 13.1609 111.029 13.1609C57.9956 13.1609 15.0034 56.153 15.0034 109.187C15.0034 162.22 57.9956 205.212 111.029 205.212Z" fill="#FF7552"/>
<path d="M159.038 88.1829C159.038 49.1724 132.043 10.1619 84.0304 13.1627C47.6417 15.437 27.0151 48.7238 27.0151 85.1821C27.0151 118.191 39.0184 127.193 39.0184 151.2C39.0184 157.201 36.0176 163.203 27.0151 187.209L102.035 211.216L114.039 175.206H144.843C146.287 175.205 147.683 174.684 148.774 173.737C149.865 172.79 150.577 171.481 150.781 170.051L156.05 133.195H171.054V130.194L159.038 88.1829Z" fill="white"/>
<path d="M138.035 82.1804C138.035 43.1699 111.028 13.1619 72.0304 13.1619C63.3597 13.1602 54.7737 14.8666 46.7626 18.1836C38.7515 21.5005 31.4723 26.3631 25.3406 32.4936C19.209 38.624 14.345 45.9023 11.0265 53.9128C7.70802 61.9233 6 70.509 6 79.1796C6 112.188 18.0032 121.191 18.0032 145.197C18.0032 151.199 15.0024 157.201 6 181.207L81.0201 205.213L93.0234 169.204H123.834C125.278 169.203 126.674 168.681 127.765 167.734C128.856 166.787 129.568 165.479 129.772 164.049L135.041 127.192H150.045V124.192L138.035 82.1804Z" fill="#B4F0E0"/>
<path d="M183.051 67.1774H72.021V73.179H183.051V67.1774Z" fill="#3C1A5E"/>
<path d="M173.163 84.3037L168.917 80.0584L178.798 70.1778L168.917 60.2973L173.163 56.0519L187.282 70.1778L173.163 84.3037Z" fill="#3C1A5E"/>
<path d="M72.0291 115.19C69.6551 115.19 67.3344 114.486 65.3605 113.167C63.3866 111.848 61.8481 109.973 60.9396 107.78C60.0311 105.587 59.7934 103.173 60.2565 100.845C60.7197 98.5163 61.8629 96.3776 63.5415 94.6989C65.2202 93.0202 67.359 91.877 69.6874 91.4139C72.0158 90.9507 74.4292 91.1884 76.6226 92.0969C78.8159 93.0054 80.6905 94.5439 82.0094 96.5178C83.3284 98.4917 84.0323 100.812 84.0323 103.186C84.0323 104.763 83.7219 106.324 83.1187 107.78C82.5154 109.236 81.6313 110.559 80.5167 111.674C79.4021 112.789 78.0788 113.673 76.6226 114.276C75.1663 114.879 73.6054 115.19 72.0291 115.19V115.19ZM72.0291 97.1848C70.8421 97.1848 69.6818 97.5368 68.6948 98.1963C67.7078 98.8558 66.9386 99.7931 66.4843 100.89C66.0301 101.986 65.9112 103.193 66.1428 104.357C66.3744 105.522 66.946 106.591 67.7853 107.43C68.6247 108.27 69.6941 108.841 70.8583 109.073C72.0225 109.304 73.2292 109.185 74.3258 108.731C75.4225 108.277 76.3598 107.508 77.0193 106.521C77.6787 105.534 78.0307 104.373 78.0307 103.186C78.0291 101.595 77.3962 100.07 76.271 98.9445C75.1459 97.8194 73.6203 97.1865 72.0291 97.1848V97.1848Z" fill="#3C1A5E"/>
<path d="M72.0289 127.193C67.2809 127.193 62.6395 125.785 58.6916 123.147C54.7438 120.509 51.6668 116.76 49.8499 112.373C48.0329 107.986 47.5575 103.16 48.4837 98.5028C49.41 93.846 51.6964 89.5685 55.0538 86.2111C58.4112 82.8538 62.6887 80.5674 67.3455 79.6411C72.0023 78.7148 76.8292 79.1902 81.2158 81.0072C85.6024 82.8242 89.3517 85.9011 91.9895 89.849C94.6274 93.7968 96.0354 98.4382 96.0354 103.186C96.0354 106.339 95.4144 109.461 94.208 112.373C93.0015 115.286 91.2332 117.932 89.004 120.161C86.7748 122.391 84.1284 124.159 81.2158 125.365C78.3032 126.572 75.1815 127.193 72.0289 127.193V127.193ZM72.0289 85.1814C68.4679 85.1814 64.9868 86.2374 62.026 88.2158C59.0651 90.1942 56.7574 93.0061 55.3946 96.2961C54.0319 99.586 53.6753 103.206 54.37 106.699C55.0648 110.191 56.7796 113.4 59.2976 115.918C61.8156 118.436 65.0237 120.15 68.5163 120.845C72.0089 121.54 75.6291 121.183 78.9191 119.821C82.209 118.458 85.021 116.15 86.9994 113.189C88.9778 110.228 90.0337 106.747 90.0337 103.186C90.0287 98.4126 88.1302 93.8359 84.7547 90.4604C81.3792 87.085 76.8025 85.1864 72.0289 85.1814V85.1814Z" fill="#3C1A5E"/>
<path d="M72.0326 139.197C62.4823 139.197 53.3231 135.403 46.5699 128.65C39.8168 121.897 36.0229 112.737 36.0229 103.187C36.0229 93.6367 39.8168 84.4775 46.5699 77.7244C53.3231 70.9712 62.4823 67.1774 72.0326 67.1774V73.179C66.0976 73.179 60.2958 74.9389 55.361 78.2362C50.4262 81.5336 46.58 86.2202 44.3088 91.7034C42.0375 97.1867 41.4433 103.22 42.6012 109.041C43.759 114.862 46.617 120.209 50.8137 124.406C55.0104 128.603 60.3573 131.461 66.1783 132.618C71.9993 133.776 78.0329 133.182 83.5162 130.911C88.9995 128.64 93.6861 124.793 96.9834 119.859C100.281 114.924 102.041 109.122 102.041 103.187H108.042C108.032 112.734 104.235 121.888 97.4842 128.639C90.7333 135.39 81.5799 139.187 72.0326 139.197Z" fill="#3C1A5E"/>
<path d="M108.029 55.1739H102.027V61.1755H108.029V55.1739Z" fill="#3C1A5E"/>
<path d="M96.0255 55.1739H90.0239V61.1755H96.0255V55.1739Z" fill="#3C1A5E"/>
<path d="M84.0265 55.1739H78.0249V61.1755H84.0265V55.1739Z" fill="#3C1A5E"/>
</g>
</svg>
