<svg width="216" height="216" viewBox="0 0 216 216" fill="none" xmlns="http://www.w3.org/2000/svg">
<path d="M187.058 86.5307C187.058 54.0108 164.514 29 132.029 29C101.624 29 77 53.6643 77 83.9892C77 111.484 87 118.993 87 138.978C87 143.946 84.5145 148.971 77 168.957L139.486 189L149.486 159.022H175.15C177.636 159.022 179.775 157.173 180.121 154.747L184.514 124.018H197V121.534L187.058 86.5307Z" fill="#FC7450"/>
<path d="M141 76H136V81H141V76Z" fill="#3C1A5E"/>
<path d="M151 76H146V81H151V76Z" fill="#3C1A5E"/>
<path d="M151 66H146V71H151V66Z" fill="#3C1A5E"/>
<path d="M151 86H146V91H151V86Z" fill="#3C1A5E"/>
<path d="M162 76H156V81H162V76Z" fill="#3C1A5E"/>
<path d="M141 66H136V71H141V66Z" fill="#3C1A5E"/>
<path d="M141 86H136V91H141V86Z" fill="#3C1A5E"/>
<path d="M141 96H136V101H141V96Z" fill="#3C1A5E"/>
<path d="M141 57H136V62H141V57Z" fill="#3C1A5E"/>
<path d="M104.388 61.7183H25.9155V110.757H104.388V61.7183Z" fill="#E6E6E6"/>
<path d="M99.4721 66.6337H30.83V105.841H99.4721V66.6337Z" fill="white"/>
<path d="M109.304 46.972H21V61.6604H109.304V46.972Z" fill="#595857"/>
<path d="M35.7454 51.8875H30.83V56.8028H35.7454V51.8875Z" fill="#E8E6E4"/>
<path d="M45.5184 51.8875H40.603V56.8028H45.5184V51.8875Z" fill="#E8E6E4"/>
<path d="M55.3494 51.8875H50.434V56.8028H55.3494V51.8875Z" fill="#E8E6E4"/>
<path d="M109.246 115.672H21V61.7183H25.9154V110.757H104.388V61.7183H109.246V115.672Z" fill="#3C1A5E"/>
<path d="M42.3382 95.3165L38.8685 91.8468L44.4779 86.2375L38.8685 80.6281L42.3382 77.1584L51.4172 86.2375L42.3382 95.3165Z" fill="#3C1A5E"/>
<path d="M74.9542 91.1528H55.3504V96.0682H74.9542V91.1528Z" fill="#3C1A5E"/>
</svg>
