<svg width="216" height="217" viewBox="0 0 216 217" fill="none" xmlns="http://www.w3.org/2000/svg">
<path d="M107.854 190.302C153.185 190.302 189.934 153.553 189.934 108.222C189.934 62.8901 153.185 26.1416 107.854 26.1416C62.5224 26.1416 25.774 62.8901 25.774 108.222C25.774 153.553 62.5224 190.302 107.854 190.302Z" fill="#FF7552"/>
<path d="M148.894 90.2665C148.894 56.9215 125.82 23.5765 84.78 26.1415C53.676 28.0855 36.045 56.5381 36.045 87.7015C36.045 115.917 46.305 123.612 46.305 144.132C46.305 149.262 43.74 154.392 36.045 174.912L100.17 195.432L110.43 164.652H136.76C137.995 164.651 139.188 164.205 140.121 163.395C141.053 162.586 141.662 161.468 141.836 160.245L146.34 128.742H159.165V126.177L148.894 90.2665Z" fill="white"/>
<path d="M130.939 85.1359C130.939 51.7909 107.854 26.1409 74.5198 26.1409C67.1084 26.1395 59.7693 27.598 52.9216 30.4332C46.074 33.2685 39.8519 37.4249 34.6108 42.665C29.3696 47.9052 25.212 54.1264 22.3755 60.9735C19.5389 67.8207 18.079 75.1595 18.079 82.5709C18.079 110.786 28.339 118.481 28.339 139.001C28.339 144.131 25.774 149.261 18.079 169.781L82.204 190.301L92.464 159.521H118.8C120.035 159.52 121.228 159.074 122.16 158.265C123.092 157.455 123.702 156.337 123.876 155.114L128.379 123.611H141.204V121.046L130.939 85.1359Z" fill="#B4F0E0"/>
<path d="M169.414 72.3115H74.509V77.4415H169.414V72.3115Z" fill="#3C1A5E"/>
<path d="M160.969 86.9509L157.34 83.3221L165.785 74.8765L157.34 66.4309L160.969 62.8021L173.038 74.8765L160.969 86.9509Z" fill="#3C1A5E"/>
<path d="M74.52 113.352C72.4908 113.352 70.5071 112.75 68.8199 111.622C67.1326 110.495 65.8176 108.893 65.041 107.018C64.2645 105.143 64.0613 103.08 64.4572 101.09C64.853 99.0997 65.8302 97.2715 67.2651 95.8366C68.7 94.4017 70.5281 93.4246 72.5184 93.0287C74.5086 92.6328 76.5716 92.836 78.4464 93.6125C80.3211 94.3891 81.9235 95.7041 83.0509 97.3914C84.1783 99.0786 84.78 101.062 84.78 103.092C84.78 104.439 84.5146 105.773 83.999 107.018C83.4834 108.263 82.7277 109.394 81.7749 110.346C80.8222 111.299 79.6912 112.055 78.4464 112.571C77.2016 113.086 75.8674 113.352 74.52 113.352ZM74.52 97.9615C73.5054 97.9615 72.5136 98.2624 71.6699 98.8261C70.8263 99.3898 70.1688 100.191 69.7805 101.128C69.3922 102.066 69.2906 103.097 69.4886 104.092C69.6865 105.087 70.1751 106.002 70.8926 106.719C71.61 107.436 72.5241 107.925 73.5192 108.123C74.5143 108.321 75.5458 108.219 76.4832 107.831C77.4206 107.443 78.2218 106.785 78.7855 105.942C79.3492 105.098 79.65 104.106 79.65 103.092C79.6486 101.731 79.1077 100.427 78.1459 99.4657C77.1841 98.5039 75.8801 97.963 74.52 97.9615Z" fill="#3C1A5E"/>
<path d="M74.52 123.612C70.4615 123.612 66.4942 122.408 63.1197 120.153C59.7452 117.899 57.1151 114.694 55.562 110.944C54.0089 107.195 53.6025 103.069 54.3943 99.0883C55.186 95.1078 57.1404 91.4515 60.0101 88.5817C62.8799 85.7119 66.5362 83.7576 70.5167 82.9658C74.4972 82.1741 78.6231 82.5804 82.3726 84.1335C86.1222 85.6866 89.327 88.3167 91.5817 91.6912C93.8365 95.0657 95.04 99.0331 95.04 103.092C95.04 105.786 94.5092 108.455 93.478 110.944C92.4468 113.434 90.9353 115.696 89.0298 117.601C87.1243 119.507 84.8622 121.018 82.3726 122.05C79.883 123.081 77.2147 123.612 74.52 123.612ZM74.52 87.7015C71.4761 87.7015 68.5006 88.6041 65.9698 90.2952C63.4389 91.9863 61.4663 94.3899 60.3015 97.202C59.1366 100.014 58.8319 103.109 59.4257 106.094C60.0195 109.079 61.4853 111.822 63.6376 113.974C65.7899 116.126 68.5322 117.592 71.5175 118.186C74.5029 118.78 77.5973 118.475 80.4095 117.31C83.2216 116.145 85.6252 114.173 87.3163 111.642C89.0074 109.111 89.91 106.135 89.91 103.092C89.9057 99.0112 88.2829 95.0992 85.3976 92.2139C82.5124 89.3286 78.6003 87.7058 74.52 87.7015Z" fill="#3C1A5E"/>
<path d="M74.52 133.872C66.3566 133.872 58.5276 130.629 52.7552 124.856C46.9828 119.084 43.74 111.255 43.74 103.092C43.74 94.9282 46.9828 87.0991 52.7552 81.3268C58.5276 75.5544 66.3566 72.3115 74.52 72.3115V77.4415C69.4469 77.4415 64.4877 78.9459 60.2696 81.7643C56.0515 84.5828 52.7638 88.5888 50.8225 93.2757C48.8811 97.9626 48.3731 103.12 49.3628 108.096C50.3525 113.071 52.7955 117.642 56.3827 121.229C59.9699 124.816 64.5403 127.259 69.5159 128.249C74.4915 129.238 79.6489 128.73 84.3358 126.789C89.0227 124.848 93.0287 121.56 95.8472 117.342C98.6656 113.124 100.17 108.165 100.17 103.092H105.3C105.291 111.252 102.046 119.076 96.2752 124.847C90.5047 130.617 82.6807 133.863 74.52 133.872Z" fill="#3C1A5E"/>
<path d="M105.289 62.0515H100.159V67.1815H105.289V62.0515Z" fill="#3C1A5E"/>
<path d="M95.029 62.0515H89.899V67.1815H95.029V62.0515Z" fill="#3C1A5E"/>
<path d="M84.7692 62.0515H79.6392V67.1815H84.7692V62.0515Z" fill="#3C1A5E"/>
</svg>
