<svg width="122" height="122" viewBox="0 0 122 122" fill="none" xmlns="http://www.w3.org/2000/svg">
<path d="M27.6646 85.1434C19.3792 93.01 18 103.503 18 103.503C18 103.503 29.0472 102.193 37.3258 94.3232L27.6646 85.1434Z" fill="#FC7450"/>
<g opacity="0.4">
<path opacity="0.4" d="M46.4009 88.9359L41.0451 91.6155L30.3268 80.9005L33.0064 75.5414L46.4009 88.9359Z" fill="#3C1A5E"/>
</g>
<g opacity="0.7">
<path opacity="0.7" d="M55.7777 66.168H18.2737V54.1117L70.5136 31.3403L90.6054 51.4321L67.834 103.672H55.7777V66.168Z" fill="#3C1A5E"/>
</g>
<path d="M47.7181 89.9749L31.5281 74.0036C31.5281 74.0036 65.2559 19.4355 103.034 19.4355C103.034 56.7028 47.7181 89.9749 47.7181 89.9749Z" fill="#E6E6E6"/>
<path d="M100.336 32.9636L100.992 32.3071C102.315 28.1434 103.003 23.8042 103.034 19.4355C98.665 19.4666 94.3259 20.1549 90.162 21.4774L89.5056 22.1339C89.5065 25.0065 90.6479 27.761 92.6789 29.7919C94.7099 31.8228 97.4641 32.9636 100.336 32.9636V32.9636Z" fill="white"/>
<path d="M47.2507 91.9075L29.5955 74.2523L30.1472 73.348C31.538 71.0627 64.6349 17.503 102.655 17.503H104V18.848C104 56.855 50.4337 89.9487 48.1518 91.3459L47.2507 91.9075ZM33.0103 73.8572L47.6425 88.4926C54.6223 84.0038 100.06 53.5805 101.284 20.2094C67.9094 21.4336 37.4862 66.8709 33.0103 73.8474V73.8572Z" fill="#3C1A5E"/>
<path d="M40.7462 92.8738L28.6292 80.7535L31.7472 74.5142L34.1517 75.7165L31.8971 80.2257L41.2773 89.6059L45.7865 87.3513L46.9888 89.7525L40.7462 92.8738Z" fill="#3C1A5E"/>
<path d="M80.3258 47.458C83.261 47.458 85.6404 45.0786 85.6404 42.1434C85.6404 39.2082 83.261 36.8288 80.3258 36.8288C77.3907 36.8288 75.0112 39.2082 75.0112 42.1434C75.0112 45.0786 77.3907 47.458 80.3258 47.458Z" fill="white"/>
<path d="M67.764 59.0535C70.6992 59.0535 73.0786 56.6741 73.0786 53.7389C73.0786 50.8037 70.6992 48.4243 67.764 48.4243C64.8289 48.4243 62.4494 50.8037 62.4494 53.7389C62.4494 56.6741 64.8289 59.0535 67.764 59.0535Z" fill="white"/>
<path d="M56.1685 71.6153C59.1037 71.6153 61.4832 69.2359 61.4832 66.3007C61.4832 63.3655 59.1037 60.9861 56.1685 60.9861C53.2334 60.9861 50.8539 63.3655 50.8539 66.3007C50.8539 69.2359 53.2334 71.6153 56.1685 71.6153Z" fill="white"/>
<path d="M79.8427 48.4243C78.5049 48.4243 77.1971 48.0276 76.0848 47.2844C74.9724 46.5411 74.1055 45.4847 73.5935 44.2487C73.0816 43.0128 72.9476 41.6528 73.2086 40.3407C73.4696 39.0286 74.1138 37.8233 75.0598 36.8774C76.0058 35.9314 77.211 35.2872 78.5231 35.0262C79.8352 34.7652 81.1952 34.8991 82.4312 35.4111C83.6671 35.923 84.7235 36.79 85.4668 37.9024C86.21 39.0147 86.6067 40.3225 86.6067 41.6603C86.605 43.4537 85.8918 45.1731 84.6237 46.4412C83.3555 47.7094 81.6361 48.4226 79.8427 48.4243V48.4243ZM79.8427 37.5992C79.0401 37.5992 78.2556 37.8372 77.5883 38.2831C76.921 38.7289 76.4009 39.3627 76.0938 40.1041C75.7867 40.8456 75.7063 41.6615 75.8629 42.4486C76.0195 43.2357 76.4059 43.9588 76.9734 44.5263C77.5409 45.0937 78.2639 45.4802 79.0511 45.6368C79.8382 45.7933 80.6541 45.713 81.3955 45.4059C82.137 45.0987 82.7707 44.5786 83.2166 43.9114C83.6625 43.2441 83.9005 42.4595 83.9005 41.657C83.8979 40.5819 83.4694 39.5516 82.7089 38.7917C81.9484 38.0318 80.9178 37.6042 79.8427 37.6025V37.5992Z" fill="#3C1A5E"/>
<path d="M68.2472 60.9861C66.9094 60.9861 65.6016 60.5894 64.4893 59.8461C63.377 59.1029 62.51 58.0465 61.998 56.8105C61.4861 55.5746 61.3521 54.2146 61.6131 52.9025C61.8741 51.5904 62.5183 50.3851 63.4643 49.4392C64.4103 48.4932 65.6155 47.849 66.9276 47.588C68.2397 47.327 69.5997 47.4609 70.8357 47.9729C72.0717 48.4848 73.1281 49.3518 73.8713 50.4642C74.6145 51.5765 75.0112 52.8843 75.0112 54.2221C75.0095 56.0155 74.2963 57.7349 73.0282 59.003C71.7601 60.2712 70.0406 60.9844 68.2472 60.9861V60.9861ZM68.2472 50.161C67.4449 50.1597 66.6603 50.3963 65.9924 50.8408C65.3245 51.2853 64.8034 51.9178 64.4949 52.6584C64.1864 53.3989 64.1043 54.2144 64.2591 55.0016C64.4139 55.7888 64.7985 56.5124 65.3644 57.0811C65.9304 57.6497 66.6521 58.0379 67.4386 58.1965C68.225 58.3551 69.0408 58.277 69.7829 57.972C70.525 57.6671 71.16 57.1491 71.6077 56.4834C72.0555 55.8177 72.2958 55.0342 72.2984 54.2319C72.3002 53.1551 71.8745 52.1216 71.115 51.3584C70.3554 50.5951 69.324 50.1645 68.2472 50.161V50.161Z" fill="#3C1A5E"/>
<path d="M55.6887 72.5816C54.3506 72.5823 53.0424 72.186 51.9295 71.443C50.8167 70.7 49.9492 69.6437 49.4369 68.4076C48.9245 67.1715 48.7903 65.8112 49.0512 64.4988C49.3121 63.1864 49.9563 61.9808 50.9025 61.0347C51.8487 60.0885 53.0542 59.4442 54.3666 59.1833C55.679 58.9225 57.0393 59.0567 58.2754 59.569C59.5115 60.0814 60.5679 60.9489 61.3109 62.0617C62.0539 63.1746 62.4501 64.4828 62.4494 65.8209C62.4468 67.6131 61.7337 69.3312 60.4664 70.5986C59.1991 71.8659 57.4809 72.579 55.6887 72.5816V72.5816ZM55.6887 61.7618C54.8857 61.7611 54.1006 61.9986 53.4327 62.4443C52.7647 62.8899 52.244 63.5236 51.9362 64.2652C51.6285 65.0069 51.5477 65.8231 51.7039 66.6107C51.8602 67.3983 52.2465 68.1219 52.814 68.6899C53.3816 69.2579 54.1048 69.6448 54.8923 69.8017C55.6798 69.9586 56.4961 69.8784 57.238 69.5713C57.9799 69.2641 58.614 68.7439 59.0602 68.0763C59.5063 67.4087 59.7445 66.6238 59.7445 65.8209C59.7436 64.7452 59.3161 63.7137 58.5558 62.9528C57.7955 62.1918 56.7644 61.7635 55.6887 61.7618V61.7618Z" fill="#3C1A5E"/>
<path d="M100.135 33.9299C96.8043 33.9266 93.6113 32.7039 91.2562 30.53C88.9012 28.3562 87.5766 25.4087 87.573 22.3344H90.3649C90.3676 24.7255 91.3978 27.0179 93.2294 28.7086C95.0611 30.3994 97.5445 31.3503 100.135 31.3528V33.9299Z" fill="#3C1A5E"/>
</svg>
