<svg width="232" height="232" viewBox="0 0 232 232" fill="none" xmlns="http://www.w3.org/2000/svg">
<path d="M174 80.6957H29V185.348H174V80.6957Z" fill="white"/>
<path d="M167.696 87H34.0435V180.304H167.696V87Z" fill="#B4F0E0"/>
<path d="M180.305 63.0435H22.6958V80.6957H180.305V63.0435Z" fill="#595857"/>
<path d="M40.3478 69.3478H34.0435V74.3913H40.3478V69.3478Z" fill="#E8E6E4"/>
<path d="M51.6955 69.3478H45.3911V74.3913H51.6955V69.3478Z" fill="#E8E6E4"/>
<path d="M63.0435 69.3478H58V74.3913H63.0435V69.3478Z" fill="#E8E6E4"/>
<path d="M180.305 191.652H22.6958V80.6957H28.5332V185.812H174.467V80.6957H180.305V191.652Z" fill="#3C1A5E"/>
<path d="M185.348 127.348H69.3477V203H185.348V127.348Z" fill="white"/>
<path d="M180.305 133.652H75.6523V196.696H180.305V133.652Z" fill="#E6E6E6"/>
<path d="M191.652 109.696H63.0435V127.348H191.652V109.696Z" fill="#595857"/>
<path d="M80.6958 116H75.6523V121.043H80.6958V116Z" fill="#E8E6E4"/>
<path d="M92.0435 116H87V121.043H92.0435V116Z" fill="#E8E6E4"/>
<path d="M104.652 116H98.3477V121.043H104.652V116Z" fill="#E8E6E4"/>
<path d="M191.652 209.304H63.0435V127.348H68.8893V203.45H185.806V127.348H191.652V209.304Z" fill="#3C1A5E"/>
<path d="M92.0436 138.696H80.6958V145H92.0436V138.696Z" fill="#FC7450"/>
<path d="M92.0436 150.043H80.6958V156.348H92.0436V150.043Z" fill="#FC7450"/>
<path d="M92.0436 162.652H80.6958V167.696H92.0436V162.652Z" fill="#FC7450"/>
<path d="M92.0436 174H80.6958V180.304H92.0436V174Z" fill="#FC7450"/>
<path d="M92.0436 185.348H80.6958V191.652H92.0436V185.348Z" fill="#FC7450"/>
<path d="M122.304 150.043H98.3477V156.348H122.304V150.043Z" fill="#3C1A5E"/>
<path d="M151.304 150.043H127.348V156.348H151.304V150.043Z" fill="#3C1A5E"/>
<path d="M133.652 138.696H98.3477V145H133.652V138.696Z" fill="#3C1A5E"/>
<path d="M156.348 162.652H98.3477V167.696H156.348V162.652Z" fill="#3C1A5E"/>
<path d="M145 174H98.3477V180.304H145V174Z" fill="#3C1A5E"/>
<path d="M138.695 185.348H98.3477V191.652H138.695V185.348Z" fill="#3C1A5E"/>
<path d="M167.695 174H151.304V180.304H167.695V174Z" fill="#3C1A5E"/>
<path d="M203 40.3478H109.696V98.3478H203V40.3478Z" fill="white"/>
<path d="M197.957 45.3913H116V92.0434H197.957V45.3913Z" fill="#A8A7A5"/>
<path d="M209.305 22.6957H104.652V40.3479H209.305V22.6957Z" fill="#595857"/>
<path d="M122.304 27.7392H116V34.0435H122.304V27.7392Z" fill="#E8E6E4"/>
<path d="M133.652 27.7392H127.348V34.0435H133.652V27.7392Z" fill="#E8E6E4"/>
<path d="M145 27.7392H138.696V34.0435H145V27.7392Z" fill="#E8E6E4"/>
<path d="M209.305 103.391H104.652V40.3478H110.466V97.66H203.491V40.3478H209.305V103.391Z" fill="#3C1A5E"/>
<path d="M129.91 79.4348L126.087 75.3528L132.294 68.7174L126.087 62.082L129.91 58L139.956 68.7174L129.91 79.4348Z" fill="#3C1A5E"/>
<path d="M167.696 74.3913H145V80.6956H167.696V74.3913Z" fill="#3C1A5E"/>
</svg>
