<svg width="128" height="128" viewBox="0 0 128 128" fill="none" xmlns="http://www.w3.org/2000/svg">
<path d="M64.0774 126.155C98.3618 126.155 126.155 98.3618 126.155 64.0774C126.155 29.793 98.3618 2 64.0774 2C29.793 2 2 29.793 2 64.0774C2 98.3618 29.793 126.155 64.0774 126.155Z" fill="#FC7450"/>
<path d="M64.0775 122.274C96.2186 122.274 122.274 96.2185 122.274 64.0774C122.274 31.9363 96.2186 5.8808 64.0775 5.8808C31.9364 5.8808 5.88086 31.9363 5.88086 64.0774C5.88086 96.2185 31.9364 122.274 64.0775 122.274Z" fill="white"/>
<path d="M71.8337 93.1783H56.3157V122.279H71.8337V93.1783Z" fill="#E6E6E6"/>
<path d="M71.8389 25.2797L69.8985 17.5181H58.2561L56.3157 25.2797H71.8389Z" fill="#E6E6E6"/>
<path d="M102.875 71.839L110.637 69.8986V58.2562L102.875 56.3158" fill="#E6E6E6"/>
<path d="M25.2797 56.3158L17.5181 58.2562V69.8986L25.2797 71.839" fill="#E6E6E6"/>
<path d="M64.0775 87.3571C76.9345 87.3571 87.3572 76.9344 87.3572 64.0774C87.3572 51.2204 76.9345 40.7978 64.0775 40.7978C51.2205 40.7978 40.7979 51.2204 40.7979 64.0774C40.7979 76.9344 51.2205 87.3571 64.0775 87.3571Z" fill="#B4F0E0"/>
<path d="M69.9551 25.752L68.3843 19.4585H59.7705L58.1997 25.752L54.437 24.8074L56.7419 15.5777H71.4129L73.7178 24.8074L69.9551 25.752Z" fill="#3C1A5E"/>
<path d="M103.347 73.7178L102.403 69.9551L108.696 68.3843V59.7706L102.403 58.1998L103.347 54.437L112.577 56.7419V71.413L103.347 73.7178Z" fill="#3C1A5E"/>
<path d="M24.8074 73.7178L15.5776 71.413V56.7419L24.8074 54.437L25.7519 58.1998L19.4584 59.7706V68.3843L25.7519 69.9551L24.8074 73.7178Z" fill="#3C1A5E"/>
<path d="M85.4165 31.1009L93.1781 27.2201L100.935 34.9765L97.0538 42.7382L85.4165 31.1009Z" fill="#E6E6E6"/>
<path d="M98.7889 43.6057L95.3188 41.8706L98.5733 35.3616L92.7932 29.5814L86.2841 32.836L84.5491 29.3658L93.5581 24.8588L103.296 34.5967L98.7889 43.6057Z" fill="#3C1A5E"/>
<path d="M42.738 31.1009L34.9764 27.2201L27.22 34.9765L31.1008 42.7382L42.738 31.1009Z" fill="#E6E6E6"/>
<path d="M29.3606 43.6057L24.8586 34.5967L34.5966 24.8588L43.6056 29.3658L41.8705 32.836L35.3614 29.5814L29.5762 35.3616L32.8358 41.8706L29.3606 43.6057Z" fill="#3C1A5E"/>
<path d="M42.738 97.0591L34.9764 100.935L27.22 93.1783L31.1008 85.4167L42.738 97.0591Z" fill="#E6E6E6"/>
<path d="M34.5966 103.296L24.8586 93.5582L29.3606 84.5492L32.8358 86.2842L29.5762 92.7933L35.3614 98.5734L41.8705 95.3189L43.6056 98.7942L34.5966 103.296Z" fill="#3C1A5E"/>
<path d="M85.4165 97.0591L93.1781 100.935L100.935 93.1783L97.0538 85.4167L85.4165 97.0591Z" fill="#E6E6E6"/>
<path d="M93.5581 103.296L84.5491 98.7942L86.2841 95.3189L92.7932 98.5734L98.5733 92.7933L95.3188 86.2842L98.7889 84.5492L103.296 93.5582L93.5581 103.296Z" fill="#3C1A5E"/>
<path d="M47.353 101.233C38.8571 97.4053 31.9299 90.7812 27.7268 82.4648C23.5236 74.1484 22.2985 64.6425 24.2558 55.5322C26.2131 46.4219 31.2344 38.2579 38.4824 32.4016C45.7304 26.5454 54.7669 23.351 64.0851 23.351C73.4033 23.351 82.4399 26.5454 89.6879 32.4016C96.9359 38.2579 101.957 46.4219 103.914 55.5322C105.872 64.6425 104.647 74.1484 100.443 82.4648C96.2403 90.7812 89.3132 97.4053 80.8172 101.233L79.2208 97.6956C86.9064 94.2321 93.1724 88.2385 96.9741 80.7143C100.776 73.1902 101.883 64.5902 100.112 56.3484C98.3406 48.1065 93.7974 40.721 87.2401 35.4232C80.6827 30.1254 72.5075 27.2356 64.0774 27.2356C55.6474 27.2356 47.4721 30.1254 40.9147 35.4232C34.3574 40.721 29.8143 48.1065 28.0429 56.3484C26.2716 64.5902 27.3791 73.1902 31.1807 80.7143C34.9824 88.2385 41.2484 94.2321 48.9341 97.6956L47.353 101.233Z" fill="#3C1A5E"/>
<path d="M64.0774 95.1187C57.9378 95.1197 51.9358 93.3 46.8304 89.8898C41.725 86.4796 37.7456 81.6319 35.3954 75.96C33.0451 70.288 32.4297 64.0465 33.6268 58.0247C34.824 52.003 37.78 46.4715 42.121 42.1298C46.462 37.788 51.993 34.8311 58.0146 33.633C64.0361 32.4348 70.2777 33.0493 75.9501 35.3985C81.6224 37.7478 86.4707 41.7265 89.8818 46.8313C93.2929 51.9361 95.1136 57.9378 95.1136 64.0774C95.1041 72.3063 91.8313 80.1954 86.0131 86.0146C80.1949 91.8338 72.3063 95.1078 64.0774 95.1187V95.1187ZM64.0774 36.917C58.7056 36.917 53.4544 38.5099 48.9879 41.4943C44.5214 44.4788 41.0401 48.7206 38.9844 53.6836C36.9287 58.6465 36.3908 64.1076 37.4388 69.3762C38.4868 74.6448 41.0736 79.4843 44.8721 83.2828C48.6705 87.0812 53.5101 89.668 58.7787 90.716C64.0473 91.764 69.5084 91.2261 74.4713 89.1704C79.4342 87.1147 83.6761 83.6335 86.6605 79.167C89.645 74.7005 91.2379 69.4493 91.2379 64.0774C91.2284 56.876 88.3641 49.9721 83.2729 44.8789C78.1817 39.7858 71.2789 36.9189 64.0774 36.9067V36.917Z" fill="#3C1A5E"/>
<path d="M58.2561 93.1783H54.3752V122.279H58.2561V93.1783Z" fill="#3C1A5E"/>
<path d="M73.7792 93.1783H69.8984V122.279H73.7792V93.1783Z" fill="#3C1A5E"/>
<path d="M66.0178 100.935H62.137V104.816H66.0178V100.935Z" fill="#3C1A5E"/>
<path d="M66.0178 108.696H62.137V112.577H66.0178V108.696Z" fill="#3C1A5E"/>
<path d="M62.1371 72.6399L53.0049 63.5077L55.7512 60.7665L62.1371 67.1523L72.4038 56.8857L75.1501 59.6269L62.1371 72.6399Z" fill="#3C1A5E"/>
<path d="M19.4584 42.7382H15.5776V46.619H19.4584V42.7382Z" fill="#3C1A5E"/>
<path d="M19.4584 81.5359H15.5776V85.4167H19.4584V81.5359Z" fill="#3C1A5E"/>
<path d="M46.6188 15.5777H42.738V19.4585H46.6188V15.5777Z" fill="#3C1A5E"/>
<path d="M85.4167 15.5777H81.5359V19.4585H85.4167V15.5777Z" fill="#3C1A5E"/>
<path d="M112.577 42.7382H108.696V46.619H112.577V42.7382Z" fill="#3C1A5E"/>
<path d="M112.577 81.5359H108.696V85.4167H112.577V81.5359Z" fill="#3C1A5E"/>
</svg>
