<svg width="40" height="40" viewBox="0 0 40 40" fill="none" xmlns="http://www.w3.org/2000/svg">
<g clip-path="url(#clip0)">
<path d="M35.5556 0H4.44444C3.2657 0 2.13524 0.468253 1.30175 1.30175C0.468253 2.13524 0 3.2657 0 4.44444L0 35.5556C0 36.7343 0.468253 37.8648 1.30175 38.6983C2.13524 39.5317 3.2657 40 4.44444 40H15.2667V25.9333H9.82222V19.7111H15.2667V15.0222C15.0413 13.0369 15.6116 11.0431 16.8527 9.47721C18.0938 7.9113 19.9046 6.90074 21.8889 6.66667C22.3457 6.6001 22.8098 6.6001 23.2667 6.66667C24.874 6.68948 26.4778 6.82313 28.0667 7.06667V12.3333H25.4444C25.0417 12.2803 24.6324 12.3072 24.24 12.4126C23.8476 12.518 23.4799 12.6998 23.1579 12.9475C22.8359 13.1952 22.5659 13.504 22.3634 13.8562C22.1609 14.2084 22.0298 14.5971 21.9778 15C21.9334 15.2275 21.9334 15.4614 21.9778 15.6889V19.7111H27.9333L26.9556 25.9333H21.9556V40H35.5556C36.7343 40 37.8648 39.5317 38.6983 38.6983C39.5317 37.8648 40 36.7343 40 35.5556V4.44444C40 3.2657 39.5317 2.13524 38.6983 1.30175C37.8648 0.468253 36.7343 0 35.5556 0V0Z" fill="#3C1A5E"/>
</g>
<defs>
<clipPath id="clip0">
<rect width="40" height="40" fill="white"/>
</clipPath>
</defs>
</svg>
