<svg width="270" height="270" viewBox="0 0 270 270" fill="none" xmlns="http://www.w3.org/2000/svg">
<path d="M210.468 44.4038H15.3696V240.91H210.468V44.4038Z" fill="white"/>
<path d="M213.947 44.4038H206.979V240.91H213.947V44.4038Z" fill="#E6E6E6"/>
<path d="M18.8508 44.4038H11.8823V240.91H18.8508V44.4038Z" fill="#E6E6E6"/>
<path d="M224.399 237.46H1.43262V244.355H224.399V237.46Z" fill="#97A0A5"/>
<path d="M200.013 51.3003H25.8193V92.6685H200.013V51.3003Z" fill="#E6E6E6"/>
<path d="M74.5926 175.406H25.8193V182.302H74.5926V175.406Z" fill="#3C1A5E"/>
<path d="M74.5926 189.195H25.8193V196.091H74.5926V189.195Z" fill="#3C1A5E"/>
<path d="M74.5926 202.986H25.8193V209.882H74.5926V202.986Z" fill="#3C1A5E"/>
<path d="M74.5926 216.779H25.8193V223.675H74.5926V216.779Z" fill="#3C1A5E"/>
<path d="M200.012 175.406H151.239V182.302H200.012V175.406Z" fill="#FC7450"/>
<path d="M200.012 189.195H151.239V196.091H200.012V189.195Z" fill="#FC7450"/>
<path d="M200.012 202.986H151.239V209.882H200.012V202.986Z" fill="#FC7450"/>
<path d="M200.012 216.779H151.239V223.675H200.012V216.779Z" fill="#FC7450"/>
<path d="M200.013 99.5629H25.8193V106.459H200.013V99.5629Z" fill="#E6E6E6"/>
<path d="M213.944 23.7162H11.8823V44.4032H213.944V23.7162Z" fill="#97A0A5"/>
<path d="M32.7878 30.6127H25.8193V37.5083H32.7878V30.6127Z" fill="#E8E5E3"/>
<path d="M46.7243 30.6127H39.7559V37.5083H46.7243V30.6127Z" fill="#E8E5E3"/>
<path d="M60.6613 30.6127H53.6929V37.5083H60.6613V30.6127Z" fill="#E8E5E3"/>
<path d="M200.013 30.6127H74.5923V37.5083H200.013V30.6127Z" fill="#E8E5E3"/>
<path d="M74.5926 120.245H25.8193V168.509H74.5926V120.245Z" fill="#3C1A5E"/>
<path d="M200.012 120.245H151.239V168.509H200.012V120.245Z" fill="#FC7450"/>
<path d="M259.788 161.81C259.724 161.822 259.666 161.855 259.623 161.905C259.581 161.954 259.557 162.016 259.556 162.081L259.596 163.809C259.609 163.898 259.601 163.989 259.572 164.074C259.543 164.159 259.494 164.236 259.43 164.3C259.365 164.363 259.287 164.41 259.2 164.438C259.114 164.466 259.022 164.474 258.933 164.46H256.639C256.55 164.473 256.459 164.464 256.373 164.436C256.287 164.408 256.21 164.36 256.146 164.297C256.082 164.234 256.034 164.157 256.005 164.072C255.977 163.988 255.968 163.897 255.981 163.809L256.057 162.041C256.055 161.976 256.031 161.914 255.989 161.864C255.946 161.815 255.888 161.782 255.824 161.77C251.394 161.234 248.838 158.578 248.838 154.891V153.238C248.824 153.149 248.832 153.058 248.86 152.973C248.888 152.888 248.936 152.81 249 152.746C249.064 152.682 249.142 152.634 249.228 152.606C249.314 152.577 249.406 152.569 249.496 152.581H253.507C253.938 152.581 254.171 152.777 254.171 153.082V153.618C254.171 155.583 255.451 157.271 258.094 157.271C260.58 157.271 261.628 155.773 261.628 154.235C261.628 151.504 256.581 151.083 252.849 148.699C250.439 147.235 248.774 145.352 248.774 142.085C248.774 138.053 251.3 135.201 255.76 134.55C255.824 134.538 255.882 134.505 255.925 134.455C255.967 134.406 255.991 134.344 255.993 134.279L255.917 132.205C255.903 132.116 255.911 132.025 255.939 131.939C255.968 131.853 256.016 131.775 256.081 131.711C256.145 131.647 256.224 131.599 256.311 131.571C256.398 131.542 256.49 131.535 256.581 131.549H258.793C258.883 131.536 258.974 131.544 259.06 131.573C259.147 131.601 259.225 131.65 259.289 131.713C259.353 131.777 259.4 131.855 259.429 131.94C259.457 132.026 259.464 132.117 259.451 132.205L259.416 134.245C259.416 134.309 259.44 134.371 259.483 134.42C259.526 134.468 259.584 134.5 259.649 134.51C264.306 135.011 266.955 137.816 266.955 141.78V143.047C266.968 143.136 266.959 143.227 266.93 143.312C266.901 143.397 266.853 143.474 266.788 143.538C266.724 143.601 266.645 143.648 266.559 143.676C266.473 143.704 266.381 143.712 266.291 143.698H262.216C261.791 143.698 261.558 143.548 261.558 143.318V142.932C261.558 140.893 260.394 139.049 257.669 139.049C255.498 139.049 254.176 140.161 254.176 141.895C254.176 144.395 257.71 144.775 261.366 146.354C265.365 148.122 267.112 150.582 267.112 153.964C267.129 158.198 264.527 161.194 259.788 161.81Z" fill="#764BA2"/>
<path d="M175.625 147.827H235.367" stroke="#764BA2" stroke-width="3.35"/>
<path d="M137.302 120.245H88.5288V168.509H137.302V120.245Z" fill="#3C1A5E"/>
<path d="M137.302 175.406H88.5288V182.302H137.302V175.406Z" fill="#3C1A5E"/>
<path d="M137.302 202.986H88.5288V209.882H137.302V202.986Z" fill="#3C1A5E"/>
<path d="M137.302 216.779H88.5288V223.675H137.302V216.779Z" fill="#3C1A5E"/>
<path d="M137.302 189.195H88.5288V196.091H137.302V189.195Z" fill="#3C1A5E"/>
</svg>
