<svg width="270" height="270" viewBox="0 0 270 270" fill="none" xmlns="http://www.w3.org/2000/svg">
<g clip-path="url(#clip0)">
<path d="M210.096 43.124H10.2607V244.856H210.096V43.124Z" fill="white"/>
<path d="M213.658 43.124H206.524V244.856H213.658V43.124Z" fill="#E6E6E6"/>
<path d="M13.8225 43.124H6.68848V244.856H13.8225V43.124Z" fill="#E6E6E6"/>
<path d="M224.37 241.324H-4.01318V248.4H224.37V241.324Z" fill="#97A0A5"/>
<path d="M199.384 50.2047H20.9624V92.675H199.384V50.2047Z" fill="#E6E6E6"/>
<path d="M198.089 113.09H21.1626V205.935H198.089V113.09Z" fill="#3C1A5E"/>
<path d="M199.384 99.7568H20.9624V106.832H199.384V99.7568Z" fill="#E6E6E6"/>
<path d="M198.089 212.462H20.5679V228.936H198.089V212.462Z" fill="#3C1A5E"/>
<path d="M213.664 21.8916H6.68848V43.1238H213.664V21.8916Z" fill="#97A0A5"/>
<path d="M28.0964 28.9666H20.9624V36.0421H28.0964V28.9666Z" fill="#E8E5E3"/>
<path d="M42.3704 28.9666H35.2363V36.0421H42.3704V28.9666Z" fill="#E8E5E3"/>
<path d="M56.6443 28.9666H49.5103V36.0421H56.6443V28.9666Z" fill="#E8E5E3"/>
<path d="M199.392 28.9666H70.9258V36.0421H199.392V28.9666Z" fill="#E8E5E3"/>
<path d="M197.889 124.631H20.9624V194.388H197.889V124.631Z" fill="#FC7450"/>
<g opacity="0.4">
<path opacity="0.4" d="M98.2124 144.439V174.872L124.788 159.658L98.2124 144.439Z" fill="white"/>
</g>
<g opacity="0.4">
<path opacity="0.4" d="M188.791 137.924C189.643 137.924 190.476 137.673 191.184 137.204C191.893 136.734 192.445 136.067 192.771 135.286C193.097 134.505 193.183 133.646 193.017 132.817C192.85 131.988 192.44 131.227 191.837 130.629C191.235 130.031 190.467 129.624 189.631 129.46C188.795 129.295 187.929 129.379 187.142 129.703C186.354 130.026 185.682 130.574 185.208 131.277C184.735 131.979 184.482 132.806 184.482 133.651C184.482 134.784 184.936 135.871 185.744 136.672C186.552 137.474 187.648 137.924 188.791 137.924Z" fill="white"/>
</g>
<g opacity="0.4">
<path opacity="0.4" d="M188.791 150.849C189.643 150.849 190.476 150.599 191.185 150.129C191.894 149.659 192.446 148.991 192.772 148.21C193.098 147.429 193.183 146.569 193.016 145.74C192.849 144.911 192.438 144.15 191.835 143.552C191.232 142.955 190.464 142.548 189.628 142.384C188.791 142.22 187.925 142.305 187.138 142.63C186.35 142.954 185.678 143.503 185.205 144.206C184.732 144.91 184.481 145.737 184.482 146.582C184.482 147.143 184.593 147.698 184.81 148.216C185.027 148.735 185.344 149.205 185.744 149.602C186.144 149.998 186.619 150.312 187.142 150.526C187.665 150.74 188.225 150.85 188.791 150.849Z" fill="white"/>
</g>
<g opacity="0.4">
<path opacity="0.4" d="M188.791 176.705C189.643 176.705 190.476 176.454 191.185 175.985C191.894 175.515 192.446 174.847 192.772 174.066C193.098 173.285 193.183 172.425 193.016 171.596C192.849 170.767 192.438 170.006 191.835 169.408C191.232 168.811 190.464 168.404 189.628 168.24C188.791 168.076 187.925 168.161 187.138 168.486C186.35 168.81 185.678 169.358 185.205 170.062C184.732 170.766 184.481 171.592 184.482 172.438C184.482 172.999 184.593 173.554 184.81 174.072C185.027 174.59 185.344 175.061 185.744 175.457C186.144 175.854 186.619 176.168 187.142 176.382C187.665 176.596 188.225 176.706 188.791 176.705Z" fill="white"/>
</g>
<g opacity="0.4">
<path opacity="0.4" d="M188.791 163.78C189.643 163.78 190.476 163.529 191.184 163.06C191.893 162.59 192.445 161.923 192.771 161.142C193.097 160.361 193.183 159.502 193.017 158.673C192.85 157.844 192.44 157.082 191.837 156.485C191.235 155.887 190.467 155.48 189.631 155.315C188.795 155.15 187.929 155.235 187.142 155.559C186.354 155.882 185.682 156.43 185.208 157.132C184.735 157.835 184.482 158.661 184.482 159.507C184.482 160.64 184.936 161.727 185.744 162.528C186.552 163.33 187.648 163.78 188.791 163.78Z" fill="white"/>
</g>
<g opacity="0.4">
<path opacity="0.4" d="M188.791 189.636C189.643 189.636 190.476 189.385 191.184 188.915C191.893 188.446 192.445 187.778 192.771 186.998C193.097 186.217 193.183 185.358 193.017 184.529C192.85 183.7 192.44 182.938 191.837 182.341C191.235 181.743 190.467 181.336 189.631 181.171C188.795 181.006 187.929 181.091 187.142 181.414C186.354 181.738 185.682 182.285 185.208 182.988C184.735 183.691 184.482 184.517 184.482 185.362C184.482 186.496 184.936 187.583 185.744 188.384C186.552 189.185 187.648 189.636 188.791 189.636Z" fill="white"/>
</g>
<g opacity="0.4">
<path opacity="0.4" d="M30.9347 137.924C31.7868 137.924 32.6199 137.673 33.3284 137.204C34.037 136.734 34.5892 136.067 34.9154 135.286C35.2415 134.505 35.3268 133.646 35.1605 132.817C34.9943 131.988 34.5839 131.227 33.9813 130.629C33.3788 130.031 32.611 129.624 31.7752 129.46C30.9394 129.295 30.0731 129.379 29.2858 129.703C28.4985 130.026 27.8256 130.574 27.3521 131.277C26.8787 131.979 26.626 132.806 26.626 133.651C26.6252 134.212 26.7361 134.768 26.9524 135.287C27.1686 135.806 27.486 136.277 27.8862 136.674C28.2865 137.071 28.7618 137.386 29.2849 137.6C29.808 137.815 30.3686 137.925 30.9347 137.924Z" fill="white"/>
</g>
<g opacity="0.4">
<path opacity="0.4" d="M30.9347 150.849C31.7871 150.849 32.6204 150.599 33.3291 150.129C34.0377 149.659 34.59 148.991 34.9159 148.21C35.2419 147.429 35.3269 146.569 35.1601 145.74C34.9934 144.911 34.5824 144.15 33.9793 143.552C33.3761 142.955 32.6078 142.548 31.7716 142.384C30.9354 142.22 30.0689 142.305 29.2817 142.63C28.4945 142.954 27.822 143.503 27.3493 144.206C26.8765 144.91 26.6248 145.737 26.626 146.582C26.626 147.143 26.7375 147.698 26.9541 148.216C27.1707 148.735 27.4881 149.205 27.8883 149.602C28.2885 149.998 28.7635 150.312 29.2862 150.526C29.809 150.74 30.3691 150.85 30.9347 150.849Z" fill="white"/>
</g>
<g opacity="0.4">
<path opacity="0.4" d="M30.9347 176.71C31.7868 176.71 32.6199 176.46 33.3284 175.99C34.037 175.521 34.5892 174.853 34.9154 174.072C35.2415 173.291 35.3268 172.432 35.1605 171.603C34.9943 170.774 34.5839 170.013 33.9813 169.415C33.3788 168.818 32.611 168.411 31.7752 168.246C30.9394 168.081 30.0731 168.166 29.2858 168.489C28.4985 168.812 27.8256 169.36 27.3521 170.063C26.8787 170.766 26.626 171.592 26.626 172.437C26.6252 172.998 26.7361 173.554 26.9524 174.073C27.1686 174.592 27.486 175.063 27.8862 175.46C28.2865 175.857 28.7618 176.172 29.2849 176.387C29.808 176.601 30.3686 176.711 30.9347 176.71Z" fill="white"/>
</g>
<g opacity="0.4">
<path opacity="0.4" d="M30.9347 163.78C31.7868 163.78 32.6199 163.529 33.3284 163.06C34.037 162.59 34.5892 161.923 34.9154 161.142C35.2415 160.361 35.3268 159.502 35.1605 158.673C34.9943 157.844 34.5839 157.082 33.9813 156.485C33.3788 155.887 32.611 155.48 31.7752 155.315C30.9394 155.15 30.0731 155.235 29.2858 155.559C28.4985 155.882 27.8256 156.43 27.3521 157.132C26.8787 157.835 26.626 158.661 26.626 159.507C26.6252 160.068 26.7361 160.624 26.9524 161.143C27.1686 161.662 27.486 162.133 27.8862 162.53C28.2865 162.927 28.7618 163.242 29.2849 163.456C29.808 163.671 30.3686 163.781 30.9347 163.78Z" fill="white"/>
</g>
<g opacity="0.4">
<path opacity="0.4" d="M30.9347 189.636C31.7868 189.636 32.6199 189.385 33.3284 188.915C34.037 188.446 34.5892 187.778 34.9154 186.998C35.2415 186.217 35.3268 185.358 35.1605 184.529C34.9943 183.7 34.5839 182.938 33.9813 182.341C33.3788 181.743 32.611 181.336 31.7752 181.171C30.9394 181.006 30.0731 181.091 29.2858 181.414C28.4985 181.738 27.8256 182.285 27.3521 182.988C26.8787 183.691 26.626 184.517 26.626 185.362C26.6252 185.924 26.7361 186.48 26.9524 186.999C27.1686 187.517 27.486 187.989 27.8862 188.386C28.2865 188.783 28.7618 189.097 29.2849 189.312C29.808 189.526 30.3686 189.636 30.9347 189.636Z" fill="white"/>
</g>
<path d="M259.236 169.939C259.17 169.951 259.111 169.984 259.067 170.034C259.023 170.084 258.998 170.147 258.995 170.213L259.036 171.994C259.051 172.085 259.044 172.179 259.016 172.267C258.987 172.356 258.938 172.436 258.871 172.502C258.805 172.567 258.724 172.616 258.635 172.645C258.546 172.673 258.451 172.68 258.359 172.665H256.004C255.912 172.68 255.817 172.673 255.728 172.645C255.639 172.616 255.558 172.567 255.492 172.502C255.426 172.436 255.376 172.356 255.348 172.267C255.319 172.179 255.312 172.085 255.328 171.994L255.41 170.178C255.408 170.111 255.383 170.046 255.34 169.995C255.296 169.944 255.235 169.91 255.169 169.898C250.63 169.349 248.005 166.623 248.005 162.834V161.135C247.99 161.044 247.997 160.95 248.025 160.861C248.054 160.773 248.103 160.693 248.17 160.627C248.236 160.561 248.317 160.512 248.406 160.484C248.495 160.456 248.59 160.449 248.682 160.464H252.802C253.238 160.464 253.479 160.662 253.479 160.978V161.532C253.479 163.546 254.792 165.28 257.5 165.28C260.048 165.28 261.12 163.745 261.12 162.163C261.12 159.36 255.946 158.928 252.125 156.477C249.659 154.982 247.946 153.044 247.946 149.693C247.946 145.548 250.536 142.623 255.11 141.952C255.176 141.941 255.236 141.908 255.28 141.858C255.324 141.808 255.349 141.744 255.351 141.678L255.269 139.547C255.253 139.455 255.26 139.361 255.289 139.273C255.318 139.185 255.367 139.104 255.433 139.039C255.499 138.973 255.58 138.924 255.669 138.896C255.759 138.867 255.853 138.86 255.946 138.876H258.218C258.31 138.86 258.405 138.867 258.494 138.896C258.583 138.924 258.664 138.973 258.73 139.039C258.796 139.104 258.846 139.185 258.874 139.273C258.903 139.361 258.91 139.455 258.895 139.547L258.853 141.637C258.854 141.703 258.877 141.768 258.92 141.819C258.963 141.87 259.023 141.905 259.089 141.917C263.868 142.431 266.57 145.309 266.57 149.378V150.68C266.585 150.771 266.578 150.864 266.55 150.952C266.522 151.04 266.473 151.12 266.407 151.185C266.342 151.251 266.262 151.3 266.173 151.329C266.085 151.357 265.991 151.365 265.899 151.351H261.72C261.278 151.351 261.043 151.193 261.043 150.954V150.557C261.043 148.467 259.866 146.57 257.064 146.57C254.833 146.57 253.479 147.737 253.479 149.489C253.479 152.052 257.099 152.449 260.843 154.066C264.963 155.881 266.729 158.409 266.729 161.882C266.759 166.232 264.092 169.308 259.236 169.939Z" fill="#764BA2"/>
<path d="M174.393 155.584H235.592" stroke="#764BA2" stroke-width="3.35"/>
<path d="M41.0219 224.325L38.8146 217.103C38.8039 217.08 38.7998 217.054 38.8026 217.028C38.8055 217.002 38.8152 216.978 38.8308 216.957C38.8464 216.936 38.8673 216.92 38.8913 216.909C38.9154 216.899 38.9417 216.896 38.9676 216.899H40.2331C40.2802 216.895 40.3271 216.908 40.365 216.936C40.4029 216.964 40.4293 217.005 40.4392 217.051L41.8695 222.264C41.8695 222.322 41.946 222.322 41.9578 222.264L43.3646 217.062C43.3752 217.016 43.4014 216.975 43.4388 216.945C43.4762 216.915 43.5227 216.899 43.5706 216.899H44.8067C44.8326 216.896 44.859 216.899 44.883 216.909C44.9071 216.92 44.9279 216.936 44.9435 216.957C44.9591 216.978 44.9688 217.002 44.9717 217.028C44.9745 217.054 44.9704 217.08 44.9598 217.103L42.7112 224.325C42.6993 224.369 42.6724 224.409 42.635 224.436C42.5975 224.464 42.5518 224.478 42.5052 224.477H41.2397C41.1914 224.48 41.1434 224.466 41.1038 224.439C41.0641 224.411 41.0352 224.371 41.0219 224.325Z" fill="white"/>
<path d="M45.9381 224.29V217.08C45.9353 217.056 45.938 217.031 45.9462 217.008C45.9544 216.984 45.9677 216.963 45.9853 216.946C46.0028 216.929 46.0241 216.915 46.0475 216.907C46.0709 216.899 46.0959 216.896 46.1206 216.899H47.2978C47.3224 216.896 47.3474 216.899 47.3708 216.907C47.3942 216.915 47.4155 216.929 47.433 216.946C47.4506 216.963 47.4639 216.984 47.4721 217.008C47.4803 217.031 47.4831 217.056 47.4803 217.08V224.29C47.4829 224.315 47.4801 224.339 47.4719 224.363C47.4638 224.386 47.4505 224.408 47.4331 224.426C47.4157 224.443 47.3946 224.457 47.3712 224.466C47.3478 224.475 47.3227 224.478 47.2978 224.477H46.1206C46.0956 224.478 46.0705 224.475 46.0472 224.466C46.0238 224.457 46.0026 224.443 45.9852 224.426C45.9678 224.408 45.9546 224.386 45.9464 224.363C45.9383 224.339 45.9354 224.315 45.9381 224.29Z" fill="white"/>
<path d="M48.8218 224.29V217.08C48.82 217.055 48.8236 217.031 48.8325 217.007C48.8414 216.984 48.8553 216.963 48.8733 216.946C48.8913 216.929 48.9128 216.915 48.9365 216.907C48.9601 216.899 48.9853 216.897 49.0102 216.899H51.6825C53.3306 216.899 54.4137 217.81 54.4137 219.193V222.177C54.4137 223.566 53.3306 224.477 51.6825 224.477H49.0102C48.9848 224.479 48.959 224.477 48.9349 224.468C48.9108 224.46 48.8889 224.446 48.8708 224.428C48.8527 224.41 48.8389 224.388 48.8304 224.365C48.822 224.341 48.819 224.315 48.8218 224.29ZM50.4288 223.163H51.7355C51.8943 223.165 52.0517 223.133 52.1973 223.07C52.343 223.008 52.4737 222.915 52.5808 222.799C52.688 222.683 52.7693 222.545 52.8194 222.396C52.8695 222.246 52.8872 222.088 52.8715 221.931V219.439C52.8893 219.281 52.8727 219.121 52.823 218.971C52.7733 218.82 52.6915 218.682 52.5833 218.565C52.4751 218.448 52.3429 218.356 52.1956 218.294C52.0484 218.232 51.8894 218.203 51.7296 218.207H50.4111C50.4024 218.206 50.3935 218.207 50.3853 218.21C50.377 218.213 50.3695 218.217 50.3633 218.224C50.3571 218.23 50.3523 218.237 50.3494 218.245C50.3465 218.254 50.3454 218.262 50.3463 218.271V223.099C50.3454 223.108 50.3465 223.116 50.3494 223.125C50.3523 223.133 50.3571 223.14 50.3633 223.146C50.3695 223.153 50.377 223.157 50.3853 223.16C50.3935 223.163 50.4024 223.164 50.4111 223.163H50.4288Z" fill="white"/>
<path d="M60.6705 218.206H57.1388C57.13 218.205 57.1212 218.206 57.1129 218.209C57.1047 218.212 57.0971 218.217 57.0909 218.223C57.0847 218.229 57.08 218.236 57.0771 218.245C57.0741 218.253 57.0731 218.262 57.074 218.27V219.928C57.0731 219.937 57.0741 219.946 57.0771 219.954C57.08 219.962 57.0847 219.97 57.0909 219.976C57.0971 219.982 57.1047 219.987 57.1129 219.989C57.1212 219.992 57.13 219.993 57.1388 219.992H59.4167C59.4418 219.989 59.4675 219.991 59.4916 219.998C59.5158 220.006 59.5379 220.019 59.5561 220.037C59.5743 220.054 59.5882 220.076 59.5967 220.099C59.6052 220.123 59.6081 220.148 59.6051 220.173V221.119C59.6081 221.144 59.6052 221.169 59.5967 221.193C59.5882 221.217 59.5743 221.238 59.5561 221.256C59.5379 221.273 59.5158 221.287 59.4916 221.294C59.4675 221.302 59.4418 221.304 59.4167 221.3H57.1388C57.13 221.299 57.1212 221.3 57.1129 221.303C57.1047 221.306 57.0971 221.311 57.0909 221.317C57.0847 221.323 57.08 221.331 57.0771 221.339C57.0741 221.347 57.0731 221.356 57.074 221.364V223.116C57.0731 223.124 57.0741 223.133 57.0771 223.141C57.08 223.15 57.0847 223.157 57.0909 223.163C57.0971 223.169 57.1047 223.174 57.1129 223.177C57.1212 223.18 57.13 223.181 57.1388 223.18H60.6705C60.6957 223.177 60.7213 223.18 60.7452 223.188C60.7691 223.197 60.7907 223.21 60.8084 223.228C60.826 223.247 60.8393 223.268 60.847 223.292C60.8547 223.316 60.8568 223.342 60.853 223.367V224.307C60.8556 224.331 60.8528 224.356 60.8446 224.38C60.8365 224.403 60.8232 224.425 60.8058 224.442C60.7884 224.46 60.7673 224.474 60.7439 224.483C60.7205 224.492 60.6954 224.495 60.6705 224.493H55.7379C55.7124 224.496 55.6867 224.493 55.6626 224.485C55.6385 224.476 55.6166 224.463 55.5985 224.445C55.5804 224.427 55.5666 224.405 55.5581 224.381C55.5497 224.357 55.5467 224.332 55.5495 224.307V217.079C55.5465 217.054 55.5494 217.029 55.5579 217.005C55.5663 216.982 55.5802 216.96 55.5985 216.943C55.6167 216.925 55.6388 216.912 55.663 216.904C55.6871 216.897 55.7128 216.895 55.7379 216.898H60.6705C60.6951 216.896 60.7201 216.898 60.7435 216.906C60.7669 216.915 60.7882 216.928 60.8058 216.945C60.8233 216.963 60.8366 216.984 60.8448 217.007C60.853 217.03 60.8558 217.055 60.853 217.079V218.043C60.8531 218.066 60.8483 218.088 60.839 218.109C60.8296 218.131 60.8158 218.149 60.7986 218.165C60.7814 218.18 60.7611 218.192 60.739 218.199C60.7169 218.206 60.6936 218.209 60.6705 218.206Z" fill="white"/>
<path d="M61.771 221.843V219.508C61.771 217.885 62.9188 216.793 64.6434 216.793C66.3681 216.793 67.5218 217.885 67.5218 219.508V221.843C67.4883 222.577 67.1707 223.27 66.6351 223.778C66.0996 224.285 65.3872 224.569 64.6464 224.569C63.9055 224.569 63.1932 224.285 62.6576 223.778C62.1221 223.27 61.8045 222.577 61.771 221.843ZM65.9855 221.895V219.514C65.9855 219.34 65.9509 219.167 65.8838 219.007C65.8166 218.846 65.7182 218.7 65.5941 218.577C65.4701 218.454 65.3228 218.356 65.1607 218.289C64.9986 218.223 64.8248 218.188 64.6493 218.188C64.4739 218.188 64.3001 218.223 64.138 218.289C63.9759 218.356 63.8286 218.454 63.7045 218.577C63.5804 218.7 63.482 218.846 63.4149 219.007C63.3477 219.167 63.3132 219.34 63.3132 219.514V221.895C63.3132 222.07 63.3477 222.242 63.4149 222.403C63.482 222.563 63.5804 222.709 63.7045 222.833C63.8286 222.956 63.9759 223.053 64.138 223.12C64.3001 223.186 64.4739 223.221 64.6493 223.221C64.8248 223.221 64.9986 223.186 65.1607 223.12C65.3228 223.053 65.4701 222.956 65.5941 222.833C65.7182 222.709 65.8166 222.563 65.8838 222.403C65.9509 222.242 65.9855 222.07 65.9855 221.895Z" fill="white"/>
<path d="M70.6349 222.299V222.13C70.632 222.105 70.6348 222.08 70.643 222.057C70.6512 222.034 70.6645 222.013 70.6821 221.995C70.6996 221.978 70.7209 221.965 70.7443 221.957C70.7677 221.949 70.7927 221.946 70.8173 221.949H71.9651C72.0829 221.949 72.1476 222.001 72.1476 222.089V222.241C72.1476 222.789 72.7362 223.268 73.5897 223.268C74.4432 223.268 74.7257 222.859 74.7257 222.422C74.7257 221.873 74.1666 221.674 73.1306 221.301C71.9946 220.91 70.6878 220.402 70.6878 218.966C70.6878 217.635 71.7885 216.823 73.3484 216.823C75.0318 216.823 76.2208 217.751 76.2208 219.158V219.263C76.2236 219.288 76.2207 219.314 76.2122 219.338C76.2037 219.362 76.1899 219.384 76.1719 219.402C76.1538 219.419 76.1319 219.433 76.1077 219.442C76.0836 219.45 76.0579 219.453 76.0325 219.45H74.8905C74.7669 219.45 74.7022 219.403 74.7022 219.339V219.211C74.7022 218.627 74.2136 218.113 73.2954 218.113C72.595 218.113 72.2065 218.417 72.2065 218.925C72.2065 219.433 72.6832 219.684 73.8958 220.092C74.8906 220.454 76.2503 220.875 76.2503 222.346C76.2503 223.665 75.1731 224.541 73.4602 224.541C71.7473 224.541 70.6349 223.671 70.6349 222.299Z" fill="white"/>
<path d="M82.6736 217.08V218.043C82.6764 218.068 82.6734 218.094 82.6649 218.118C82.6565 218.142 82.6427 218.163 82.6246 218.181C82.6065 218.199 82.5846 218.213 82.5605 218.221C82.5364 218.23 82.5106 218.233 82.4852 218.23H80.6075C80.5988 218.229 80.59 218.23 80.5817 218.233C80.5734 218.236 80.5659 218.241 80.5597 218.247C80.5535 218.253 80.5487 218.26 80.5458 218.268C80.5429 218.277 80.5419 218.285 80.5428 218.294V224.29C80.5454 224.314 80.5426 224.339 80.5345 224.363C80.5263 224.386 80.5131 224.408 80.4957 224.425C80.4782 224.443 80.4571 224.457 80.4337 224.466C80.4103 224.475 80.3853 224.478 80.3603 224.476H79.1831C79.1581 224.478 79.1331 224.475 79.1097 224.466C79.0863 224.457 79.0651 224.443 79.0477 224.425C79.0303 224.408 79.0171 224.386 79.0089 224.363C79.0008 224.339 78.998 224.314 79.0006 224.29V218.282C79.0015 218.274 79.0005 218.265 78.9976 218.257C78.9947 218.249 78.9899 218.241 78.9837 218.235C78.9775 218.229 78.97 218.224 78.9617 218.221C78.9534 218.218 78.9446 218.217 78.9359 218.218H77.0758C77.0506 218.221 77.0251 218.218 77.0012 218.21C76.9772 218.202 76.9556 218.188 76.9379 218.17C76.9203 218.152 76.9071 218.13 76.8993 218.106C76.8916 218.082 76.8896 218.056 76.8934 218.031V217.08C76.8863 217.054 76.8858 217.026 76.8921 217C76.8983 216.974 76.911 216.949 76.9291 216.929C76.9472 216.909 76.9701 216.893 76.9957 216.884C77.0213 216.875 77.0488 216.872 77.0758 216.876H82.4676C82.4962 216.867 82.5267 216.866 82.5558 216.873C82.5848 216.88 82.6114 216.895 82.6326 216.916C82.6538 216.937 82.6688 216.964 82.676 216.992C82.6832 217.021 82.6824 217.051 82.6736 217.08Z" fill="white"/>
<path d="M87.6711 224.324L87.365 223.314C87.3643 223.307 87.362 223.299 87.3584 223.293C87.3547 223.286 87.3497 223.28 87.3437 223.275C87.3377 223.27 87.3307 223.266 87.3233 223.264C87.3158 223.262 87.308 223.261 87.3003 223.262H84.6279C84.6201 223.26 84.6119 223.26 84.604 223.262C84.5962 223.264 84.5889 223.267 84.5826 223.273C84.5764 223.278 84.5714 223.284 84.568 223.291C84.5646 223.299 84.563 223.306 84.5632 223.314L84.2571 224.324C84.244 224.37 84.216 224.409 84.1776 224.437C84.1392 224.464 84.0926 224.478 84.0452 224.476H82.7797C82.753 224.48 82.7257 224.477 82.7009 224.466C82.676 224.456 82.6545 224.439 82.6387 224.417C82.6229 224.396 82.6134 224.37 82.6113 224.343C82.6092 224.317 82.6145 224.29 82.6266 224.266L84.9517 217.051C84.9639 217.005 84.9916 216.965 85.0303 216.937C85.0689 216.909 85.116 216.896 85.1636 216.899H86.7646C86.8117 216.895 86.8586 216.908 86.8965 216.936C86.9344 216.964 86.9608 217.005 86.9706 217.051L89.2957 224.266C89.3428 224.389 89.2957 224.476 89.1426 224.476H87.8771C87.8305 224.478 87.7848 224.464 87.7474 224.436C87.7099 224.408 87.6831 224.369 87.6711 224.324ZM84.9988 222.083H86.9294C86.9706 222.083 86.9942 222.083 86.9824 222.007L85.9994 218.703C85.9994 218.65 85.9347 218.65 85.9111 218.703L84.9399 222.007C84.934 222.059 84.9517 222.083 84.9988 222.083Z" fill="white"/>
<path d="M94.3042 224.33L92.9621 221.411C92.9562 221.396 92.9457 221.383 92.932 221.373C92.9184 221.364 92.9022 221.359 92.8856 221.359H91.8908C91.8821 221.358 91.8733 221.359 91.865 221.362C91.8567 221.365 91.8492 221.37 91.843 221.376C91.8368 221.382 91.832 221.389 91.8291 221.398C91.8262 221.406 91.8252 221.414 91.8261 221.423V224.313C91.8287 224.338 91.8259 224.362 91.8178 224.386C91.8096 224.409 91.7964 224.431 91.779 224.449C91.7615 224.466 91.7404 224.48 91.717 224.489C91.6936 224.498 91.6686 224.502 91.6436 224.5H90.4664C90.441 224.502 90.4152 224.5 90.3911 224.491C90.367 224.483 90.3451 224.469 90.327 224.451C90.3089 224.433 90.2951 224.411 90.2866 224.388C90.2782 224.364 90.2752 224.338 90.278 224.313V217.068C90.275 217.043 90.2779 217.018 90.2864 216.994C90.2949 216.97 90.3088 216.949 90.327 216.931C90.3452 216.914 90.3673 216.901 90.3915 216.893C90.4156 216.885 90.4413 216.883 90.4664 216.887H93.5566C93.8674 216.863 94.1797 216.906 94.4726 217.011C94.7655 217.117 95.0324 217.283 95.2552 217.499C95.4781 217.716 95.6519 217.976 95.765 218.264C95.8781 218.552 95.9279 218.861 95.9111 219.17C95.9323 219.61 95.8074 220.046 95.5555 220.41C95.3036 220.773 94.9385 221.045 94.5161 221.184C94.5071 221.186 94.4988 221.19 94.4918 221.196C94.4848 221.203 94.4794 221.21 94.476 221.219C94.4725 221.227 94.4712 221.236 94.472 221.246C94.4728 221.255 94.4758 221.264 94.4808 221.271L95.9229 224.254C95.9876 224.377 95.9229 224.476 95.7934 224.476H94.5573C94.5049 224.482 94.4521 224.471 94.4066 224.444C94.3611 224.418 94.3252 224.378 94.3042 224.33ZM91.8261 218.271V220.092C91.8261 220.109 91.8329 220.125 91.8451 220.138C91.8572 220.15 91.8737 220.156 91.8908 220.156H93.3153C93.4486 220.167 93.5826 220.15 93.7088 220.106C93.835 220.062 93.9506 219.993 94.0481 219.902C94.1457 219.811 94.223 219.701 94.2752 219.579C94.3274 219.457 94.3533 219.326 94.3513 219.193C94.3548 219.059 94.3302 218.926 94.2788 218.802C94.2275 218.678 94.1506 218.566 94.0531 218.473C93.9555 218.38 93.8396 218.308 93.7125 218.262C93.5855 218.217 93.4502 218.198 93.3153 218.206H91.8908C91.8821 218.206 91.8733 218.207 91.865 218.21C91.8567 218.212 91.8492 218.217 91.843 218.223C91.8368 218.229 91.832 218.237 91.8291 218.245C91.8262 218.253 91.8252 218.262 91.8261 218.271Z" fill="white"/>
<path d="M102.386 217.08V218.043C102.39 218.068 102.388 218.094 102.38 218.117C102.373 218.141 102.359 218.163 102.342 218.181C102.324 218.2 102.302 218.213 102.279 218.222C102.255 218.23 102.229 218.233 102.204 218.23H100.314C100.306 218.229 100.297 218.23 100.289 218.233C100.28 218.236 100.273 218.241 100.267 218.247C100.26 218.253 100.256 218.26 100.253 218.269C100.25 218.277 100.249 218.286 100.25 218.294V224.29C100.252 224.315 100.25 224.34 100.241 224.364C100.233 224.388 100.219 224.41 100.201 224.428C100.183 224.446 100.161 224.46 100.137 224.468C100.112 224.476 100.087 224.479 100.061 224.476H98.8841C98.8587 224.479 98.8329 224.476 98.8088 224.468C98.7847 224.46 98.7628 224.446 98.7447 224.428C98.7266 224.41 98.7128 224.388 98.7043 224.364C98.6959 224.34 98.6929 224.315 98.6957 224.29V218.283C98.6966 218.274 98.6956 218.265 98.6927 218.257C98.6897 218.249 98.685 218.241 98.6788 218.235C98.6726 218.229 98.6651 218.224 98.6568 218.221C98.6485 218.218 98.6397 218.217 98.631 218.218H96.8004C96.7749 218.221 96.7492 218.218 96.7251 218.21C96.701 218.201 96.679 218.188 96.661 218.17C96.6429 218.152 96.6291 218.13 96.6206 218.106C96.6121 218.082 96.6092 218.057 96.612 218.032V217.08C96.609 217.055 96.6118 217.03 96.6203 217.006C96.6288 216.982 96.6427 216.961 96.661 216.943C96.6792 216.926 96.7013 216.913 96.7254 216.905C96.7496 216.897 96.7753 216.895 96.8004 216.899H102.192C102.218 216.894 102.244 216.895 102.269 216.903C102.294 216.91 102.317 216.923 102.336 216.94C102.355 216.958 102.369 216.98 102.378 217.004C102.387 217.028 102.39 217.054 102.386 217.08Z" fill="white"/>
<path d="M103.068 222.299V222.13C103.065 222.105 103.068 222.079 103.076 222.056C103.085 222.032 103.099 222.01 103.117 221.993C103.135 221.975 103.157 221.962 103.182 221.955C103.206 221.947 103.231 221.945 103.256 221.949H104.398C104.522 221.949 104.587 222.001 104.587 222.089V222.241C104.587 222.789 105.14 223.268 106.029 223.268C106.918 223.268 107.159 222.859 107.159 222.422C107.159 221.873 106.606 221.674 105.57 221.301C104.434 220.91 103.121 220.402 103.121 218.966C103.121 217.635 104.228 216.823 105.787 216.823C107.465 216.823 108.654 217.751 108.654 219.158V219.263C108.657 219.288 108.654 219.313 108.646 219.336C108.638 219.36 108.624 219.381 108.607 219.399C108.589 219.417 108.568 219.431 108.545 219.44C108.522 219.448 108.497 219.452 108.472 219.45H107.294C107.177 219.45 107.112 219.403 107.112 219.339V219.211C107.112 218.627 106.617 218.113 105.705 218.113C105.005 218.113 104.61 218.417 104.61 218.925C104.61 219.433 105.093 219.684 106.305 220.092C107.294 220.454 108.66 220.875 108.66 222.346C108.66 223.665 107.577 224.541 105.864 224.541C104.151 224.541 103.068 223.671 103.068 222.299Z" fill="white"/>
<path d="M111.963 224.289V217.079C111.96 217.054 111.963 217.029 111.971 217.005C111.98 216.982 111.994 216.96 112.012 216.943C112.03 216.925 112.052 216.912 112.077 216.904C112.101 216.897 112.126 216.895 112.151 216.898H113.329C113.354 216.895 113.379 216.897 113.404 216.904C113.428 216.912 113.45 216.925 113.468 216.943C113.486 216.96 113.5 216.982 113.509 217.005C113.517 217.029 113.52 217.054 113.517 217.079V224.289C113.52 224.314 113.517 224.34 113.508 224.364C113.5 224.388 113.486 224.409 113.468 224.427C113.45 224.445 113.428 224.459 113.404 224.467C113.38 224.476 113.354 224.479 113.329 224.476H112.151C112.126 224.479 112.1 224.476 112.076 224.467C112.052 224.459 112.03 224.445 112.012 224.427C111.994 224.409 111.98 224.388 111.972 224.364C111.963 224.34 111.96 224.314 111.963 224.289Z" fill="white"/>
<path d="M114.835 224.29V217.08C114.832 217.056 114.835 217.031 114.843 217.008C114.851 216.984 114.864 216.963 114.882 216.946C114.899 216.929 114.921 216.915 114.944 216.907C114.967 216.899 114.992 216.896 115.017 216.899H116.141C116.186 216.895 116.231 216.905 116.27 216.925C116.31 216.946 116.343 216.977 116.365 217.016L119.09 221.517C119.126 221.575 119.167 221.564 119.167 221.517V217.098C119.164 217.073 119.167 217.048 119.175 217.025C119.183 217.002 119.196 216.981 119.214 216.963C119.232 216.946 119.253 216.933 119.276 216.925C119.3 216.917 119.325 216.914 119.349 216.917H120.497C120.522 216.913 120.548 216.915 120.572 216.923C120.596 216.93 120.618 216.943 120.636 216.961C120.655 216.978 120.669 217 120.677 217.024C120.686 217.047 120.688 217.073 120.685 217.098V224.29C120.688 224.315 120.685 224.341 120.677 224.364C120.668 224.388 120.655 224.41 120.636 224.428C120.618 224.446 120.596 224.46 120.572 224.468C120.548 224.476 120.522 224.479 120.497 224.477H119.385C119.339 224.478 119.294 224.465 119.256 224.441C119.217 224.418 119.186 224.383 119.167 224.342L116.43 219.795C116.394 219.736 116.353 219.748 116.353 219.795V224.266C116.356 224.292 116.353 224.317 116.345 224.341C116.336 224.365 116.322 224.387 116.304 224.405C116.286 224.423 116.264 224.436 116.24 224.445C116.216 224.453 116.19 224.456 116.165 224.453H114.988C114.946 224.449 114.908 224.43 114.88 224.4C114.852 224.37 114.836 224.331 114.835 224.29Z" fill="white"/>
<path d="M121.81 223.578C121.829 223.327 121.944 223.093 122.13 222.922C122.316 222.751 122.56 222.656 122.814 222.656C123.067 222.656 123.312 222.751 123.498 222.922C123.684 223.093 123.798 223.327 123.817 223.578C123.814 223.706 123.786 223.832 123.733 223.949C123.68 224.066 123.604 224.171 123.51 224.259C123.416 224.346 123.305 224.414 123.184 224.459C123.063 224.503 122.934 224.523 122.805 224.518C122.677 224.523 122.549 224.503 122.429 224.458C122.309 224.414 122.199 224.345 122.106 224.258C122.013 224.17 121.939 224.065 121.888 223.948C121.837 223.831 121.811 223.705 121.81 223.578ZM124.994 223.578C125.014 223.327 125.128 223.093 125.314 222.922C125.5 222.751 125.744 222.656 125.998 222.656C126.252 222.656 126.496 222.751 126.682 222.922C126.868 223.093 126.982 223.327 127.002 223.578C126.999 223.706 126.97 223.832 126.917 223.949C126.864 224.066 126.789 224.171 126.694 224.259C126.6 224.346 126.489 224.414 126.368 224.459C126.247 224.503 126.118 224.523 125.989 224.518C125.86 224.525 125.731 224.506 125.609 224.462C125.488 224.418 125.377 224.35 125.283 224.262C125.188 224.174 125.113 224.068 125.062 223.951C125.01 223.833 124.983 223.706 124.983 223.578H124.994ZM128.161 223.578C128.181 223.327 128.295 223.093 128.481 222.922C128.667 222.751 128.911 222.656 129.165 222.656C129.418 222.656 129.663 222.751 129.849 222.922C130.035 223.093 130.149 223.327 130.168 223.578C130.165 223.706 130.137 223.832 130.084 223.949C130.031 224.066 129.955 224.171 129.861 224.259C129.767 224.346 129.656 224.414 129.535 224.459C129.414 224.503 129.285 224.523 129.156 224.518C129.027 224.525 128.898 224.506 128.776 224.462C128.655 224.418 128.544 224.35 128.449 224.262C128.355 224.174 128.28 224.068 128.229 223.951C128.177 223.833 128.15 223.706 128.149 223.578H128.161Z" fill="white"/>
<path d="M133.213 222.299V222.13C133.21 222.105 133.212 222.079 133.221 222.056C133.229 222.032 133.243 222.01 133.262 221.993C133.28 221.975 133.302 221.962 133.326 221.955C133.35 221.947 133.376 221.945 133.401 221.949H134.543C134.666 221.949 134.731 222.001 134.731 222.089V222.241C134.731 222.789 135.29 223.268 136.173 223.268C137.056 223.268 137.309 222.859 137.309 222.422C137.309 221.873 136.75 221.674 135.714 221.301C134.578 220.91 133.271 220.402 133.271 218.966C133.271 217.635 134.372 216.823 135.932 216.823C137.61 216.823 138.804 217.751 138.804 219.158V219.263C138.807 219.288 138.804 219.314 138.796 219.338C138.787 219.362 138.774 219.384 138.756 219.402C138.737 219.419 138.716 219.433 138.691 219.442C138.667 219.45 138.642 219.453 138.616 219.45H137.468C137.351 219.45 137.286 219.403 137.286 219.339V219.211C137.286 218.627 136.791 218.113 135.879 218.113C135.179 218.113 134.784 218.417 134.784 218.925C134.784 219.433 135.267 219.684 136.479 220.092C137.468 220.454 138.834 220.875 138.834 222.346C138.834 223.665 137.751 224.541 136.038 224.541C134.325 224.541 133.213 223.671 133.213 222.299Z" fill="white"/>
<path d="M145.042 218.206H141.511C141.493 218.206 141.477 218.213 141.465 218.225C141.453 218.237 141.446 218.253 141.446 218.27V219.928C141.445 219.937 141.446 219.946 141.449 219.954C141.452 219.962 141.457 219.97 141.463 219.976C141.469 219.982 141.477 219.987 141.485 219.989C141.493 219.992 141.502 219.993 141.511 219.992H143.794C143.819 219.99 143.844 219.992 143.867 220.001C143.891 220.009 143.912 220.022 143.93 220.039C143.947 220.057 143.961 220.078 143.969 220.101C143.977 220.124 143.98 220.149 143.977 220.173V221.119C143.98 221.144 143.977 221.168 143.969 221.192C143.961 221.215 143.947 221.236 143.93 221.253C143.912 221.271 143.891 221.284 143.867 221.292C143.844 221.3 143.819 221.303 143.794 221.3H141.528C141.511 221.3 141.495 221.307 141.483 221.319C141.47 221.331 141.464 221.347 141.464 221.364V223.116C141.463 223.124 141.464 223.133 141.467 223.141C141.47 223.15 141.474 223.157 141.48 223.163C141.487 223.169 141.494 223.174 141.502 223.177C141.511 223.18 141.52 223.181 141.528 223.18H145.06C145.085 223.177 145.111 223.18 145.135 223.188C145.159 223.197 145.181 223.211 145.199 223.228C145.217 223.246 145.231 223.268 145.24 223.292C145.248 223.316 145.251 223.341 145.248 223.367V224.307C145.251 224.332 145.248 224.357 145.24 224.381C145.231 224.405 145.217 224.427 145.199 224.445C145.181 224.463 145.159 224.476 145.135 224.485C145.111 224.493 145.085 224.496 145.06 224.493H140.127C140.102 224.495 140.077 224.492 140.054 224.483C140.031 224.474 140.009 224.46 139.992 224.442C139.975 224.425 139.961 224.403 139.953 224.38C139.945 224.356 139.942 224.331 139.945 224.307V217.079C139.942 217.055 139.945 217.03 139.953 217.007C139.961 216.984 139.975 216.963 139.992 216.945C140.01 216.928 140.031 216.915 140.054 216.906C140.078 216.898 140.103 216.896 140.127 216.898H145.06C145.085 216.895 145.111 216.897 145.135 216.904C145.159 216.912 145.181 216.925 145.199 216.943C145.218 216.96 145.232 216.982 145.24 217.005C145.248 217.029 145.251 217.054 145.248 217.079V218.043C145.249 218.068 145.244 218.093 145.233 218.116C145.223 218.139 145.207 218.16 145.187 218.175C145.167 218.191 145.143 218.202 145.118 218.208C145.093 218.213 145.067 218.212 145.042 218.206Z" fill="white"/>
<path d="M146.144 221.931V219.433C146.144 217.85 147.268 216.811 148.987 216.811C150.705 216.811 151.812 217.81 151.812 219.31C151.812 219.374 151.747 219.421 151.635 219.433L150.458 219.508C150.335 219.508 150.258 219.508 150.258 219.45V219.386C150.236 219.061 150.09 218.756 149.85 218.534C149.61 218.312 149.294 218.188 148.966 218.188C148.638 218.188 148.322 218.312 148.082 218.534C147.842 218.756 147.696 219.061 147.674 219.386V221.995C147.696 222.32 147.842 222.625 148.082 222.847C148.322 223.069 148.638 223.193 148.966 223.193C149.294 223.193 149.61 223.069 149.85 222.847C150.09 222.625 150.236 222.32 150.258 221.995C150.258 221.919 150.323 221.867 150.446 221.879L151.624 221.931C151.735 221.931 151.812 221.931 151.812 221.984V222.036C151.812 223.554 150.676 224.558 148.987 224.558C147.297 224.558 146.144 223.507 146.144 221.931Z" fill="white"/>
<path d="M152.783 221.843V219.508C152.77 219.137 152.837 218.767 152.978 218.423C153.119 218.08 153.332 217.77 153.603 217.513C153.874 217.257 154.196 217.06 154.549 216.936C154.902 216.812 155.277 216.763 155.65 216.793C157.386 216.793 158.534 217.885 158.534 219.508V221.843C158.501 222.577 158.183 223.27 157.647 223.777C157.112 224.285 156.4 224.568 155.659 224.568C154.918 224.568 154.206 224.285 153.67 223.777C153.134 223.27 152.817 222.577 152.783 221.843ZM156.992 221.895V219.514C156.992 219.162 156.851 218.825 156.601 218.576C156.35 218.328 156.01 218.188 155.656 218.188C155.301 218.188 154.962 218.328 154.711 218.576C154.46 218.825 154.32 219.162 154.32 219.514V221.895C154.32 222.247 154.46 222.584 154.711 222.832C154.962 223.081 155.301 223.221 155.656 223.221C156.01 223.221 156.35 223.081 156.601 222.832C156.851 222.584 156.992 222.247 156.992 221.895Z" fill="white"/>
<path d="M159.713 224.289V217.079C159.71 217.054 159.712 217.029 159.721 217.005C159.729 216.982 159.743 216.96 159.762 216.943C159.78 216.925 159.802 216.912 159.826 216.904C159.85 216.897 159.876 216.895 159.901 216.898H161.025C161.069 216.896 161.112 216.905 161.151 216.926C161.189 216.947 161.221 216.978 161.243 217.015L163.968 221.516C164.004 221.574 164.045 221.563 164.045 221.516V217.097C164.042 217.072 164.045 217.047 164.053 217.023C164.062 216.999 164.076 216.978 164.094 216.96C164.112 216.943 164.134 216.929 164.158 216.922C164.182 216.914 164.208 216.912 164.233 216.916H165.369C165.394 216.912 165.42 216.914 165.444 216.922C165.468 216.929 165.49 216.943 165.509 216.96C165.527 216.978 165.541 216.999 165.549 217.023C165.558 217.047 165.561 217.072 165.558 217.097V224.289C165.56 224.314 165.557 224.34 165.549 224.364C165.54 224.388 165.527 224.409 165.509 224.427C165.49 224.445 165.469 224.459 165.444 224.467C165.42 224.476 165.395 224.479 165.369 224.476H164.257C164.211 224.475 164.167 224.463 164.129 224.439C164.09 224.415 164.059 224.382 164.039 224.342L161.308 219.794C161.272 219.736 161.231 219.747 161.231 219.794V224.266C161.234 224.291 161.231 224.316 161.223 224.34C161.214 224.364 161.2 224.386 161.182 224.404C161.164 224.422 161.142 224.436 161.118 224.444C161.094 224.452 161.068 224.455 161.043 224.453H159.866C159.824 224.448 159.786 224.429 159.758 224.399C159.73 224.369 159.714 224.33 159.713 224.289Z" fill="white"/>
<path d="M166.829 224.289V217.079C166.826 217.054 166.829 217.029 166.838 217.005C166.846 216.982 166.86 216.96 166.878 216.943C166.896 216.925 166.919 216.912 166.943 216.904C166.967 216.897 166.993 216.895 167.018 216.898H169.69C171.338 216.898 172.415 217.809 172.415 219.193V222.176C172.415 223.565 171.338 224.476 169.69 224.476H167.018C166.992 224.479 166.966 224.476 166.942 224.467C166.918 224.459 166.896 224.445 166.878 224.427C166.86 224.409 166.846 224.388 166.838 224.364C166.829 224.34 166.826 224.314 166.829 224.289ZM168.436 223.162H169.743C169.902 223.164 170.059 223.132 170.205 223.07C170.35 223.007 170.481 222.914 170.588 222.798C170.695 222.682 170.777 222.545 170.827 222.395C170.877 222.246 170.895 222.087 170.879 221.931V219.438C170.897 219.28 170.88 219.12 170.83 218.969C170.78 218.817 170.698 218.679 170.589 218.562C170.48 218.445 170.347 218.353 170.199 218.291C170.051 218.23 169.892 218.201 169.731 218.206H168.436C168.389 218.206 168.366 218.206 168.366 218.27V223.098C168.366 223.145 168.389 223.162 168.436 223.162Z" fill="white"/>
<path d="M173.32 222.299V222.13C173.317 222.105 173.32 222.079 173.328 222.056C173.337 222.032 173.351 222.01 173.369 221.993C173.387 221.975 173.409 221.962 173.433 221.955C173.458 221.947 173.483 221.945 173.508 221.949H174.656C174.774 221.949 174.839 222.001 174.839 222.089V222.241C174.839 222.789 175.427 223.268 176.281 223.268C177.134 223.268 177.417 222.859 177.417 222.422C177.417 221.873 176.828 221.674 175.822 221.301C174.686 220.91 173.379 220.402 173.379 218.966C173.379 217.635 174.48 216.823 176.039 216.823C177.717 216.823 178.906 217.751 178.906 219.158V219.263C178.909 219.288 178.906 219.313 178.898 219.336C178.889 219.36 178.876 219.381 178.859 219.399C178.841 219.417 178.82 219.431 178.797 219.44C178.774 219.448 178.748 219.452 178.723 219.45H177.576C177.458 219.45 177.393 219.403 177.393 219.339V219.211C177.393 218.627 176.899 218.113 175.986 218.113C175.286 218.113 174.892 218.417 174.892 218.925C174.892 219.433 175.374 219.684 176.587 220.092C177.576 220.454 178.941 220.875 178.941 222.346C178.941 223.665 177.858 224.541 176.145 224.541C174.432 224.541 173.32 223.671 173.32 222.299Z" fill="white"/>
<g opacity="0.25">
<g opacity="0.25">
<path opacity="0.25" d="M30.9347 202.568C31.7868 202.568 32.6199 202.317 33.3284 201.847C34.037 201.378 34.5892 200.71 34.9154 199.93C35.2415 199.149 35.3268 198.289 35.1605 197.461C34.9943 196.632 34.5839 195.87 33.9813 195.273C33.3788 194.675 32.611 194.268 31.7752 194.103C30.9394 193.938 30.0731 194.023 29.2858 194.346C28.4985 194.67 27.8256 195.217 27.3521 195.92C26.8787 196.623 26.626 197.449 26.626 198.294C26.6252 198.856 26.7361 199.412 26.9524 199.93C27.1686 200.449 27.486 200.921 27.8862 201.318C28.2865 201.715 28.7618 202.029 29.2849 202.244C29.808 202.458 30.3686 202.568 30.9347 202.568Z" fill="white"/>
</g>
</g>
<g opacity="0.25">
<g opacity="0.25">
<path opacity="0.25" d="M188.791 202.568C189.643 202.568 190.476 202.317 191.184 201.847C191.893 201.378 192.445 200.71 192.771 199.93C193.097 199.149 193.183 198.289 193.016 197.461C192.85 196.632 192.44 195.87 191.837 195.273C191.235 194.675 190.467 194.268 189.631 194.103C188.795 193.938 187.929 194.023 187.142 194.346C186.354 194.67 185.682 195.217 185.208 195.92C184.735 196.623 184.482 197.449 184.482 198.294C184.482 199.428 184.936 200.514 185.744 201.316C186.552 202.117 187.648 202.568 188.791 202.568Z" fill="white"/>
</g>
</g>
<g opacity="0.25">
<g opacity="0.25">
<path opacity="0.25" d="M30.9347 124.994C31.7871 124.994 32.6204 124.744 33.3291 124.274C34.0377 123.804 34.59 123.136 34.9159 122.355C35.2419 121.574 35.3269 120.714 35.1601 119.885C34.9934 119.056 34.5824 118.295 33.9793 117.697C33.3761 117.1 32.6078 116.693 31.7716 116.529C30.9354 116.365 30.0689 116.45 29.2817 116.775C28.4945 117.099 27.822 117.648 27.3493 118.351C26.8765 119.055 26.6248 119.881 26.626 120.727C26.626 121.288 26.7375 121.843 26.9541 122.361C27.1707 122.879 27.4881 123.35 27.8883 123.747C28.2885 124.143 28.7635 124.457 29.2862 124.671C29.809 124.885 30.3691 124.995 30.9347 124.994Z" fill="white"/>
</g>
</g>
<g opacity="0.25">
<g opacity="0.25">
<path opacity="0.25" d="M188.791 124.994C189.643 124.994 190.476 124.744 191.185 124.274C191.894 123.804 192.446 123.136 192.772 122.355C193.098 121.574 193.183 120.714 193.016 119.885C192.849 119.056 192.438 118.295 191.835 117.697C191.232 117.1 190.464 116.693 189.628 116.529C188.791 116.365 187.925 116.45 187.138 116.775C186.35 117.099 185.678 117.648 185.205 118.351C184.732 119.055 184.481 119.881 184.482 120.727C184.482 121.288 184.593 121.843 184.81 122.361C185.027 122.879 185.344 123.35 185.744 123.747C186.144 124.143 186.619 124.457 187.142 124.671C187.665 124.885 188.225 124.995 188.791 124.994Z" fill="white"/>
</g>
</g>
</g>
<defs>
<clipPath id="clip0">
<rect width="270" height="270" fill="white"/>
</clipPath>
</defs>
</svg>
