<svg width="270" height="270" viewBox="0 0 270 270" fill="none" xmlns="http://www.w3.org/2000/svg">
<path d="M233.696 44.7321H36.0122V244.386H233.696V44.7321Z" fill="white"/>
<path d="M237.226 44.7321H230.166V244.386H237.226V44.7321Z" fill="#E6E6E6"/>
<path d="M39.5426 44.7321H32.4824V244.386H39.5426V44.7321Z" fill="#E6E6E6"/>
<path d="M247.816 240.884H21.8921V247.889H247.816V240.884Z" fill="#97A0A5"/>
<path d="M223.106 51.7381H46.6025V93.7706H223.106V51.7381Z" fill="#E6E6E6"/>
<path d="M159.564 177.836H110.144V226.873H159.564V177.836Z" fill="#E6E6E6"/>
<path d="M96.0235 177.836H46.6025V184.841H96.0235V177.836Z" fill="#E6E6E6"/>
<path d="M96.0235 191.846H46.6025V198.851H96.0235V191.846Z" fill="#E6E6E6"/>
<path d="M96.0235 205.857H46.6025V212.862H96.0235V205.857Z" fill="#E6E6E6"/>
<path d="M96.0235 219.867H46.6025V226.873H96.0235V219.867Z" fill="#E6E6E6"/>
<path d="M223.106 177.836H173.685V184.841H223.106V177.836Z" fill="#E6E6E6"/>
<path d="M223.106 191.846H173.685V198.851H223.106V191.846Z" fill="#E6E6E6"/>
<path d="M223.106 205.857H173.685V212.862H223.106V205.857Z" fill="#E6E6E6"/>
<path d="M223.106 219.867H173.685V226.873H223.106V219.867Z" fill="#E6E6E6"/>
<path d="M159.564 135.803H110.144V142.808H159.564V135.803Z" fill="#E6E6E6"/>
<path d="M159.564 121.792H110.144V128.797H159.564V121.792Z" fill="#E6E6E6"/>
<path d="M159.564 163.824H110.144V170.83H159.564V163.824Z" fill="#E6E6E6"/>
<path d="M223.106 100.776H46.6025V107.781H223.106V100.776Z" fill="#E6E6E6"/>
<path d="M237.226 23.7162H32.4824V44.7324H237.226V23.7162Z" fill="#97A0A5"/>
<path d="M53.6627 30.7215H46.6025V37.7269H53.6627V30.7215Z" fill="#E8E5E3"/>
<path d="M67.7828 30.7215H60.7227V37.7269H67.7828V30.7215Z" fill="#E8E5E3"/>
<path d="M81.9034 30.7215H74.8433V37.7269H81.9034V30.7215Z" fill="#E8E5E3"/>
<path d="M223.106 30.7215H96.0234V37.7269H223.106V30.7215Z" fill="#E8E5E3"/>
<path d="M96.0235 121.792H46.6025V170.83H96.0235V121.792Z" fill="#E6E6E6"/>
<path d="M223.106 121.792H173.685V170.83H223.106V121.792Z" fill="#E6E6E6"/>
<path d="M159.564 149.814H110.144V156.819H159.564V149.814Z" fill="#E6E6E6"/>
<path d="M226.425 167.49H142.815V236.05H226.425V167.49Z" fill="#FC7450"/>
<path d="M226.425 153.322H142.815V167.485H226.425V153.322Z" fill="#3C1A5E"/>
<g opacity="0.4">
<path opacity="0.4" d="M179.405 188.559V211.093L199.074 199.826L179.405 188.559Z" fill="white"/>
</g>
<g opacity="0.4">
<path opacity="0.4" d="M152.529 180.112C153.383 180.112 154.218 179.861 154.928 179.39C155.638 178.919 156.192 178.25 156.519 177.467C156.846 176.684 156.931 175.822 156.764 174.991C156.598 174.16 156.186 173.396 155.583 172.797C154.979 172.198 154.209 171.79 153.371 171.624C152.534 171.459 151.665 171.544 150.876 171.868C150.087 172.192 149.413 172.742 148.938 173.446C148.464 174.151 148.21 174.979 148.21 175.827C148.21 176.39 148.321 176.947 148.538 177.468C148.754 177.988 149.072 178.461 149.474 178.859C149.875 179.257 150.351 179.572 150.875 179.787C151.4 180.002 151.962 180.113 152.529 180.112Z" fill="white"/>
</g>
<g opacity="0.4">
<path opacity="0.4" d="M152.529 193.084C153.383 193.084 154.218 192.832 154.928 192.362C155.638 191.891 156.192 191.222 156.519 190.439C156.845 189.656 156.931 188.794 156.764 187.963C156.598 187.132 156.186 186.368 155.583 185.769C154.979 185.17 154.209 184.761 153.371 184.596C152.534 184.431 151.665 184.516 150.876 184.84C150.087 185.164 149.413 185.714 148.938 186.418C148.464 187.123 148.21 187.951 148.21 188.799C148.21 189.935 148.665 191.025 149.475 191.829C150.285 192.632 151.384 193.084 152.529 193.084Z" fill="white"/>
</g>
<g opacity="0.4">
<path opacity="0.4" d="M152.529 219.027C153.383 219.027 154.218 218.775 154.928 218.305C155.638 217.834 156.192 217.165 156.519 216.382C156.845 215.599 156.931 214.737 156.764 213.906C156.598 213.075 156.186 212.311 155.583 211.712C154.979 211.113 154.209 210.704 153.371 210.539C152.534 210.374 151.665 210.459 150.876 210.783C150.087 211.107 149.413 211.657 148.938 212.361C148.464 213.066 148.21 213.894 148.21 214.742C148.21 215.878 148.665 216.968 149.475 217.772C150.285 218.575 151.384 219.027 152.529 219.027Z" fill="white"/>
</g>
<g opacity="0.4">
<path opacity="0.4" d="M152.529 206.055C153.383 206.055 154.218 205.804 154.928 205.333C155.638 204.862 156.192 204.193 156.519 203.41C156.845 202.627 156.931 201.765 156.764 200.934C156.598 200.103 156.186 199.339 155.583 198.74C154.979 198.141 154.209 197.733 153.371 197.567C152.534 197.402 151.665 197.487 150.876 197.811C150.087 198.135 149.413 198.685 148.938 199.389C148.464 200.094 148.21 200.922 148.21 201.77C148.21 202.906 148.665 203.996 149.475 204.8C150.285 205.604 151.384 206.055 152.529 206.055Z" fill="white"/>
</g>
<g opacity="0.4">
<path opacity="0.4" d="M152.529 231.993C153.383 231.993 154.218 231.742 154.928 231.271C155.638 230.8 156.192 230.131 156.519 229.348C156.846 228.565 156.931 227.703 156.764 226.872C156.598 226.041 156.186 225.277 155.583 224.678C154.979 224.079 154.209 223.671 153.371 223.505C152.534 223.34 151.665 223.425 150.876 223.749C150.087 224.073 149.413 224.623 148.938 225.327C148.464 226.032 148.21 226.86 148.21 227.708C148.21 228.271 148.321 228.828 148.538 229.349C148.754 229.869 149.072 230.341 149.474 230.74C149.875 231.138 150.351 231.453 150.875 231.668C151.4 231.883 151.962 231.994 152.529 231.993Z" fill="white"/>
</g>
<path d="M214.828 165.225H217.181C217.257 165.227 217.331 165.21 217.398 165.174C217.464 165.138 217.519 165.085 217.558 165.021L219.205 162.528C219.241 162.452 219.317 162.452 219.358 162.528L221 165.021C221.04 165.085 221.096 165.138 221.163 165.174C221.231 165.21 221.306 165.227 221.382 165.225H223.535C223.8 165.225 223.894 165.038 223.741 164.834L220.8 160.479C220.783 160.458 220.774 160.433 220.774 160.406C220.774 160.38 220.783 160.354 220.8 160.333L223.741 155.978C223.894 155.768 223.8 155.581 223.535 155.581H221.229C221.153 155.58 221.078 155.599 221.012 155.636C220.946 155.673 220.891 155.726 220.853 155.791L219.205 158.284C219.17 158.36 219.093 158.342 219.052 158.284L217.387 155.791C217.349 155.726 217.294 155.673 217.228 155.636C217.161 155.599 217.087 155.58 217.011 155.581H214.857C214.593 155.581 214.499 155.768 214.646 155.978L217.587 160.333C217.604 160.354 217.613 160.38 217.613 160.406C217.613 160.433 217.604 160.458 217.587 160.479L214.646 164.834C214.499 165.038 214.593 165.225 214.857 165.225" fill="white"/>
<g opacity="0.4">
<path opacity="0.4" d="M219.472 193.084C220.326 193.084 221.161 192.832 221.871 192.362C222.581 191.891 223.135 191.222 223.462 190.439C223.788 189.656 223.874 188.794 223.707 187.963C223.541 187.132 223.129 186.368 222.525 185.769C221.921 185.17 221.152 184.761 220.314 184.596C219.477 184.431 218.608 184.516 217.819 184.84C217.03 185.164 216.356 185.714 215.881 186.418C215.407 187.123 215.153 187.951 215.153 188.799C215.153 189.935 215.608 191.025 216.418 191.829C217.228 192.632 218.326 193.084 219.472 193.084Z" fill="white"/>
</g>
<g opacity="0.4">
<path opacity="0.4" d="M219.472 219.027C220.326 219.027 221.161 218.775 221.871 218.305C222.581 217.834 223.135 217.165 223.462 216.382C223.788 215.599 223.874 214.737 223.707 213.906C223.541 213.075 223.129 212.311 222.525 211.712C221.921 211.113 221.152 210.704 220.314 210.539C219.477 210.374 218.608 210.459 217.819 210.783C217.03 211.107 216.356 211.657 215.881 212.361C215.407 213.066 215.153 213.894 215.153 214.742C215.153 215.878 215.608 216.968 216.418 217.772C217.228 218.575 218.326 219.027 219.472 219.027Z" fill="white"/>
</g>
<g opacity="0.4">
<path opacity="0.4" d="M219.472 206.055C220.326 206.055 221.161 205.804 221.871 205.333C222.581 204.862 223.135 204.193 223.462 203.41C223.788 202.627 223.874 201.765 223.707 200.934C223.541 200.103 223.129 199.339 222.525 198.74C221.921 198.141 221.152 197.733 220.314 197.567C219.477 197.402 218.608 197.487 217.819 197.811C217.03 198.135 216.356 198.685 215.881 199.389C215.407 200.094 215.153 200.922 215.153 201.77C215.153 202.906 215.608 203.996 216.418 204.8C217.228 205.604 218.326 206.055 219.472 206.055Z" fill="white"/>
</g>
<g opacity="0.4">
<path opacity="0.4" d="M219.472 231.993C220.326 231.993 221.161 231.742 221.871 231.271C222.581 230.8 223.135 230.131 223.462 229.348C223.788 228.565 223.874 227.703 223.707 226.872C223.541 226.041 223.129 225.277 222.525 224.678C221.921 224.079 221.152 223.671 220.314 223.505C219.477 223.34 218.608 223.425 217.819 223.749C217.03 224.073 216.356 224.623 215.881 225.327C215.407 226.032 215.153 226.86 215.153 227.708C215.153 228.844 215.608 229.934 216.418 230.738C217.228 231.541 218.326 231.993 219.472 231.993Z" fill="white"/>
</g>
<g opacity="0.4">
<path opacity="0.4" d="M219.472 180.112C220.326 180.112 221.161 179.861 221.871 179.39C222.581 178.919 223.135 178.25 223.462 177.467C223.788 176.684 223.874 175.822 223.707 174.991C223.541 174.16 223.129 173.396 222.525 172.797C221.921 172.198 221.152 171.79 220.314 171.624C219.477 171.459 218.608 171.544 217.819 171.868C217.03 172.192 216.356 172.742 215.881 173.446C215.407 174.151 215.153 174.979 215.153 175.827C215.153 176.963 215.608 178.053 216.418 178.857C217.228 179.66 218.326 180.112 219.472 180.112Z" fill="white"/>
</g>
</svg>
