<svg width="270" height="270" viewBox="0 0 270 270" fill="none" xmlns="http://www.w3.org/2000/svg">
<g clip-path="url(#clip0)">
<path d="M210.166 44.5193H13.0308V242.124H210.166V44.5193Z" fill="white"/>
<path d="M213.681 44.5193H206.639V242.124H213.681V44.5193Z" fill="#E6E6E6"/>
<path d="M16.5526 44.5193H9.51123V242.124H16.5526V44.5193Z" fill="#E6E6E6"/>
<path d="M224.245 238.656H-1.05078V245.591H224.245V238.656Z" fill="#97A0A5"/>
<path d="M199.604 51.4531H23.5928V93.0544H199.604V51.4531Z" fill="#FC7450"/>
<path d="M136.237 176.255H86.9531V224.791H136.237V176.255Z" fill="#E6E6E6"/>
<path d="M72.8767 176.255H23.5928V183.19H72.8767V176.255Z" fill="#E6E6E6"/>
<path d="M72.8767 190.119H23.5928V197.054H72.8767V190.119Z" fill="#E6E6E6"/>
<path d="M72.8767 203.989H23.5928V210.924H72.8767V203.989Z" fill="#E6E6E6"/>
<path d="M72.8767 217.857H23.5928V224.791H72.8767V217.857Z" fill="#E6E6E6"/>
<path d="M199.601 176.255H150.317V183.19H199.601V176.255Z" fill="#E6E6E6"/>
<path d="M199.601 190.119H150.317V197.054H199.601V190.119Z" fill="#E6E6E6"/>
<path d="M199.601 203.989H150.317V210.924H199.601V203.989Z" fill="#E6E6E6"/>
<path d="M199.601 217.857H150.317V224.791H199.601V217.857Z" fill="#E6E6E6"/>
<path d="M136.237 134.654H86.9531V141.589H136.237V134.654Z" fill="#E6E6E6"/>
<path d="M136.237 120.786H86.9531V127.721H136.237V120.786Z" fill="#E6E6E6"/>
<path d="M136.237 162.388H86.9531V169.322H136.237V162.388Z" fill="#E6E6E6"/>
<path d="M199.604 99.9828H23.5928V106.917H199.604V99.9828Z" fill="#E6E6E6"/>
<path d="M213.682 23.7158H9.51123V44.5135H213.682V23.7158Z" fill="#97A0A5"/>
<path d="M30.6342 30.6497H23.5928V37.5842H30.6342V30.6497Z" fill="#E8E5E3"/>
<path d="M44.7118 30.6497H37.6704V37.5842H44.7118V30.6497Z" fill="#E8E5E3"/>
<path d="M58.7929 30.6497H51.7515V37.5842H58.7929V30.6497Z" fill="#E8E5E3"/>
<path d="M199.599 30.6497H72.8716V37.5842H199.599V30.6497Z" fill="#E8E5E3"/>
<path d="M72.8767 120.786H23.5928V169.322H72.8767V120.786Z" fill="#E6E6E6"/>
<path d="M199.601 120.786H150.317V169.322H199.601V120.786Z" fill="#E6E6E6"/>
<path d="M136.237 148.518H86.9531V155.453H136.237V148.518Z" fill="#E6E6E6"/>
<path d="M258.645 85.7688C258.58 85.7785 258.519 85.8111 258.476 85.8605C258.432 85.91 258.408 85.9731 258.407 86.0387L258.449 87.7987C258.46 87.8877 258.451 87.9782 258.422 88.0632C258.392 88.1481 258.344 88.2253 258.279 88.2888C258.215 88.3522 258.136 88.4003 258.05 88.4293C257.964 88.4582 257.872 88.4673 257.782 88.4558H255.464C255.372 88.4681 255.277 88.4589 255.189 88.4287C255.1 88.3985 255.021 88.3482 254.956 88.2819C254.891 88.2156 254.842 88.1352 254.815 88.0472C254.787 87.9592 254.781 87.866 254.797 87.7752L254.874 86.0152C254.872 85.9511 254.848 85.8898 254.805 85.8409C254.763 85.792 254.706 85.7583 254.642 85.7453C250.162 85.2056 247.571 82.5362 247.571 78.8284V77.1446C247.559 77.0556 247.568 76.9651 247.598 76.8802C247.627 76.7952 247.676 76.718 247.74 76.6545C247.805 76.5911 247.883 76.543 247.97 76.5141C248.056 76.4851 248.148 76.476 248.238 76.4876H252.325C252.754 76.4876 252.992 76.6812 252.992 76.9921V77.5318C252.992 79.5031 254.285 81.2044 256.953 81.2044C259.467 81.2044 260.528 79.6967 260.528 78.1537C260.528 75.4081 255.422 74.9798 251.658 72.5862C249.221 71.1136 247.535 69.2186 247.535 65.9332C247.535 61.8734 250.085 59.0105 254.6 58.3534C254.666 58.3425 254.725 58.3097 254.769 58.2605C254.812 58.2113 254.837 58.1487 254.839 58.0835L254.755 55.9949C254.744 55.9059 254.753 55.8154 254.782 55.7305C254.812 55.6455 254.86 55.5683 254.925 55.5048C254.989 55.4414 255.068 55.3933 255.154 55.3644C255.24 55.3354 255.332 55.3263 255.422 55.3379H257.662C257.753 55.3263 257.845 55.3354 257.931 55.3644C258.017 55.3933 258.096 55.4414 258.16 55.5048C258.224 55.5683 258.273 55.6455 258.303 55.7305C258.332 55.8154 258.341 55.9059 258.33 55.9949L258.288 58.0483C258.292 58.1129 258.317 58.1743 258.36 58.2231C258.404 58.2719 258.462 58.3054 258.526 58.3182C263.238 58.8168 265.907 61.6446 265.907 65.6223V66.9013C265.919 66.9908 265.91 67.0819 265.88 67.1674C265.85 67.2528 265.801 67.3304 265.736 67.394C265.671 67.4576 265.591 67.5055 265.504 67.534C265.417 67.5625 265.325 67.5708 265.234 67.5583H261.118C260.683 67.5583 260.45 67.3999 260.45 67.1711V66.7839C260.45 64.7364 259.259 62.8767 256.525 62.8767C254.326 62.8767 252.992 64.0031 252.992 65.7396C252.992 68.2506 256.566 68.6378 260.254 70.2277C264.299 71.9877 266.062 74.4753 266.062 77.8545C266.062 82.1314 263.447 85.1469 258.645 85.7688Z" fill="#764BA2"/>
<path d="M175.598 71.7041H235.968" stroke="#764BA2" stroke-width="3.35"/>
</g>
<defs>
<clipPath id="clip0">
<rect width="270" height="270" fill="white"/>
</clipPath>
</defs>
</svg>
