<svg width="102" height="102" viewBox="0 0 102 102" fill="none" xmlns="http://www.w3.org/2000/svg">
<path d="M70.125 63.75C87.7291 63.75 102 49.4791 102 31.875C102 14.2709 87.7291 0 70.125 0C52.5209 0 38.25 14.2709 38.25 31.875C38.25 49.4791 52.5209 63.75 70.125 63.75Z" fill="#FC7450"/>
<path d="M0 97.2188H102" stroke="#3C1A5E" stroke-width="2" stroke-miterlimit="10"/>
<path d="M97.2188 90.8438H4.78125L1.59375 87.6562V20.7188L4.78125 17.5312H97.2188L100.406 20.7188V87.6562L97.2188 90.8438Z" stroke="#3C1A5E" stroke-width="2" stroke-miterlimit="10" stroke-linejoin="round"/>
<path d="M60.5625 51H54.1875V44.625H47.8125V51H41.4375V57.375H47.8125V63.75H54.1875V57.375H60.5625V51Z" stroke="#3C1A5E" stroke-width="2" stroke-miterlimit="10"/>
<path d="M11.1562 97.2188V90.8438" stroke="#3C1A5E" stroke-width="2" stroke-miterlimit="10" stroke-linejoin="round"/>
<path d="M27.0938 90.8438V97.2188" stroke="#3C1A5E" stroke-width="2" stroke-miterlimit="10" stroke-linejoin="round"/>
<path d="M74.9062 97.2188V90.8438" stroke="#3C1A5E" stroke-width="2" stroke-miterlimit="10" stroke-linejoin="round"/>
<path d="M90.8438 90.8438V97.2188" stroke="#3C1A5E" stroke-width="2" stroke-miterlimit="10" stroke-linejoin="round"/>
<path d="M1.59375 84.4688H100.406" stroke="#3C1A5E" stroke-width="2" stroke-miterlimit="10"/>
<path d="M31.875 17.5312L38.25 4.78125H63.75L70.125 17.5312" stroke="#3C1A5E" stroke-width="2" stroke-miterlimit="10" stroke-linejoin="round"/>
<path d="M35.0625 11.1562H66.9375" stroke="#3C1A5E" stroke-width="2" stroke-miterlimit="10" stroke-linejoin="round"/>
<path d="M27.0938 17.5312V23.9062H11.1562V17.5312" stroke="#3C1A5E" stroke-width="2" stroke-miterlimit="10" stroke-linejoin="round"/>
<path d="M90.8438 17.5312V23.9062H74.9062V17.5312" stroke="#3C1A5E" stroke-width="2" stroke-miterlimit="10" stroke-linejoin="round"/>
<path d="M44.625 4.78125V11.1562" stroke="#3C1A5E" stroke-width="2" stroke-miterlimit="10" stroke-linejoin="round"/>
<path d="M51 4.78125V11.1562" stroke="#3C1A5E" stroke-width="2" stroke-miterlimit="10" stroke-linejoin="round"/>
<path d="M57.375 4.78125V11.1562" stroke="#3C1A5E" stroke-width="2" stroke-miterlimit="10" stroke-linejoin="round"/>
<path d="M36.6562 57.375H11.1562" stroke="#3C1A5E" stroke-width="2" stroke-miterlimit="10"/>
<path d="M36.6562 51H11.1562" stroke="#3C1A5E" stroke-width="2" stroke-miterlimit="10"/>
<path d="M65.3438 57.375H90.8438" stroke="#3C1A5E" stroke-width="2" stroke-miterlimit="10"/>
<path d="M65.3438 51H90.8438" stroke="#3C1A5E" stroke-width="2" stroke-miterlimit="10"/>
<path d="M11.1562 28.6875V84.4688" stroke="#3C1A5E" stroke-width="2" stroke-miterlimit="10"/>
<path d="M90.8438 28.6875V84.4688" stroke="#3C1A5E" stroke-width="2" stroke-miterlimit="10"/>
</svg>
