<svg width="40" height="40" viewBox="0 0 40 40" fill="none" xmlns="http://www.w3.org/2000/svg">
<g clip-path="url(#clip0)">
<path d="M26.0887 8.88897H13.8887C13.235 8.88604 12.5872 9.0119 11.9821 9.25936C11.3771 9.50682 10.8267 9.87103 10.3624 10.3312C9.89808 10.7914 9.52897 11.3385 9.27612 11.9413C9.02327 12.5441 8.89163 13.1908 8.88872 13.8445V26.1112C8.8858 26.7649 9.01166 27.4128 9.25912 28.0178C9.50657 28.6229 9.87078 29.1732 10.331 29.6375C10.7911 30.1018 11.3382 30.4709 11.941 30.7238C12.5439 30.9766 13.1906 31.1083 13.8443 31.1112H26.0887C26.7424 31.1171 27.3909 30.9941 27.9971 30.7493C28.6032 30.5046 29.1553 30.1428 29.6216 29.6847C30.088 29.2266 30.4595 28.6811 30.7151 28.0794C30.9706 27.4777 31.1051 26.8316 31.1109 26.1779V13.889C31.1139 13.2353 30.988 12.5874 30.7406 11.9824C30.4931 11.3773 30.1289 10.8269 29.6687 10.3626C29.2085 9.89833 28.6614 9.52922 28.0586 9.27637C27.4558 9.02352 26.8091 8.89188 26.1554 8.88897H26.0887ZM19.9998 26.9556C18.6312 26.9732 17.2882 26.584 16.141 25.8373C14.9938 25.0907 14.0942 24.0202 13.5562 22.7616C13.0182 21.503 12.8661 20.113 13.119 18.7678C13.372 17.4227 14.0187 16.1829 14.9771 15.2057C15.9356 14.2285 17.1626 13.558 18.5026 13.279C19.8426 13.0001 21.2353 13.1253 22.5041 13.6389C23.7728 14.1524 24.8605 15.0311 25.6293 16.1636C26.398 17.2961 26.8131 18.6314 26.8221 20.0001C26.8309 20.9048 26.6614 21.8023 26.3233 22.6415C25.9852 23.4806 25.4851 24.245 24.8516 24.8909C24.2181 25.5368 23.4635 26.0515 22.6311 26.4058C21.7986 26.7601 20.9045 26.9469 19.9998 26.9556ZM27.3776 14.4667C27.1471 14.4697 26.9182 14.4272 26.7041 14.3417C26.49 14.2561 26.2948 14.1293 26.1297 13.9683C25.9646 13.8074 25.8328 13.6154 25.7419 13.4036C25.651 13.1917 25.6027 12.964 25.5998 12.7334C25.5904 12.3828 25.6811 12.0369 25.8613 11.736C26.0415 11.4352 26.3037 11.1919 26.6173 11.0348C26.9308 10.8777 27.2826 10.8132 27.6315 10.8489C27.9803 10.8846 28.3118 11.0191 28.587 11.2365C28.8622 11.4539 29.0697 11.7452 29.1852 12.0763C29.3007 12.4075 29.3194 12.7646 29.2391 13.106C29.1588 13.4474 28.9828 13.7588 28.7319 14.0038C28.4809 14.2487 28.1653 14.417 27.8221 14.489C27.6897 14.5113 27.5545 14.5113 27.4221 14.489L27.3776 14.4667Z" fill="#3C1A5E"/>
<path d="M19.9991 15.8225C19.4368 15.8395 18.8835 15.9687 18.3717 16.2025C17.86 16.4364 17.4002 16.7701 17.0193 17.1841C16.6383 17.5982 16.344 18.0842 16.1536 18.6136C15.9631 19.143 15.8804 19.7051 15.9103 20.267C15.9668 21.077 16.2594 21.8527 16.7519 22.4982C17.2444 23.1438 17.9152 23.6309 18.6815 23.8995C19.4478 24.168 20.2759 24.2061 21.0637 24.0092C21.8514 23.8122 22.5642 23.3888 23.1139 22.7912C23.6637 22.1937 24.0263 21.4482 24.1571 20.6468C24.2878 19.8454 24.1809 19.0233 23.8496 18.282C23.5182 17.5407 22.977 16.9127 22.2927 16.4756C21.6084 16.0385 20.811 15.8115 19.9991 15.8225Z" fill="#3C1A5E"/>
<path d="M35.5556 0H4.44444C3.2657 0 2.13524 0.468253 1.30175 1.30175C0.468253 2.13524 0 3.2657 0 4.44444L0 35.5556C0 36.7343 0.468253 37.8648 1.30175 38.6983C2.13524 39.5317 3.2657 40 4.44444 40H35.5556C36.7343 40 37.8648 39.5317 38.6983 38.6983C39.5317 37.8648 40 36.7343 40 35.5556V4.44444C40 3.2657 39.5317 2.13524 38.6983 1.30175C37.8648 0.468253 36.7343 0 35.5556 0V0ZM33.8667 25.8222C33.8667 27.9578 33.0199 30.0062 31.5119 31.5184C30.0039 33.0305 27.9578 33.883 25.8222 33.8889H14.1556C12.0239 33.8771 9.98347 33.0221 8.48027 31.5106C6.97708 29.999 6.1333 27.954 6.13333 25.8222V14.1778C6.13333 12.0422 6.98015 9.99378 8.48814 8.48163C9.99613 6.96947 12.0422 6.11699 14.1778 6.11111H25.8222C27.9578 6.11699 30.0039 6.96947 31.5119 8.48163C33.0199 9.99378 33.8667 12.0422 33.8667 14.1778V25.8222Z" fill="#3C1A5E"/>
</g>
<defs>
<clipPath id="clip0">
<rect width="40" height="40" fill="white"/>
</clipPath>
</defs>
</svg>
