<svg width="102" height="102" viewBox="0 0 102 102" fill="none" xmlns="http://www.w3.org/2000/svg">
<path d="M70.125 63.75C87.7291 63.75 102 49.4791 102 31.875C102 14.2709 87.7291 0 70.125 0C52.5209 0 38.25 14.2709 38.25 31.875C38.25 49.4791 52.5209 63.75 70.125 63.75Z" fill="#FC7450"/>
<path d="M44.625 20.7188H55.7812C59.2875 20.7188 62.1562 23.5875 62.1562 27.0938V38.25L71.7188 60.5625V62.1562H62.1562V78.0938C62.1562 81.6 59.2875 84.4688 55.7812 84.4688H27.0938V100.406L11.1562 84.4688H7.96875C4.4625 84.4688 1.59375 81.6 1.59375 78.0938V27.0938C1.59375 23.5875 4.4625 20.7188 7.96875 20.7188H35.0625" stroke="#3C1A5E" stroke-width="2" stroke-miterlimit="10" stroke-linejoin="round"/>
<path d="M66.9375 71.7188H74.9062V87.6562L90.8438 71.7188H94.0312C97.5375 71.7188 100.406 68.85 100.406 65.3438V14.3438C100.406 10.8375 97.5375 7.96875 94.0312 7.96875H46.2188C42.7125 7.96875 39.8438 10.8375 39.8438 14.3438V28.6875L30.2812 51V52.5938H39.8438V65.3438C39.8438 68.85 42.7125 71.7188 46.2188 71.7188H57.375" stroke="#3C1A5E" stroke-width="2" stroke-miterlimit="10" stroke-linejoin="round"/>
<path d="M70.125 20.7188H92.4375" stroke="#3C1A5E" stroke-width="2" stroke-miterlimit="10" stroke-linejoin="round"/>
<path d="M70.125 27.0938H92.4375" stroke="#3C1A5E" stroke-width="2" stroke-miterlimit="10" stroke-linejoin="round"/>
<path d="M70.125 33.4688H86.0625" stroke="#3C1A5E" stroke-width="2" stroke-miterlimit="10" stroke-linejoin="round"/>
<path d="M9.5625 30.2812H28.6875" stroke="#3C1A5E" stroke-width="2" stroke-miterlimit="10" stroke-linejoin="round"/>
<path d="M9.5625 36.6562H28.6875" stroke="#3C1A5E" stroke-width="2" stroke-miterlimit="10" stroke-linejoin="round"/>
<path d="M9.5625 43.0312H22.3125" stroke="#3C1A5E" stroke-width="2" stroke-miterlimit="10" stroke-linejoin="round"/>
</svg>
