<svg width="40" height="40" viewBox="0 0 40 40" fill="none" xmlns="http://www.w3.org/2000/svg">
<g clip-path="url(#clip0)">
<path d="M35.5556 0H4.44444C3.2657 0 2.13524 0.468253 1.30175 1.30175C0.468253 2.13524 0 3.2657 0 4.44444L0 35.5556C0 36.7343 0.468253 37.8648 1.30175 38.6983C2.13524 39.5317 3.2657 40 4.44444 40H35.5556C36.7343 40 37.8648 39.5317 38.6983 38.6983C39.5317 37.8648 40 36.7343 40 35.5556V4.44444C40 3.2657 39.5317 2.13524 38.6983 1.30175C37.8648 0.468253 36.7343 0 35.5556 0V0ZM11.7111 34.4444H5.55556V15.8444H11.7111V34.4444ZM8.62222 12.3556H8.04445C7.07631 12.2809 6.17474 11.8341 5.52891 11.109C4.88308 10.3839 4.54319 9.43686 4.58056 8.46658C4.61794 7.49629 5.02967 6.57819 5.72936 5.90492C6.42906 5.23166 7.36233 4.85557 8.33333 4.85557C9.30434 4.85557 10.2376 5.23166 10.9373 5.90492C11.637 6.57819 12.0487 7.49629 12.0861 8.46658C12.1235 9.43686 11.7836 10.3839 11.1378 11.109C10.4919 11.8341 9.59035 12.2809 8.62222 12.3556ZM34.4444 34.4444H28.2444V23.4889C28.2659 23.3118 28.2659 23.1327 28.2444 22.9556C28.1737 22.1334 27.7793 21.373 27.1479 20.8416C26.5165 20.3103 25.6999 20.0515 24.8778 20.1222C24.0556 20.1929 23.2952 20.5874 22.7639 21.2188C22.2325 21.8501 21.9737 22.6667 22.0444 23.4889V34.4444H15.8444V15.8444H22.0444V18.3111C22.6111 17.4533 23.3747 16.7434 24.2716 16.2409C25.1684 15.7383 26.1725 15.4576 27.2 15.4222C29.1213 15.4222 30.964 16.1855 32.3226 17.5441C33.6812 18.9027 34.4444 20.7453 34.4444 22.6667V34.4444Z" fill="#3C1A5E"/>
</g>
<defs>
<clipPath id="clip0">
<rect width="40" height="40" fill="white"/>
</clipPath>
</defs>
</svg>
