<svg width="102" height="102" viewBox="0 0 102 102" fill="none" xmlns="http://www.w3.org/2000/svg">
<path d="M33.4688 66.9375C51.953 66.9375 66.9375 51.953 66.9375 33.4688C66.9375 14.9845 51.953 0 33.4688 0C14.9845 0 0 14.9845 0 33.4688C0 51.953 14.9845 66.9375 33.4688 66.9375Z" fill="#FC7450"/>
<path d="M35.0625 79.6875V14.3438H66.9375V79.6875" stroke="#3C1A5E" stroke-width="2" stroke-miterlimit="10"/>
<path d="M7.96875 78.0938H17.5312" stroke="#3C1A5E" stroke-width="2" stroke-miterlimit="10"/>
<path d="M20.7188 78.0938H30.2812" stroke="#3C1A5E" stroke-width="2" stroke-miterlimit="10"/>
<path d="M7.96875 71.7188H17.5312" stroke="#3C1A5E" stroke-width="2" stroke-miterlimit="10"/>
<path d="M20.7188 71.7188H30.2812" stroke="#3C1A5E" stroke-width="2" stroke-miterlimit="10"/>
<path d="M7.96875 65.3438H17.5312" stroke="#3C1A5E" stroke-width="2" stroke-miterlimit="10"/>
<path d="M20.7188 65.3438H30.2812" stroke="#3C1A5E" stroke-width="2" stroke-miterlimit="10"/>
<path d="M7.96875 58.9688H30.2812" stroke="#3C1A5E" stroke-width="2" stroke-miterlimit="10"/>
<path d="M7.96875 52.5938H17.5312" stroke="#3C1A5E" stroke-width="2" stroke-miterlimit="10"/>
<path d="M20.7188 52.5938H30.2812" stroke="#3C1A5E" stroke-width="2" stroke-miterlimit="10"/>
<path d="M71.7188 78.0938H81.2812" stroke="#3C1A5E" stroke-width="2" stroke-miterlimit="10"/>
<path d="M84.4688 78.0938H94.0312" stroke="#3C1A5E" stroke-width="2" stroke-miterlimit="10"/>
<path d="M71.7188 71.7188H81.2812" stroke="#3C1A5E" stroke-width="2" stroke-miterlimit="10"/>
<path d="M84.4688 71.7188H94.0312" stroke="#3C1A5E" stroke-width="2" stroke-miterlimit="10"/>
<path d="M71.7188 65.3438H94.0312" stroke="#3C1A5E" stroke-width="2" stroke-miterlimit="10"/>
<path d="M71.7188 58.9688H81.2812" stroke="#3C1A5E" stroke-width="2" stroke-miterlimit="10"/>
<path d="M84.4688 58.9688H94.0312" stroke="#3C1A5E" stroke-width="2" stroke-miterlimit="10"/>
<path d="M71.7188 52.5938H81.2812" stroke="#3C1A5E" stroke-width="2" stroke-miterlimit="10"/>
<path d="M84.4688 52.5938H94.0312" stroke="#3C1A5E" stroke-width="2" stroke-miterlimit="10"/>
<path d="M71.7188 46.2188H81.2812" stroke="#3C1A5E" stroke-width="2" stroke-miterlimit="10"/>
<path d="M84.4688 46.2188H94.0312" stroke="#3C1A5E" stroke-width="2" stroke-miterlimit="10"/>
<path d="M71.7188 39.8438H81.2812" stroke="#3C1A5E" stroke-width="2" stroke-miterlimit="10"/>
<path d="M84.4688 39.8438H94.0312" stroke="#3C1A5E" stroke-width="2" stroke-miterlimit="10"/>
<path d="M39.8438 78.0938H62.1562" stroke="#3C1A5E" stroke-width="2" stroke-miterlimit="10"/>
<path d="M39.8438 71.7188H49.4062" stroke="#3C1A5E" stroke-width="2" stroke-miterlimit="10"/>
<path d="M52.5938 71.7188H62.1562" stroke="#3C1A5E" stroke-width="2" stroke-miterlimit="10"/>
<path d="M39.8438 65.3438H49.4062" stroke="#3C1A5E" stroke-width="2" stroke-miterlimit="10"/>
<path d="M52.5938 65.3438H62.1562" stroke="#3C1A5E" stroke-width="2" stroke-miterlimit="10"/>
<path d="M39.8438 58.9688H49.4062" stroke="#3C1A5E" stroke-width="2" stroke-miterlimit="10"/>
<path d="M52.5938 58.9688H62.1562" stroke="#3C1A5E" stroke-width="2" stroke-miterlimit="10"/>
<path d="M39.8438 52.5938H49.4062" stroke="#3C1A5E" stroke-width="2" stroke-miterlimit="10"/>
<path d="M52.5938 52.5938H62.1562" stroke="#3C1A5E" stroke-width="2" stroke-miterlimit="10"/>
<path d="M39.8438 46.2188H62.1562" stroke="#3C1A5E" stroke-width="2" stroke-miterlimit="10"/>
<path d="M39.8438 39.8438H49.4062" stroke="#3C1A5E" stroke-width="2" stroke-miterlimit="10"/>
<path d="M52.5938 39.8438H62.1562" stroke="#3C1A5E" stroke-width="2" stroke-miterlimit="10"/>
<path d="M39.8438 33.4688H49.4062" stroke="#3C1A5E" stroke-width="2" stroke-miterlimit="10"/>
<path d="M52.5938 33.4688H62.1562" stroke="#3C1A5E" stroke-width="2" stroke-miterlimit="10"/>
<path d="M39.8438 27.0938H49.4062" stroke="#3C1A5E" stroke-width="2" stroke-miterlimit="10"/>
<path d="M52.5938 27.0938H62.1562" stroke="#3C1A5E" stroke-width="2" stroke-miterlimit="10"/>
<path d="M39.8438 20.7188H49.4062" stroke="#3C1A5E" stroke-width="2" stroke-miterlimit="10"/>
<path d="M52.5938 20.7188H62.1562" stroke="#3C1A5E" stroke-width="2" stroke-miterlimit="10"/>
<path d="M28.6875 39.8438H9.5625V46.2188H28.6875V39.8438Z" stroke="#3C1A5E" stroke-width="2" stroke-miterlimit="10"/>
<path d="M92.4375 27.0938H73.3125V33.4688H92.4375V27.0938Z" stroke="#3C1A5E" stroke-width="2" stroke-miterlimit="10"/>
<path d="M60.5625 7.96875H41.4375V14.3438H60.5625V7.96875Z" stroke="#3C1A5E" stroke-width="2" stroke-miterlimit="10"/>
<path d="M51 7.96875V0" stroke="#3C1A5E" stroke-width="2" stroke-miterlimit="10"/>
<path d="M9.5625 100.406H3.1875V46.2188H35.0625" stroke="#3C1A5E" stroke-width="2" stroke-miterlimit="10"/>
<path d="M66.9375 33.4688H98.8125V100.406H92.4375" stroke="#3C1A5E" stroke-width="2" stroke-miterlimit="10"/>
<path d="M92.4375 84.4688H9.5625V100.406H92.4375V84.4688Z" stroke="#3C1A5E" stroke-width="2" stroke-miterlimit="10"/>
<path d="M35.0625 89.25V100.406" stroke="#3C1A5E" stroke-width="2" stroke-miterlimit="10"/>
<path d="M66.9375 89.25V100.406" stroke="#3C1A5E" stroke-width="2" stroke-miterlimit="10"/>
<path d="M9.5625 94.0312H92.4375" stroke="#3C1A5E" stroke-width="2" stroke-miterlimit="10"/>
</svg>
