<svg width="128" height="128" viewBox="0 0 128 128" fill="none" xmlns="http://www.w3.org/2000/svg">
<path d="M64 109C89.4051 109 110 88.629 110 63.5C110 38.371 89.4051 18 64 18C38.5949 18 18 38.371 18 63.5C18 88.629 38.5949 109 64 109Z" fill="#B4F0E0"/>
<path d="M62.2811 88H20.7189C16.259 87.9247 12.0072 86.1011 8.87985 82.922C5.75251 79.743 4 75.4632 4 71.0049C4 66.5465 5.75251 62.2667 8.87985 59.0877C12.0072 55.9086 16.259 54.085 20.7189 54.0097H41.4782V57.7853H20.7189C17.2117 57.7853 13.8482 59.1778 11.3683 61.6565C8.8884 64.1352 7.49519 67.497 7.49519 71.0024C7.49519 74.5078 8.8884 77.8696 11.3683 80.3483C13.8482 82.827 17.2117 84.2195 20.7189 84.2195H62.2811C65.7883 84.2195 69.1518 82.827 71.6317 80.3483C74.1116 77.8696 75.5048 74.5078 75.5048 71.0024C75.5048 67.497 74.1116 64.1352 71.6317 61.6565C69.1518 59.1778 65.7883 57.7853 62.2811 57.7853H56.6124V54H62.2811C66.741 54.0753 70.9928 55.8989 74.1201 59.078C77.2475 62.257 79 66.5368 79 70.9952C79 75.4535 77.2475 79.7333 74.1201 82.9123C70.9928 86.0914 66.741 87.915 62.2811 87.9903V88Z" fill="#3C1A5E"/>
<path d="M107.281 73H86.4976V69.2233H107.281C110.788 69.2233 114.152 67.8304 116.632 65.351C119.112 62.8716 120.505 59.5088 120.505 56.0024C120.505 52.496 119.112 49.1332 116.632 46.6539C114.152 44.1745 110.788 42.7815 107.281 42.7815H65.7189C62.2117 42.7815 58.8482 44.1745 56.3683 46.6539C53.8884 49.1332 52.4952 52.496 52.4952 56.0024C52.4952 59.5088 53.8884 62.8716 56.3683 65.351C58.8482 67.8304 62.2117 69.2233 65.7189 69.2233H71.3876V73H65.7189C61.259 72.9247 57.0072 71.1005 53.8799 67.9206C50.7525 64.7407 49 60.4596 49 56C49 51.5404 50.7525 47.2593 53.8799 44.0794C57.0072 40.8995 61.259 39.0753 65.7189 39H107.281C111.741 39.0753 115.993 40.8995 119.12 44.0794C122.247 47.2593 124 51.5404 124 56C124 60.4596 122.247 64.7407 119.12 67.9206C115.993 71.1005 111.741 72.9247 107.281 73Z" fill="#3C1A5E"/>
<path d="M49 39H45V42H49V39Z" fill="#3C1A5E"/>
<path d="M42 39H38V42H42V39Z" fill="#3C1A5E"/>
<path d="M90 85H86V88H90V85Z" fill="#3C1A5E"/>
<path d="M83 85H79V88H83V85Z" fill="#3C1A5E"/>
<path d="M92.4576 79L84 70.4977L92.4576 62L95 64.5498L89.0801 70.4977L95 76.4456L92.4576 79Z" fill="#3C1A5E"/>
<path d="M35.5424 65L33 62.4502L38.9199 56.5023L33 50.5544L35.5424 48L44 56.5023L35.5424 65Z" fill="#3C1A5E"/>
</svg>
