<svg width="151" height="151" viewBox="0 0 151 151" fill="none" xmlns="http://www.w3.org/2000/svg">
<path d="M115.521 22.4141H34.3118L17.6953 50.1759L74.9163 129.766L132.125 50.1759L115.521 22.4141Z" fill="white"/>
<path d="M115.521 22.4141H34.3118L17.6953 50.1759L74.9163 129.766L132.125 50.1759L115.521 22.4141Z" fill="white"/>
<path d="M125.047 50.7266H24.7734L37.7734 28.3125H112.047L125.047 50.7266Z" fill="#B4F0E0"/>
<path d="M125.047 50.7266H24.7734L74.9102 121.508L125.047 50.7266Z" fill="#B4F0E0"/>
<path d="M74.4364 132.125C74.1436 132.125 73.8549 132.056 73.5934 131.922C73.3319 131.789 73.105 131.596 72.9309 131.358L15.6842 51.1207C15.4732 50.822 15.3528 50.4677 15.3376 50.101C15.3224 49.7343 15.413 49.371 15.5985 49.0554L32.2083 21.143C32.5776 20.5841 33.1488 20.1935 33.7995 20.0547H85.7217V23.9503H34.8399L19.3562 49.9335L74.3385 127.017L100.765 89.9162L103.812 92.1423L75.8807 131.296C75.7186 131.537 75.5041 131.736 75.2538 131.88C75.0034 132.024 74.7238 132.107 74.4364 132.125Z" fill="#3C1A5E"/>
<path d="M115.981 80.2188L112.833 77.91L131.443 51.4034L115.41 23.9483H104.992V20.0547H116.492C116.825 20.054 117.152 20.1421 117.442 20.3106C117.732 20.4791 117.974 20.722 118.145 21.0156L135.382 50.5174C135.58 50.8513 135.678 51.238 135.663 51.6288C135.647 52.0195 135.52 52.397 135.297 52.7138L115.981 80.2188Z" fill="#3C1A5E"/>
<path d="M133.305 48.3672H83.7578V53.0859H133.305V48.3672Z" fill="#3C1A5E"/>
<path d="M66.0625 48.3672H17.6953V53.0859H66.0625V48.3672Z" fill="#3C1A5E"/>
<path d="M114.093 21.4442L93.6743 49.3015L96.6746 51.5006L117.093 23.6433L114.093 21.4442Z" fill="#3C1A5E"/>
<path d="M76.2607 21.4678L73.2607 23.6675L93.684 51.5212L96.6839 49.3216L76.2607 21.4678Z" fill="#3C1A5E"/>
<path d="M73.2055 20.7243L52.8264 48.7018L55.8332 50.892L76.2124 22.9145L73.2055 20.7243Z" fill="#3C1A5E"/>
<path d="M35.4128 21.465L32.4128 23.6647L52.8361 51.5184L55.836 49.3188L35.4128 21.465Z" fill="#3C1A5E"/>
<path d="M56.1486 49.9486L52.5447 50.8706L72.9685 130.705L76.5724 129.783L56.1486 49.9486Z" fill="#3C1A5E"/>
<path d="M93.3918 49.9576L72.9541 129.789L76.5578 130.711L96.9956 50.8802L93.3918 49.9576Z" fill="#3C1A5E"/>
<path d="M96.7344 17.6953H93.1953V28.3125H96.7344V17.6953Z" fill="#3C1A5E"/>
<path d="M100.273 20.0547H89.6562V24.7734H100.273V20.0547Z" fill="#3C1A5E"/>
<path d="M76.6797 44.8281H73.1406V55.4453H76.6797V44.8281Z" fill="#3C1A5E"/>
<path d="M80.2188 48.3672H69.6016V53.0859H80.2188V48.3672Z" fill="#3C1A5E"/>
<path d="M46.0078 101.453H41.2891V112.07H46.0078V101.453Z" fill="#3C1A5E"/>
<path d="M48.3672 103.812H37.75V107.352H48.3672V103.812Z" fill="#3C1A5E"/>
<path d="M112.07 80.2188H108.531V90.8359H112.07V80.2188Z" fill="#3C1A5E"/>
<path d="M115.609 83.7578H104.992V87.2969H115.609V83.7578Z" fill="#3C1A5E"/>
</svg>
