<svg width="151" height="151" viewBox="0 0 151 151" fill="none" xmlns="http://www.w3.org/2000/svg">
<path d="M75.3467 20.8922C65.3521 20.8829 55.5792 23.838 47.2643 29.3836C38.9494 34.9293 32.466 42.8164 28.6342 52.0473C24.8024 61.2782 23.7944 71.4382 25.7377 81.2421C27.681 91.046 32.4882 100.053 39.5513 107.125C46.6145 114.196 55.6161 119.014 65.4177 120.968C75.2193 122.923 85.3805 121.927 94.6159 118.106C103.851 114.285 111.746 107.811 117.301 99.5025C122.857 91.194 125.823 81.4246 125.825 71.43C125.827 64.798 124.522 58.2305 121.986 52.1027C119.449 45.9749 115.73 40.4067 111.042 35.716C106.354 31.0253 100.787 27.304 94.6604 24.7646C88.5338 22.2252 81.9669 20.9174 75.3349 20.9158L75.3467 20.8922ZM75.5 113.486C67.1708 113.493 59.0267 111.029 52.098 106.407C45.1692 101.784 39.7673 95.2102 36.5755 87.5168C33.3838 79.8234 32.5456 71.3562 34.1671 63.1863C35.7887 55.0165 39.797 47.5112 45.6849 41.6199C51.5729 35.7286 59.076 31.7161 67.2449 30.09C75.4139 28.4639 83.8816 29.2973 91.5768 32.4847C99.272 35.6722 105.849 41.0704 110.475 47.9966C115.102 54.9227 117.57 63.0654 117.568 71.3947C117.568 76.9222 116.479 82.3955 114.364 87.5023C112.248 92.609 109.148 97.2491 105.239 101.158C101.331 105.066 96.6908 108.167 91.5841 110.282C86.4773 112.397 81.0039 113.486 75.4764 113.486H75.5Z" fill="#B4F0E0"/>
<path d="M75.3465 115.61C66.6055 115.603 58.0628 113.004 50.7983 108.143C43.5339 103.281 37.8738 96.3755 34.5336 88.2978C31.1934 80.2202 30.3231 71.3336 32.0326 62.7614C33.7422 54.1892 37.9549 46.3163 44.1382 40.138C50.3215 33.9596 58.1978 29.7532 66.7713 28.0505C75.3449 26.3478 84.2308 27.2252 92.3057 30.5719C100.381 33.9185 107.282 39.5841 112.138 46.8525C116.993 54.1209 119.585 62.6656 119.585 71.4066C119.585 77.2144 118.44 82.9653 116.217 88.3305C113.993 93.6958 110.734 98.5702 106.626 102.675C102.517 106.78 97.6401 110.036 92.2731 112.255C86.906 114.474 81.1543 115.614 75.3465 115.61ZM75.3465 31.4152C67.4369 31.4152 59.705 33.7607 53.1284 38.155C46.5519 42.5493 41.4261 48.7951 38.3992 56.1026C35.3724 63.4101 34.5804 71.451 36.1235 79.2086C37.6666 86.9661 41.4754 94.0919 47.0683 99.6848C52.6612 105.278 59.787 109.087 67.5445 110.63C75.3021 112.173 83.343 111.381 90.6505 108.354C97.958 105.327 104.204 100.201 108.598 93.6247C112.992 87.0481 115.338 79.3162 115.338 71.4066C115.307 60.8098 111.083 50.6559 103.59 43.1628C96.0972 35.6697 85.9433 31.4463 75.3465 31.4152Z" fill="#3C1A5E"/>
<path d="M75.3468 124.021C64.9407 124.021 54.7683 120.935 46.1159 115.154C37.4636 109.372 30.7199 101.155 26.7377 91.5411C22.7555 81.9271 21.7135 71.3482 23.7437 61.1421C25.7738 50.9359 30.7848 41.561 38.143 34.2028C45.5012 26.8446 54.8761 21.8336 65.0823 19.8035C75.2884 17.7733 85.8673 18.8153 95.4813 22.7975C105.095 26.7797 113.312 33.5234 119.094 42.1758C124.875 50.8281 127.961 61.0005 127.961 71.4066C127.945 85.3559 122.397 98.7294 112.533 108.593C102.67 118.457 89.2961 124.005 75.3468 124.021ZM75.5001 23.004C65.934 23.004 56.5827 25.8407 48.6287 31.1553C40.6748 36.47 34.4754 44.0239 30.8147 52.8619C27.1539 61.6998 26.196 71.4248 28.0623 80.8071C29.9285 90.1895 34.5351 98.8077 41.2993 105.572C48.0636 112.336 56.6818 116.943 66.0641 118.809C75.4464 120.675 85.1715 119.717 94.0094 116.057C102.847 112.396 110.401 106.196 115.716 98.2426C121.031 90.2886 123.867 80.9373 123.867 71.3712C123.867 58.5434 118.771 46.241 109.701 37.1704C100.63 28.0998 88.3279 23.004 75.5001 23.004Z" fill="#3C1A5E"/>
<path d="M133.93 69.6251H117.391V74.0372H133.93V69.6251Z" fill="#3C1A5E"/>
<path d="M110.773 69.6251H39.1184V74.0372H110.773V69.6251Z" fill="#3C1A5E"/>
<path d="M32.5121 69.6251H18.179V74.0372H32.5121V69.6251Z" fill="#3C1A5E"/>
<path d="M77.706 35.4615H73.2939V70.7342H77.706V35.4615Z" fill="#3C1A5E"/>
<path d="M77.706 14.5106H73.2939V28.8438H77.706V14.5106Z" fill="#3C1A5E"/>
<path d="M34.7355 27.8188L31.7576 30.7968L44.3868 43.426L47.3648 40.448L34.7355 27.8188Z" fill="#3C1A5E"/>
<path d="M51.5837 44.6634L48.6057 47.6414L99.1144 98.15L102.092 95.1721L51.5837 44.6634Z" fill="#3C1A5E"/>
<path d="M106.291 99.3788L103.313 102.357L115.951 114.994L118.929 112.016L106.291 99.3788Z" fill="#3C1A5E"/>
<path d="M115.959 27.8269L103.33 40.4562L106.308 43.4341L118.937 30.8049L115.959 27.8269Z" fill="#3C1A5E"/>
<path d="M99.1027 44.6633L48.5857 95.1803L51.5637 98.1583L102.081 47.6412L99.1027 44.6633Z" fill="#3C1A5E"/>
<path d="M74.9456 59.1966C71.5966 59.1904 68.3816 60.5115 66.0047 62.8707C63.6278 65.2299 62.2826 68.435 62.2639 71.7839V141.232H87.6272V71.7839C87.6272 68.4362 86.2973 65.2256 83.9301 62.8583C81.5629 60.4911 78.3523 59.1613 75.0045 59.1613L74.9456 59.1966Z" fill="#E6E6E6"/>
<path d="M44.3788 99.3909L31.7495 112.02L34.7275 114.998L47.3567 102.369L44.3788 99.3909Z" fill="#3C1A5E"/>
<path d="M73.0109 65.8148C71.7948 66.2466 70.7436 67.0467 70.0035 68.104C69.2635 69.1612 68.8715 70.4228 68.882 71.7133V141.244H80.9974V71.784C81.0295 70.1769 80.4295 68.6213 79.3264 67.452C78.2233 66.2828 76.7053 65.5932 75.099 65.5317C74.392 65.5073 73.6859 65.603 73.0109 65.8148Z" fill="white"/>
<path d="M142.742 139.074H8.25781V143.486H142.742V139.074Z" fill="#3C1A5E"/>
<path d="M75.3467 16.6808C77.6727 16.6808 79.5582 14.7952 79.5582 12.4693C79.5582 10.1434 77.6727 8.25781 75.3467 8.25781C73.0208 8.25781 71.1353 10.1434 71.1353 12.4693C71.1353 14.7952 73.0208 16.6808 75.3467 16.6808Z" fill="#3C1A5E"/>
<path d="M16.4095 75.6179C18.7354 75.6179 20.621 73.7324 20.621 71.4064C20.621 69.0805 18.7354 67.1949 16.4095 67.1949C14.0835 67.1949 12.198 69.0805 12.198 71.4064C12.198 73.7324 14.0835 75.6179 16.4095 75.6179Z" fill="#3C1A5E"/>
<path d="M134.272 75.6179C136.598 75.6179 138.484 73.7324 138.484 71.4064C138.484 69.0805 136.598 67.1949 134.272 67.1949C131.946 67.1949 130.061 69.0805 130.061 71.4064C130.061 73.7324 131.946 75.6179 134.272 75.6179Z" fill="#3C1A5E"/>
<path d="M117.438 117.709C119.764 117.709 121.649 115.824 121.649 113.498C121.649 111.172 119.764 109.286 117.438 109.286C115.112 109.286 113.226 111.172 113.226 113.498C113.226 115.824 115.112 117.709 117.438 117.709Z" fill="#3C1A5E"/>
<path d="M33.2435 117.709C35.5694 117.709 37.455 115.824 37.455 113.498C37.455 111.172 35.5694 109.286 33.2435 109.286C30.9175 109.286 29.032 111.172 29.032 113.498C29.032 115.824 30.9175 117.709 33.2435 117.709Z" fill="#3C1A5E"/>
<path d="M117.438 33.5271C119.764 33.5271 121.649 31.6416 121.649 29.3156C121.649 26.9897 119.764 25.1041 117.438 25.1041C115.112 25.1041 113.226 26.9897 113.226 29.3156C113.226 31.6416 115.112 33.5271 117.438 33.5271Z" fill="#3C1A5E"/>
<path d="M33.2435 33.5271C35.5694 33.5271 37.455 31.6416 37.455 29.3156C37.455 26.9897 35.5694 25.1041 33.2435 25.1041C30.9175 25.1041 29.032 26.9897 29.032 29.3156C29.032 31.6416 30.9175 33.5271 33.2435 33.5271Z" fill="#3C1A5E"/>
<path d="M77.706 125.849H73.2939V130.261H77.706V125.849Z" fill="#3C1A5E"/>
<path d="M77.706 118.134H73.2939V122.546H77.706V118.134Z" fill="#3C1A5E"/>
<path d="M77.706 109.31H73.2939V113.722H77.706V109.31Z" fill="#3C1A5E"/>
<path d="M89.7271 71.7841H85.5156C85.4969 68.9805 84.37 66.2981 82.381 64.3223C80.3919 62.3465 77.702 61.2376 74.8984 61.2376C72.119 61.2564 69.4607 62.3776 67.5075 64.3552C65.5543 66.3327 64.4661 69.0046 64.4818 71.7841H60.2703C60.2703 67.8732 61.8239 64.1224 64.5893 61.357C67.3547 58.5916 71.1055 57.038 75.0164 57.038C78.9273 57.038 82.678 58.5916 85.4434 61.357C88.2089 64.1224 89.7625 67.8732 89.7625 71.7841H89.7271Z" fill="#3C1A5E"/>
<path d="M64.4816 71.8314H60.0696V141.28H64.4816V71.8314Z" fill="#3C1A5E"/>
<path d="M89.8332 71.8314H85.4211V141.28H89.8332V71.8314Z" fill="#3C1A5E"/>
</svg>
