<svg width="151" height="151" viewBox="0 0 151 151" fill="none" xmlns="http://www.w3.org/2000/svg">
<path d="M127.774 35.3906H22.0458C20.892 35.3906 19.7854 35.8523 18.9695 36.674C18.1537 37.4957 17.6953 38.6102 17.6953 39.7723V119.891H60.015L64.3656 123.867H86.3357L90.6862 119.891H132.125V39.8161C132.125 38.654 131.667 37.5395 130.851 36.7178C130.035 35.8961 128.928 35.4344 127.774 35.4344V35.3906Z" fill="#3C1A5E"/>
<path d="M140.714 128.586H9.10674L4.71875 124.452V120.328H59.9769L64.3757 123.997H86.3701L90.769 120.328H145.102V124.452L140.714 128.586Z" fill="#A8A7A5"/>
<path d="M128.586 40.1094H22.4141V115.609H128.586V40.1094Z" fill="white"/>
<path d="M123.867 110.891H25.9531V97.9168L50.4344 74.1259L63.7808 87.0998L86.0395 65.4767L99.3859 78.4506L119.411 58.9844H123.867V110.891Z" fill="#B4F0E0"/>
<path d="M146.281 38.9297H141.489V27.578H130.945V22.4141H146.281V38.9297Z" fill="#FC7450"/>
<path d="M112.07 23.5938H108.531V28.3125H112.07V23.5938Z" fill="#FC7450"/>
<path d="M121.508 23.5938H117.969V28.3125H121.508V23.5938Z" fill="#FC7450"/>
<path d="M30.2196 89.6562L27.1328 86.5302L51.6537 61.7841L64.7806 75.0316L86.6587 52.9524L99.7965 66.1999L142.004 23.5938L145.102 26.7198L99.7965 72.4411L86.6587 59.1936L64.7806 81.2837L51.6537 68.0253L30.2196 89.6562Z" fill="#FC7450"/>
</svg>
