<svg width="151" height="136" viewBox="0 0 151 136" fill="none" xmlns="http://www.w3.org/2000/svg">
<path d="M79.3457 9.49548H71.7131V20.8795H79.3457V9.49548Z" fill="#3C1A5E"/>
<path d="M75.4174 124.876C111.043 124.876 139.923 116.803 139.923 106.845C139.923 96.8871 111.043 88.8145 75.4174 88.8145C39.7921 88.8145 10.9121 96.8871 10.9121 106.845C10.9121 116.803 39.7921 124.876 75.4174 124.876Z" fill="#FC7450"/>
<path d="M48.8037 34.5426H10.6172V37.961H48.8037V34.5426Z" fill="#3C1A5E"/>
<path d="M42.5748 45.0191L39.72 42.4659L46.3616 36.5365L39.72 30.5966L42.5748 28.0433L52.0595 36.5365L42.5748 45.0191Z" fill="#3C1A5E"/>
<path d="M140.442 34.5426H102.255V37.961H140.442V34.5426Z" fill="#3C1A5E"/>
<path d="M108.26 45.0191L98.7751 36.5365L108.26 28.0433L111.115 30.5966L104.473 36.5365L111.115 42.4659L108.26 45.0191Z" fill="#3C1A5E"/>
<path d="M75.4173 49.1446C84.3237 49.1446 91.5437 42.6874 91.5437 34.722C91.5437 26.7566 84.3237 20.2994 75.4173 20.2994C66.511 20.2994 59.291 26.7566 59.291 34.722C59.291 42.6874 66.511 49.1446 75.4173 49.1446Z" fill="#B4F0E0"/>
<path d="M116.258 107.394H112.436V89.7848L91.6499 50.5052L95.071 48.891L116.258 88.9302V107.394Z" fill="#3C1A5E"/>
<path d="M111.917 104.039L75.4172 38.7519L38.9177 104.039L35.3079 102.424L75.4172 30.6913L115.527 102.424L111.917 104.039Z" fill="#3C1A5E"/>
<path d="M38.6112 107.394H34.8008V88.9302L55.988 48.891L59.4091 50.5052L38.6112 89.7848V107.394Z" fill="#3C1A5E"/>
<path d="M75.4173 50.9482C71.8288 50.9482 68.3209 49.9965 65.3372 48.2135C62.3535 46.4305 60.028 43.8962 58.6548 40.9311C57.2815 37.9661 56.9222 34.7035 57.6223 31.5558C58.3224 28.4081 60.0504 25.5168 62.5878 23.2474C65.1253 20.9781 68.3581 19.4327 71.8777 18.8065C75.3972 18.1804 79.0452 18.5018 82.3605 19.7299C85.6759 20.9581 88.5095 23.0379 90.5031 25.7064C92.4968 28.3749 93.5609 31.5121 93.5609 34.7215C93.5624 36.8528 93.0942 38.9635 92.183 40.9328C91.2717 42.9021 89.9353 44.6915 88.2502 46.1986C86.5651 47.7056 84.5644 48.9008 82.3624 49.7158C80.1604 50.5308 77.8004 50.9496 75.4173 50.9482ZM75.4173 22.103C72.6175 22.103 69.8805 22.8456 67.5525 24.2367C65.2245 25.6279 63.4101 27.6052 62.3386 29.9187C61.2672 32.2321 60.9868 34.7777 61.5331 37.2336C62.0793 39.6896 63.4275 41.9455 65.4073 43.7161C67.3871 45.4867 69.9095 46.6925 72.6555 47.181C75.4016 47.6695 78.2479 47.4188 80.8347 46.4606C83.4214 45.5023 85.6323 43.8796 87.1878 41.7975C88.7433 39.7155 89.5735 37.2677 89.5735 34.7637C89.5579 31.415 88.0596 28.2083 85.4065 25.8453C82.7534 23.4824 79.1616 22.1558 75.4173 22.1558V22.103Z" fill="#3C1A5E"/>
<path d="M76.8093 105.115H72.9871V108.533H76.8093V105.115Z" fill="#3C1A5E"/>
<path d="M69.165 105.115H65.3428V108.533H69.165V105.115Z" fill="#3C1A5E"/>
<path d="M61.5324 105.115H57.7102V108.533H61.5324V105.115Z" fill="#3C1A5E"/>
<path d="M85.716 105.115H81.8938V108.533H85.716V105.115Z" fill="#3C1A5E"/>
<path d="M93.3486 105.115H89.5264V108.533H93.3486V105.115Z" fill="#3C1A5E"/>
<path d="M76.8093 98.2888H72.9871V101.707H76.8093V98.2888Z" fill="#3C1A5E"/>
<path d="M76.8093 111.941H72.9871V115.36H76.8093V111.941Z" fill="#3C1A5E"/>
<path d="M75.4173 74.3916C77.6455 74.3916 79.4519 72.7761 79.4519 70.7833C79.4519 68.7905 77.6455 67.175 75.4173 67.175C73.1891 67.175 71.3828 68.7905 71.3828 70.7833C71.3828 72.7761 73.1891 74.3916 75.4173 74.3916Z" fill="white"/>
<path d="M78.0834 75.837C76.8778 76.2607 75.5522 76.328 74.3008 76.0291C73.0494 75.7301 71.9379 75.0806 71.1291 74.1757C70.3204 73.2708 69.8569 72.158 69.8066 71.0004C69.7563 69.8429 70.1218 68.7013 70.8495 67.743C71.5773 66.7846 72.629 66.0599 73.8507 65.675C75.0724 65.29 76.3999 65.2651 77.6386 65.6038C78.8773 65.9426 79.9621 66.6271 80.7342 67.5573C81.5063 68.4875 81.9251 69.6143 81.9292 70.7728C81.9446 71.8674 81.5841 72.9399 80.8964 73.8456C80.2087 74.7512 79.2268 75.4463 78.0834 75.837ZM74.8156 68.9897C74.4167 68.9897 74.0266 69.0955 73.6949 69.2938C73.3632 69.492 73.1046 69.7738 72.9519 70.1034C72.7993 70.4331 72.7593 70.7959 72.8371 71.1458C72.915 71.4958 73.1071 71.8173 73.3892 72.0696C73.6713 72.3219 74.0308 72.4937 74.4221 72.5633C74.8134 72.633 75.219 72.5972 75.5876 72.4607C75.9562 72.3241 76.2713 72.0929 76.4929 71.7962C76.7146 71.4995 76.8329 71.1507 76.8329 70.7939C76.8346 70.5538 76.7823 70.316 76.6793 70.0943C76.5763 69.8727 76.4246 69.6718 76.2332 69.5036C76.0418 69.3353 75.8145 69.2032 75.565 69.1149C75.3154 69.0266 75.0486 68.9841 74.7803 68.9897H74.8156Z" fill="#3C1A5E"/>
<path d="M65.3428 68.684H55.1621V72.1023H65.3428V68.684Z" fill="#3C1A5E"/>
<path d="M95.8968 68.684H85.7161V72.1023H95.8968V68.684Z" fill="#3C1A5E"/>
</svg>
