<svg width="128" height="128" viewBox="0 0 128 128" fill="none" xmlns="http://www.w3.org/2000/svg">
<path d="M99 51H45V110H99V51Z" fill="#FC7450"/>
<path d="M72 78C76.4183 78 80 74.4183 80 70C80 65.5817 76.4183 62 72 62C67.5817 62 64 65.5817 64 70C64 74.4183 67.5817 78 72 78Z" fill="white"/>
<path d="M76 78L80 95.1V97H64V95.1L68 78H76Z" fill="white"/>
<path d="M106 52.6667H113.5L117.25 57H121V44H106V52.6667Z" fill="#E6E6E6"/>
<path d="M125 43.9988V36.0012H38.4158V28.0037C38.4169 26.419 38.0471 24.8568 37.3371 23.4458C36.6271 22.0349 35.5971 20.8157 34.3321 19.8887C33.0671 18.9618 31.6033 18.3536 30.0616 18.1145C28.5198 17.8753 26.9441 18.012 25.4645 18.5133C23.9849 19.0145 22.6438 19.866 21.5518 20.9974C20.4598 22.1288 19.6481 23.5078 19.1838 25.0206C18.7194 26.5334 18.6157 28.1367 18.8811 29.6983C19.1466 31.2598 19.7736 32.7349 20.7104 34.0018C19.4714 32.3233 17.7439 31.0834 15.7728 30.4578C13.8017 29.8322 11.6868 29.8526 9.72771 30.5161C7.76863 31.1796 6.06467 32.4526 4.85721 34.1547C3.64975 35.8568 3 37.9018 3 40C3 42.0982 3.64975 44.1432 4.85721 45.8453C6.06467 47.5474 7.76863 48.8204 9.72771 49.4839C11.6868 50.1474 13.8017 50.1678 15.7728 49.5422C17.7439 48.9166 19.4714 47.6767 20.7104 45.9982C19.7736 47.2651 19.1466 48.7402 18.8811 50.3017C18.6157 51.8633 18.7194 53.4666 19.1838 54.9794C19.6481 56.4922 20.4598 57.8712 21.5518 59.0026C22.6438 60.134 23.9849 60.9855 25.4645 61.4867C26.9441 61.988 28.5198 62.1247 30.0616 61.8855C31.6033 61.6464 33.0671 61.0382 34.3321 60.1113C35.5971 59.1843 36.6271 57.9651 37.3371 56.5542C38.0471 55.1432 38.4169 53.581 38.4158 51.9963V43.9988H125Z" fill="#E6E6E6"/>
<path d="M29.1382 65C26.0563 64.9973 23.1013 63.7386 20.9221 61.5003C18.7428 59.262 17.5174 56.2269 17.5148 53.0614C17.5148 52.8341 17.5148 52.6069 17.5148 52.3847C15.9183 52.9661 14.2175 53.1824 12.5312 53.0182C10.845 52.8541 9.21395 52.3135 7.75229 51.4344C6.29063 50.5552 5.03361 49.3587 4.06914 47.9285C3.10467 46.4983 2.45605 44.869 2.16863 43.1545C1.88121 41.4399 1.96194 39.6816 2.40518 38.0025C2.84841 36.3233 3.64344 34.7639 4.73467 33.4333C5.8259 32.1027 7.18697 31.033 8.72269 30.299C10.2584 29.5651 11.9317 29.1846 13.6255 29.1841C14.9513 29.1857 16.2669 29.4214 17.5148 29.8811C17.5148 29.6488 17.5148 29.4165 17.5148 29.1841C17.483 27.596 17.76 26.0173 18.3298 24.5406C18.8995 23.0638 19.7504 21.7187 20.8326 20.584C21.9149 19.4493 23.2067 18.5478 24.6325 17.9324C26.0582 17.317 27.5892 17 29.1357 17C30.6823 17 32.2132 17.317 33.639 17.9324C35.0647 18.5478 36.3566 19.4493 37.4388 20.584C38.5211 21.7187 39.372 23.0638 39.9417 24.5406C40.5114 26.0173 40.7885 27.596 40.7567 29.1841V35.1535H126V47.0921H122.126V59.0307H115.512L111.638 55.0512H102.753V43.1125H122.126V39.133H36.8871V29.1841C36.9132 28.1224 36.7321 27.0661 36.3545 26.0773C35.9769 25.0886 35.4105 24.1875 34.6886 23.4271C33.9667 22.6667 33.1039 22.0624 32.1511 21.6498C31.1983 21.2372 30.1747 21.0246 29.1406 21.0246C28.1066 21.0246 27.083 21.2372 26.1302 21.6498C25.1774 22.0624 24.3146 22.6667 23.5927 23.4271C22.8708 24.1875 22.3044 25.0886 21.9268 26.0773C21.5492 27.0661 21.3681 28.1224 21.3942 29.1841C21.3874 30.9055 21.9296 32.5817 22.938 33.9566L19.8454 36.3503C18.87 35.0132 17.5096 34.0253 15.9571 33.5266C14.4046 33.0278 12.7386 33.0435 11.1953 33.5715C9.65197 34.0995 8.30955 35.1129 7.35825 36.4682C6.40696 37.8235 5.89504 39.452 5.89504 41.1228C5.89504 42.7936 6.40696 44.422 7.35825 45.7773C8.30955 47.1326 9.65197 48.146 11.1953 48.674C12.7386 49.202 14.4046 49.2177 15.9571 48.719C17.5096 48.2202 18.87 47.2323 19.8454 45.8952L22.938 48.289C21.9296 49.6638 21.3874 51.3401 21.3942 53.0614C21.3681 54.1231 21.5492 55.1795 21.9268 56.1682C22.3044 57.1569 22.8708 58.058 23.5927 58.8184C24.3146 59.5788 25.1774 60.1831 26.1302 60.5958C27.083 61.0084 28.1066 61.2209 29.1406 61.2209C30.1747 61.2209 31.1983 61.0084 32.1511 60.5958C33.1039 60.1831 33.9667 59.5788 34.6886 58.8184C35.4105 58.058 35.9769 57.1569 36.3545 56.1682C36.7321 55.1795 36.9132 54.1231 36.8871 53.0614V43.1125H98.8787V47.0921H40.7616V53.0614C40.759 56.2269 39.5336 59.262 37.3543 61.5003C35.1751 63.7386 32.2201 64.9973 29.1382 65ZM117.11 55.0512H118.246V47.0921H106.628V51.0716H113.241L117.11 55.0512Z" fill="#3C1A5E"/>
<path d="M13.5 44C12.6097 44 11.7395 43.7653 10.9993 43.3255C10.2592 42.8858 9.68242 42.2608 9.342 41.5296C9.00157 40.7984 8.91279 39.9938 9.08689 39.2178C9.26098 38.4417 9.69013 37.729 10.32 37.1698C10.9499 36.6106 11.7523 36.23 12.6256 36.0762C13.4989 35.9225 14.4039 36.0024 15.226 36.3059C16.0482 36.6095 16.7506 37.123 17.2444 37.7814C17.7382 38.4399 18.0011 39.2137 18 40.0051C17.9985 41.0651 17.5237 42.0812 16.68 42.8302C15.8362 43.5793 14.6925 44 13.5 44Z" fill="#3C1A5E"/>
<path d="M29.5 57C28.8078 57 28.1311 56.7654 27.5555 56.3259C26.9799 55.8864 26.5313 55.2616 26.2664 54.5307C26.0015 53.7998 25.9322 52.9956 26.0673 52.2196C26.2023 51.4437 26.5356 50.731 27.0251 50.1716C27.5146 49.6122 28.1382 49.2312 28.8172 49.0769C29.4961 48.9225 30.1999 49.0017 30.8394 49.3045C31.4789 49.6072 32.0256 50.1199 32.4101 50.7777C32.7947 51.4355 33 52.2089 33 53C33 54.0609 32.6313 55.0783 31.9749 55.8284C31.3185 56.5786 30.4283 57 29.5 57Z" fill="#3C1A5E"/>
<path d="M29.5 33C28.8078 33 28.1311 32.7947 27.5555 32.4101C26.9799 32.0256 26.5313 31.4789 26.2664 30.8394C26.0015 30.1999 25.9322 29.4961 26.0673 28.8172C26.2023 28.1383 26.5356 27.5146 27.0251 27.0251C27.5146 26.5356 28.1382 26.2023 28.8172 26.0673C29.4961 25.9322 30.1999 26.0015 30.8394 26.2664C31.4789 26.5313 32.0256 26.9799 32.4101 27.5555C32.7947 28.1311 33 28.8078 33 29.5C33 30.4283 32.6313 31.3185 31.9749 31.9749C31.3185 32.6313 30.4283 33 29.5 33Z" fill="#3C1A5E"/>
<path d="M33 39H29V43H33V39Z" fill="#3C1A5E"/>
<path d="M26 39H20V43H26V39Z" fill="#3C1A5E"/>
<path d="M72.5 79C70.6211 79 68.7843 78.4722 67.2221 77.4832C65.6598 76.4943 64.4422 75.0887 63.7231 73.4442C63.0041 71.7996 62.816 69.99 63.1825 68.2442C63.5491 66.4984 64.4539 64.8947 65.7825 63.636C67.1111 62.3774 68.8038 61.5202 70.6466 61.1729C72.4895 60.8257 74.3996 61.0039 76.1355 61.6851C77.8714 62.3663 79.3551 63.5198 80.399 64.9999C81.4428 66.4799 82 68.22 82 70C81.9962 72.3858 80.9941 74.6729 79.2133 76.36C77.4325 78.047 75.0184 78.9964 72.5 79ZM72.5 64.6C71.3726 64.6 70.2706 64.9167 69.3333 65.5101C68.3959 66.1034 67.6653 66.9468 67.2339 67.9335C66.8025 68.9202 66.6896 70.006 66.9095 71.0535C67.1295 72.101 67.6723 73.0632 68.4695 73.8184C69.2666 74.5736 70.2823 75.0879 71.388 75.2962C72.4937 75.5046 73.6398 75.3977 74.6813 74.989C75.7228 74.5802 76.6131 73.8881 77.2394 73.0001C77.8657 72.1121 78.2 71.068 78.2 70C78.1974 68.5686 77.5961 67.1965 76.5277 66.1843C75.4593 65.1721 74.0109 64.6024 72.5 64.6Z" fill="#3C1A5E"/>
<path d="M81.9904 98H63L63.0482 93.9332L67.1761 76H77.8239L82 94.3333L81.9904 98ZM66.8579 94.3333H78.1662L74.7906 79.6667H70.2335L66.8579 94.3333Z" fill="#3C1A5E"/>
<path d="M90 68H85V72H90V68Z" fill="#3C1A5E"/>
<path d="M58 68H54V72H58V68Z" fill="#3C1A5E"/>
</svg>
