<svg width="151" height="151" viewBox="0 0 151 151" fill="none" xmlns="http://www.w3.org/2000/svg">
<path d="M75.6887 134.862C108.369 134.862 134.862 108.369 134.862 75.6887C134.862 43.0083 108.369 16.5156 75.6887 16.5156C43.0083 16.5156 16.5156 43.0083 16.5156 75.6887C16.5156 108.369 43.0083 134.862 75.6887 134.862Z" fill="#FC7450"/>
<path d="M84.9287 60.8994L31.3086 114.52L36.8558 120.067L90.4759 66.4466L84.9287 60.8994Z" fill="#3C1A5E"/>
<path d="M103.423 53.4992L90.4821 66.4522L84.9258 60.8959L97.8787 47.9547H101.571L103.423 49.8068V53.4992Z" fill="white"/>
<path d="M36.8531 120.069L23.912 133.01H20.2195L18.3674 131.17V127.465L31.3086 114.524L36.8531 120.069Z" fill="white"/>
<path d="M24.679 134.862H19.453L16.5273 131.937V126.711L97.1118 46.1143H102.291L105.228 49.0517V54.2777L24.679 134.862ZM20.9866 131.17H23.1454L101.571 52.7323V50.5735L100.816 49.8067H98.6572L20.2198 128.232V130.391L20.9866 131.17Z" fill="#3C1A5E"/>
<path d="M66.4402 57.203L64.5881 66.4518L62.7478 57.203L53.499 55.3509L62.7478 53.4988L64.5881 44.2618L66.4402 53.4988L75.6889 55.3509L66.4402 57.203Z" fill="white"/>
<path d="M114.524 68.292L112.672 77.5408L110.82 68.292L101.571 66.4517L110.82 64.5996L112.672 55.3508L114.524 64.5996L123.761 66.4517L114.524 68.292Z" fill="white"/>
<path d="M83.0855 105.275L81.2333 114.524L79.393 105.275L70.1443 103.435L79.393 101.583L81.2333 92.3341L83.0855 101.583L92.3342 103.435L83.0855 105.275Z" fill="white"/>
<path d="M75.6887 35.013C77.728 35.013 79.3812 33.3599 79.3812 31.3206C79.3812 29.2813 77.728 27.6282 75.6887 27.6282C73.6495 27.6282 71.9963 29.2813 71.9963 31.3206C71.9963 33.3599 73.6495 35.013 75.6887 35.013Z" fill="white"/>
<path d="M38.7054 68.2927C40.7446 68.2927 42.3978 66.6395 42.3978 64.6003C42.3978 62.561 40.7446 60.9078 38.7054 60.9078C36.6661 60.9078 35.0129 62.561 35.0129 64.6003C35.0129 66.6395 36.6661 68.2927 38.7054 68.2927Z" fill="white"/>
<path d="M94.1743 94.1749C96.2136 94.1749 97.8668 92.5217 97.8668 90.4825C97.8668 88.4432 96.2136 86.79 94.1743 86.79C92.1351 86.79 90.4819 88.4432 90.4819 90.4825C90.4819 92.5217 92.1351 94.1749 94.1743 94.1749Z" fill="white"/>
<path d="M83.0735 42.41H79.3811V46.1025H83.0735V42.41Z" fill="white"/>
<path d="M49.7947 46.1023H46.1023V49.7947H49.7947V46.1023Z" fill="white"/>
<path d="M62.7356 33.1614H59.0432V36.8538H62.7356V33.1614Z" fill="white"/>
<path d="M53.4988 71.9967H49.8064V75.6891H53.4988V71.9967Z" fill="white"/>
<path d="M68.2803 110.82H64.5879V114.512H68.2803V110.82Z" fill="white"/>
<path d="M38.7054 86.79H35.0129V90.4825H38.7054V86.79Z" fill="white"/>
<path d="M92.3223 114.524H88.6299V118.217H92.3223V114.524Z" fill="white"/>
<path d="M116.364 84.9375H112.672V88.6299H116.364V84.9375Z" fill="white"/>
<path d="M108.968 103.423H105.275V107.116H108.968V103.423Z" fill="white"/>
<path d="M99.7188 35.0132H96.0264V38.7056H99.7188V35.0132Z" fill="white"/>
<path d="M103.411 73.8369H99.719V77.5293H103.411V73.8369Z" fill="white"/>
<path d="M75.6889 131.169V127.465C85.9288 127.465 95.9388 124.429 104.453 118.74C112.967 113.051 119.604 104.966 123.523 95.5054C127.442 86.0452 128.468 75.6353 126.471 65.5919C124.474 55.5486 119.544 46.3229 112.305 39.0814C105.065 31.8398 95.8401 26.9077 85.7972 24.9085C75.7543 22.9094 65.3442 23.9331 55.883 27.8501C46.4219 31.7671 38.3347 38.4016 32.644 46.9146C26.9533 55.4277 23.9147 65.437 23.9124 75.6769H20.22C20.22 64.7109 23.4718 53.9911 29.5642 44.8731C35.6566 35.7552 44.316 28.6486 54.4473 24.4521C64.5786 20.2556 75.7268 19.1576 86.4821 21.297C97.2375 23.4363 107.117 28.717 114.871 36.4711C122.625 44.2253 127.906 54.1047 130.045 64.8601C132.185 75.6154 131.087 86.7636 126.89 96.8949C122.694 107.026 115.587 115.686 106.469 121.778C97.3511 127.87 86.6313 131.122 75.6653 131.122L75.6889 131.169Z" fill="white"/>
</svg>
