<svg width="102" height="102" viewBox="0 0 102 102" fill="none" xmlns="http://www.w3.org/2000/svg">
<path d="M33.4688 102C51.953 102 66.9375 87.0155 66.9375 68.5312C66.9375 50.047 51.953 35.0625 33.4688 35.0625C14.9845 35.0625 0 50.047 0 68.5312C0 87.0155 14.9845 102 33.4688 102Z" fill="#FC7450"/>
<path d="M68.5312 65.3438L74.9062 68.5312C84.4688 71.7188 92.4375 74.7469 92.4375 84.4688V102" stroke="#3C1A5E" stroke-width="2" stroke-miterlimit="10"/>
<path d="M33.4688 65.3438L27.0938 68.5312C17.5312 71.7188 9.5625 74.7469 9.5625 84.4688V102" stroke="#3C1A5E" stroke-width="2" stroke-miterlimit="10"/>
<path d="M25.5 89.25V102" stroke="#3C1A5E" stroke-width="2" stroke-miterlimit="10"/>
<path d="M76.5 89.25V102" stroke="#3C1A5E" stroke-width="2" stroke-miterlimit="10"/>
<path d="M41.4375 58.9688V51" stroke="#3C1A5E" stroke-width="2" stroke-miterlimit="10"/>
<path d="M60.5625 58.9688V51" stroke="#3C1A5E" stroke-width="2" stroke-miterlimit="10"/>
<path d="M51 62.1562L63.75 58.9688L71.7188 65.3438L57.375 73.3125L51 66.9375L44.625 73.3125L30.2812 65.3438L38.25 58.9688L51 62.1562Z" stroke="#3C1A5E" stroke-width="2" stroke-miterlimit="10"/>
<path d="M51 79.6875V102" stroke="#3C1A5E" stroke-width="2" stroke-miterlimit="10"/>
<path d="M79.6875 11.1562L51 20.7188L22.3125 11.1562L51 1.59375L79.6875 11.1562Z" stroke="#3C1A5E" stroke-width="2" stroke-miterlimit="10"/>
<path d="M68.5312 20.7188C68.5312 24.225 60.7219 27.0938 51 27.0938C41.2781 27.0938 33.4688 24.225 33.4688 20.7188V33.4688L35.0625 35.0625C35.0625 43.0312 39.8438 54.1875 51 54.1875C62.1562 54.1875 66.9375 43.0312 66.9375 35.0625L68.5312 33.4688V20.7188Z" stroke="#3C1A5E" stroke-width="2" stroke-miterlimit="10"/>
<path d="M79.6875 11.1562V28.6875" stroke="#3C1A5E" stroke-width="2" stroke-miterlimit="10"/>
<path d="M79.6875 31.875V35.0625" stroke="#3C1A5E" stroke-width="2" stroke-miterlimit="10"/>
<path d="M51 73.3125V76.5" stroke="#3C1A5E" stroke-width="2" stroke-miterlimit="10"/>
</svg>
