<svg width="276" height="276" viewBox="0 0 276 276" fill="none" xmlns="http://www.w3.org/2000/svg">
<path d="M226.417 204.909L137.662 256.68L48.9141 204.909V20.01H71.1045L85.8912 34.8036L100.685 20.01H174.646L189.439 34.8036L204.226 20.01H226.417V204.909Z" fill="#E6E6E6"/>
<path d="M137.662 246.151L56.3105 199.659V27.407H63.7073V195.367L137.662 237.629L211.623 195.367V27.407H219.019V199.659L137.662 246.151Z" fill="#3C1A5E"/>
<path d="M137.662 179.021C168.297 179.021 193.132 154.186 193.132 123.551C193.132 92.9166 168.297 68.0823 137.662 68.0823C107.028 68.0823 82.1934 92.9166 82.1934 123.551C82.1934 154.186 107.028 179.021 137.662 179.021Z" fill="white"/>
<path d="M137.661 167.925C162.168 167.925 182.035 148.058 182.035 123.551C182.035 99.0444 162.168 79.1775 137.661 79.1775C113.154 79.1775 93.2871 99.0444 93.2871 123.551C93.2871 148.058 113.154 167.925 137.661 167.925Z" fill="#B4F0E0"/>
<path d="M137.662 182.719C125.959 182.719 114.52 179.249 104.79 172.748C95.0599 166.246 87.4763 157.005 82.998 146.194C78.5198 135.383 77.3481 123.486 79.6311 112.009C81.914 100.531 87.5492 89.9885 95.8239 81.7138C104.099 73.4391 114.641 67.8039 126.119 65.5209C137.596 63.238 149.493 64.4097 160.304 68.8879C171.116 73.3662 180.356 80.9498 186.858 90.6799C193.359 100.41 196.829 111.849 196.829 123.552C196.811 139.238 190.571 154.277 179.479 165.369C168.387 176.461 153.348 182.701 137.662 182.719ZM137.662 71.7809C127.426 71.7809 117.421 74.8159 108.911 80.5023C100.401 86.1887 93.7677 94.2709 89.8509 103.727C85.9341 113.183 84.9092 123.588 86.906 133.627C88.9028 143.665 93.8315 152.886 101.069 160.124C108.306 167.361 117.527 172.29 127.566 174.286C137.604 176.283 148.009 175.258 157.466 171.342C166.922 167.425 175.004 160.792 180.69 152.282C186.377 143.771 189.412 133.766 189.412 123.531C189.395 109.809 183.938 96.6536 174.238 86.9489C164.537 77.2442 151.383 71.7821 137.662 71.7602V71.7809Z" fill="#3C1A5E"/>
<path d="M196.829 119.853H78.4941V127.25H196.829V119.853Z" fill="#3C1A5E"/>
<path d="M141.36 68.0823H133.963V179.021H141.36V68.0823Z" fill="#3C1A5E"/>
<path d="M137.662 182.719C119.032 182.719 104.383 156.734 104.383 123.552C104.383 90.3694 119.004 64.384 137.662 64.384C156.319 64.384 170.947 90.3763 170.947 123.552C170.947 156.727 156.326 182.719 137.662 182.719ZM137.662 71.7808C123.634 71.7808 111.78 95.4892 111.78 123.531C111.78 151.572 123.634 175.281 137.662 175.281C151.689 175.281 163.55 151.572 163.55 123.531C163.55 95.4892 151.696 71.7601 137.662 71.7601V71.7808Z" fill="#3C1A5E"/>
<path d="M141.36 34.8035H133.963V42.2003H141.36V34.8035Z" fill="#3C1A5E"/>
<path d="M156.155 34.8035H148.758V42.2003H156.155V34.8035Z" fill="#3C1A5E"/>
<path d="M126.575 34.8035H119.178V42.2003H126.575V34.8035Z" fill="#3C1A5E"/>
</svg>
