<svg width="102" height="102" viewBox="0 0 102 102" fill="none" xmlns="http://www.w3.org/2000/svg">
<path d="M51 100.406C68.6041 100.406 82.875 86.1353 82.875 68.5312C82.875 50.9272 68.6041 36.6562 51 36.6562C33.3959 36.6562 19.125 50.9272 19.125 68.5312C19.125 86.1353 33.3959 100.406 51 100.406Z" fill="#FC7450"/>
<path d="M100.406 15.9375C100.406 13.2281 98.3344 11.1562 95.625 11.1562H6.375C3.66562 11.1562 1.59375 13.2281 1.59375 15.9375V79.6875C1.59375 82.3969 3.66562 84.4688 6.375 84.4688H95.625C98.3344 84.4688 100.406 82.3969 100.406 79.6875V15.9375Z" stroke="#3C1A5E" stroke-width="2" stroke-miterlimit="10" stroke-linejoin="round"/>
<path d="M60.5625 84.4688L63.75 100.406" stroke="#3C1A5E" stroke-width="2" stroke-miterlimit="10" stroke-linejoin="round"/>
<path d="M38.25 100.406L41.4375 84.4688" stroke="#3C1A5E" stroke-width="2" stroke-miterlimit="10" stroke-linejoin="round"/>
<path d="M30.2812 100.406H71.7188" stroke="#3C1A5E" stroke-width="2" stroke-miterlimit="10" stroke-linejoin="round"/>
<path d="M49.4062 78.0938H52.5938" stroke="#3C1A5E" stroke-width="2" stroke-miterlimit="10" stroke-linejoin="round"/>
<path d="M49.4062 62.1562H52.5938" stroke="#3C1A5E" stroke-width="2" stroke-miterlimit="10" stroke-linejoin="round"/>
<path d="M55.7812 62.1562H58.9688" stroke="#3C1A5E" stroke-width="2" stroke-miterlimit="10" stroke-linejoin="round"/>
<path d="M62.1562 62.1562H65.3438" stroke="#3C1A5E" stroke-width="2" stroke-miterlimit="10" stroke-linejoin="round"/>
<path d="M43.0312 62.1562H46.2188" stroke="#3C1A5E" stroke-width="2" stroke-miterlimit="10" stroke-linejoin="round"/>
<path d="M36.6562 62.1562H39.8438" stroke="#3C1A5E" stroke-width="2" stroke-miterlimit="10" stroke-linejoin="round"/>
<path d="M94.0312 17.5312H7.96875V71.7188H94.0312V17.5312Z" stroke="#3C1A5E" stroke-width="2" stroke-miterlimit="10" stroke-linejoin="round"/>
</svg>
