<svg width="121" height="30" viewBox="0 0 121 30" fill="none" xmlns="http://www.w3.org/2000/svg">
<path d="M80.4542 11.7844C80.4526 12.2541 80.2695 12.704 79.945 13.0359C79.6205 13.3678 79.181 13.5548 78.7224 13.5559H76.2643V26.0754C76.2724 26.3111 76.234 26.546 76.1515 26.7662C76.0691 26.9864 75.9441 27.1873 75.7842 27.357C75.6242 27.5267 75.4325 27.6616 75.2206 27.7538C75.0086 27.8459 74.7807 27.8934 74.5504 27.8934C74.3201 27.8934 74.0922 27.8459 73.8802 27.7538C73.6683 27.6616 73.4766 27.5267 73.3166 27.357C73.1567 27.1873 73.0317 26.9864 72.9493 26.7662C72.8668 26.546 72.8284 26.3111 72.8365 26.0754V13.5559H70.3424C69.89 13.5463 69.4592 13.3554 69.1425 13.0242C68.8259 12.693 68.6486 12.2479 68.6487 11.7844C68.6487 11.3244 68.8271 10.8832 69.1448 10.5579C69.4624 10.2326 69.8932 10.0498 70.3424 10.0498H72.8323V2.95313C72.8479 2.4983 73.0353 2.06743 73.355 1.75132C73.6747 1.43521 74.1018 1.25854 74.5462 1.25854C74.9906 1.25854 75.4176 1.43521 75.7373 1.75132C76.057 2.06743 76.2444 2.4983 76.26 2.95313V10.0455H78.7181C78.9439 10.0418 79.1682 10.0839 79.378 10.1695C79.5878 10.2551 79.7789 10.3824 79.9404 10.5441C80.1018 10.7058 80.2303 10.8987 80.3185 11.1116C80.4067 11.3245 80.4529 11.5532 80.4542 11.7844Z" fill="#97A0A5"/>
<path d="M83.0842 6.00387C82.7654 5.67504 82.582 5.23341 82.5718 4.77013C82.569 4.41965 82.6687 4.07633 82.858 3.78433C83.0473 3.49234 83.3176 3.26503 83.6341 3.13165C83.9506 2.99827 84.2988 2.96492 84.634 3.03589C84.9691 3.10686 85.2759 3.2789 85.5148 3.52988C85.8205 3.86234 85.9878 4.30369 85.9811 4.76033C85.9744 5.21698 85.7943 5.653 85.479 5.97593C85.1637 6.29887 84.7379 6.48331 84.292 6.49014C83.8461 6.49697 83.4152 6.32566 83.0906 6.01254L83.0842 6.00387Z" fill="#97A0A5"/>
<path d="M82.5719 26.0754V11.7844C82.5875 11.3296 82.7749 10.8987 83.0946 10.5826C83.4143 10.2665 83.8413 10.0898 84.2857 10.0898C84.7301 10.0898 85.1572 10.2665 85.4769 10.5826C85.7966 10.8987 85.984 11.3296 85.9996 11.7844V26.0754C86.0077 26.3111 85.9694 26.546 85.8869 26.7662C85.8044 26.9864 85.6794 27.1873 85.5195 27.357C85.3596 27.5266 85.1679 27.6616 84.9559 27.7537C84.7439 27.8459 84.516 27.8934 84.2857 27.8934C84.0555 27.8934 83.8275 27.8459 83.6156 27.7537C83.4036 27.6616 83.2119 27.5266 83.052 27.357C82.892 27.1873 82.7671 26.9864 82.6846 26.7662C82.6021 26.546 82.5638 26.3111 82.5719 26.0754Z" fill="#97A0A5"/>
<path d="M101.923 12.4566L96.7271 26.6436C96.5997 26.9814 96.377 27.2729 96.0875 27.481C95.798 27.6891 95.4547 27.8044 95.1011 27.8122H95.063C94.7085 27.8068 94.3638 27.6925 94.0736 27.4841C93.7833 27.2758 93.5608 26.9829 93.4349 26.6436L88.2435 12.4566C88.1012 12.0237 88.1286 11.5511 88.3199 11.1384C88.5112 10.7257 88.8514 10.4052 89.269 10.2444C89.6865 10.0836 90.1486 10.0951 90.5581 10.2764C90.9675 10.4577 91.2922 10.7947 91.4637 11.2164L95.1011 21.1102L98.7004 11.2164C98.8719 10.7947 99.1966 10.4577 99.606 10.2764C100.015 10.0951 100.478 10.0836 100.895 10.2444C101.313 10.4052 101.653 10.7257 101.844 11.1384C102.036 11.5511 102.063 12.0237 101.921 12.4566H101.923Z" fill="#97A0A5"/>
<path d="M119.998 18.9115C119.996 19.1421 119.949 19.3699 119.861 19.582C119.773 19.7941 119.645 19.9863 119.484 20.1475C119.323 20.3087 119.132 20.4357 118.923 20.5213C118.714 20.6069 118.491 20.6493 118.266 20.6461H106.318C106.675 21.7104 107.347 22.6341 108.241 23.2886C109.135 23.9431 110.206 24.2958 111.304 24.2975C112.683 24.3194 114.036 23.911 115.183 23.1266C115.979 22.5954 117.053 23.0919 117.47 23.9441C117.893 24.8309 117.434 25.7524 116.638 26.2836C114.353 27.8448 112.587 27.8014 111.304 27.8014C108.999 27.8014 106.789 26.8636 105.159 25.1944C103.529 23.5252 102.613 21.2613 102.613 18.9007C102.613 16.5401 103.529 14.2762 105.159 12.607C106.789 10.9377 108.999 10 111.304 10C115.496 10.0108 119.998 13.131 119.998 18.9115ZM106.318 17.1292H116.326C115.6 14.6466 113.384 13.5126 111.304 13.5126C110.21 13.5137 109.143 13.8621 108.25 14.5097C107.357 15.1574 106.683 16.0725 106.318 17.1292Z" fill="#97A0A5"/>
<path d="M58.2365 21.0299C59.2141 21.0299 60.0065 20.2183 60.0065 19.2172C60.0065 18.2161 59.2141 17.4045 58.2365 17.4045C57.259 17.4045 56.4666 18.2161 56.4666 19.2172C56.4666 20.2183 57.259 21.0299 58.2365 21.0299Z" fill="#764BA2"/>
<path d="M12.2208 10.7806C12.2076 11.2925 11.9997 11.7789 11.6414 12.1361C11.283 12.4933 10.8027 12.6931 10.3026 12.693C8.79349 12.6929 7.34554 13.3041 6.27465 14.3931C5.20375 15.4821 4.5968 16.9606 4.58618 18.5061V26.1925C4.59181 26.4377 4.55021 26.6816 4.46376 26.9103C4.37731 27.139 4.2477 27.3481 4.08235 27.5255C3.917 27.7029 3.71913 27.8451 3.50006 27.9442C3.281 28.0433 3.04502 28.0971 2.80561 28.1028C2.56322 28.1014 2.32352 28.0507 2.10043 27.9536C1.87734 27.8565 1.67532 27.715 1.5061 27.5372C1.33689 27.3595 1.20385 27.1491 1.11472 26.9183C1.02559 26.6874 0.982154 26.4407 0.986927 26.1925V18.5061C0.988606 15.9623 1.97548 13.5231 3.73104 11.7236C5.4866 9.92409 7.86748 8.91121 10.3513 8.90719C10.5945 8.90347 10.8359 8.94908 11.0617 9.04139C11.2876 9.13371 11.4933 9.2709 11.6671 9.44506C11.8409 9.61922 11.9793 9.8269 12.0744 10.0561C12.1694 10.2853 12.2192 10.5316 12.2208 10.7806Z" fill="#764BA2"/>
<path d="M29.3472 10.7805V20.4184C29.1354 24.6617 25.8898 28.1027 21.7062 28.1027C17.5628 28.1027 14.1033 24.6617 14.1033 20.4184V10.7805C14.1033 10.263 14.304 9.76663 14.6614 9.40066C15.0187 9.0347 15.5034 8.8291 16.0088 8.8291C16.5141 8.8291 16.9988 9.0347 17.3561 9.40066C17.7135 9.76663 17.9142 10.263 17.9142 10.7805V20.3404C17.9142 21.3755 18.3158 22.3682 19.0305 23.1001C19.7452 23.832 20.7145 24.2432 21.7252 24.2432C22.736 24.2432 23.7053 23.832 24.42 23.1001C25.1347 22.3682 25.5362 21.3755 25.5362 20.3404V10.7805C25.5362 10.263 25.7369 9.76663 26.0943 9.40066C26.4516 9.0347 26.9363 8.8291 27.4417 8.8291C27.947 8.8291 28.4317 9.0347 28.7891 9.40066C29.1464 9.76663 29.3472 10.263 29.3472 10.7805Z" fill="#764BA2"/>
<path d="M44.716 28.066C44.4755 28.0687 44.237 28.0219 44.0145 27.9286C43.792 27.8352 43.59 27.6972 43.4204 27.5225C43.2509 27.3479 43.1173 27.1402 43.0274 26.9118C42.9376 26.6834 42.8933 26.4389 42.8973 26.1926V16.6306C42.8973 15.5668 42.4846 14.5465 41.7501 13.7942C41.0155 13.042 40.0193 12.6193 38.9804 12.6193C37.9416 12.6193 36.9454 13.042 36.2108 13.7942C35.4763 14.5465 35.0636 15.5668 35.0636 16.6306V26.1926C35.0636 26.6814 34.874 27.1502 34.5365 27.4958C34.199 27.8415 33.7413 28.0357 33.264 28.0357C32.7867 28.0357 32.3289 27.8415 31.9915 27.4958C31.654 27.1502 31.4644 26.6814 31.4644 26.1926V16.5547C31.4644 14.5133 32.2562 12.5554 33.6658 11.1119C35.0753 9.66839 36.9871 8.85742 38.9804 8.85742C40.9738 8.85742 42.8856 9.66839 44.2951 11.1119C45.7047 12.5554 46.4965 14.5133 46.4965 16.5547V26.1926C46.5016 26.4359 46.4594 26.6777 46.3723 26.9041C46.2852 27.1305 46.155 27.3368 45.9893 27.5112C45.8236 27.6855 45.6257 27.8243 45.4071 27.9196C45.1885 28.0149 44.9535 28.0646 44.716 28.066Z" fill="#76479C"/>
<path d="M44.716 28.066C44.4755 28.0687 44.237 28.0219 44.0145 27.9286C43.792 27.8352 43.59 27.6972 43.4204 27.5225C43.2509 27.3479 43.1173 27.1402 43.0274 26.9118C42.9376 26.6834 42.8933 26.4389 42.8973 26.1926V16.6306C42.8973 15.5668 42.4846 14.5465 41.7501 13.7942C41.0155 13.042 40.0193 12.6193 38.9804 12.6193C37.9416 12.6193 36.9454 13.042 36.2108 13.7942C35.4763 14.5465 35.0636 15.5668 35.0636 16.6306V26.1926C35.0636 26.6814 34.874 27.1502 34.5365 27.4958C34.199 27.8415 33.7413 28.0357 33.264 28.0357C32.7867 28.0357 32.3289 27.8415 31.9915 27.4958C31.654 27.1502 31.4644 26.6814 31.4644 26.1926V16.5547C31.4644 14.5133 32.2562 12.5554 33.6658 11.1119C35.0753 9.66839 36.9871 8.85742 38.9804 8.85742C40.9738 8.85742 42.8856 9.66839 44.2951 11.1119C45.7047 12.5554 46.4965 14.5133 46.4965 16.5547V26.1926C46.5016 26.4359 46.4594 26.6777 46.3723 26.9041C46.2852 27.1305 46.155 27.3368 45.9893 27.5112C45.8236 27.6855 45.6257 27.8243 45.4071 27.9196C45.1885 28.0149 44.9535 28.0646 44.716 28.066Z" fill="#764BA2"/>
<path d="M69.8069 26.249C69.807 26.2186 69.801 26.1885 69.789 26.1607C69.7771 26.1328 69.7596 26.1079 69.7376 26.0875C69.7156 26.067 69.6897 26.0515 69.6615 26.042C69.6334 26.0325 69.6035 26.0291 69.574 26.0322C69.5312 26.0362 69.4903 26.0519 69.4554 26.0777L69.4809 26.0625L69.3813 26.1232C69.2353 26.2049 69.0784 26.2641 68.9156 26.2989C68.8026 26.3215 68.6877 26.3332 68.5726 26.3335C68.4581 26.3341 68.3438 26.3225 68.2317 26.2989C68.0681 26.2643 67.9105 26.2051 67.7638 26.1232C67.668 26.071 67.5779 26.0084 67.4949 25.9368C67.2933 25.7866 67.1278 25.5914 67.0108 25.366C66.8938 25.1406 66.8284 24.8909 66.8195 24.6358C66.8195 24.6119 66.8195 24.6141 66.8195 24.6141V19.3409V12.1076C66.8275 11.8771 66.7901 11.6473 66.7095 11.432C66.6289 11.2166 66.5067 11.0201 66.3503 10.8541C66.1939 10.6881 66.0065 10.5561 65.7992 10.466C65.5919 10.3758 65.369 10.3293 65.1438 10.3293C64.9185 10.3293 64.6956 10.3758 64.4883 10.466C64.281 10.5561 64.0936 10.6881 63.9372 10.8541C63.7808 11.0201 63.6586 11.2166 63.578 11.432C63.4974 11.6473 63.46 11.8771 63.468 12.1076C61.9949 10.9673 60.1951 10.3575 58.3486 10.373C57.1968 10.3658 56.055 10.5929 54.9895 11.041C53.924 11.4892 52.9561 12.1495 52.1417 12.9837C51.3273 13.8179 50.6828 14.8094 50.2454 15.9007C49.8081 16.992 49.5866 18.1613 49.5939 19.3409C49.5939 24.3409 53.4726 28.066 58.357 28.066C60.3303 28.066 61.9923 27.5695 63.4828 26.2923L63.775 25.9996C64.0425 26.6122 64.4785 27.1316 65.0298 27.4944C65.581 27.8571 66.2236 28.0475 66.8788 28.0421C67.4646 28.0578 68.0435 27.9101 68.5536 27.6149C69.0638 27.3197 69.486 26.888 69.7751 26.3661H69.7646C69.7878 26.3531 69.8069 26.2989 69.8069 26.249ZM58.357 24.5903C55.4501 24.5903 52.9899 22.3201 52.9899 19.3409C53.0091 17.8893 53.5807 16.5026 54.5831 15.476C55.5855 14.4494 56.9396 13.864 58.357 13.8444C61.2661 13.8444 63.4828 16.3617 63.4828 19.3409C63.496 20.034 63.3725 20.7227 63.1196 21.3657C62.8667 22.0087 62.4896 22.5928 62.011 23.083C61.5324 23.5731 60.962 23.9593 60.3341 24.2183C59.7063 24.4773 59.0338 24.6038 58.357 24.5903Z" fill="#97A0A5"/>
<path d="M69.5908 26.4636C69.7089 26.4636 69.8046 26.3656 69.8046 26.2446C69.8046 26.1237 69.7089 26.0256 69.5908 26.0256C69.4727 26.0256 69.377 26.1237 69.377 26.2446C69.377 26.3656 69.4727 26.4636 69.5908 26.4636Z" fill="#97A0A5"/>
</svg>
