<svg width="102" height="102" viewBox="0 0 102 102" fill="none" xmlns="http://www.w3.org/2000/svg">
<g clip-path="url(#clip0)">
<path d="M31.875 63.75C49.4791 63.75 63.75 49.4791 63.75 31.875C63.75 14.2709 49.4791 0 31.875 0C14.2709 0 0 14.2709 0 31.875C0 49.4791 14.2709 63.75 31.875 63.75Z" fill="#FC7450"/>
<path d="M78.8906 87.6562C61.3594 87.6562 1.59375 87.6562 1.59375 87.6562V71.7188H10.3594L13.5469 68.5312H23.1094L29.4844 58.9688C29.4844 58.9688 50.2031 58.9688 59.7656 58.9688C69.3281 58.9688 78.8906 68.5312 78.8906 68.5312H101.203C101.203 68.5312 96.4219 87.6562 78.8906 87.6562Z" stroke="#3C1A5E" stroke-width="2" stroke-miterlimit="10" stroke-linejoin="round"/>
<path d="M89.7281 74.9062C89.7281 74.9062 83.6719 81.2812 75.7031 81.2812C67.7344 81.2812 6.375 81.2812 6.375 81.2812" stroke="#3C1A5E" stroke-width="2" stroke-miterlimit="10" stroke-linejoin="round"/>
<path d="M79.6875 68.5312H28.6875" stroke="#3C1A5E" stroke-width="2" stroke-miterlimit="10" stroke-linejoin="round"/>
<path d="M96.4219 100.406C91.9594 100.406 88.4531 96.9 88.4531 92.4375C88.4531 96.9 84.9469 100.406 80.4844 100.406C76.0219 100.406 72.5156 96.9 72.5156 92.4375C72.5156 96.9 69.0094 100.406 64.5469 100.406C60.0844 100.406 56.5781 96.9 56.5781 92.4375C56.5781 96.9 53.0719 100.406 48.6094 100.406C44.1469 100.406 40.6406 96.9 40.6406 92.4375C40.6406 96.9 37.1344 100.406 32.6719 100.406C28.2094 100.406 24.7031 96.9 24.7031 92.4375C24.7031 96.9 21.1969 100.406 16.7344 100.406C12.2719 100.406 8.76562 96.9 8.76562 92.4375C8.76562 96.9 5.25937 100.406 0.796875 100.406" stroke="#3C1A5E" stroke-width="2" stroke-miterlimit="10" stroke-linejoin="round"/>
<path d="M30.2812 58.9688H22.3125" stroke="#3C1A5E" stroke-width="2" stroke-miterlimit="10" stroke-linejoin="round"/>
<path d="M47.8125 52.5938H94.8281L43.0312 1.59375V58.9688" stroke="#3C1A5E" stroke-width="2" stroke-miterlimit="10" stroke-linejoin="round"/>
<path d="M38.25 49.4062H13.5469L43.5094 1.59375" stroke="#3C1A5E" stroke-width="2" stroke-miterlimit="10" stroke-linejoin="round"/>
<path d="M56.5781 33.4688H43.0312V23.9062H56.5781L51.7969 28.6875L56.5781 33.4688Z" stroke="#3C1A5E" stroke-width="2" stroke-miterlimit="10" stroke-linejoin="round"/>
<path d="M74.1094 7.96875C83.6719 7.96875 85.2656 14.3438 85.2656 14.3438C85.2656 14.3438 86.8594 7.96875 96.4219 7.96875" stroke="#3C1A5E" stroke-width="2" stroke-miterlimit="10" stroke-linejoin="round"/>
</g>
<defs>
<clipPath id="clip0">
<rect width="102" height="102" fill="white"/>
</clipPath>
</defs>
</svg>
