<svg width="340" height="334" viewBox="0 0 340 334" fill="none" xmlns="http://www.w3.org/2000/svg">
<path d="M171.113 331.74C261.992 331.74 335.665 257.984 335.665 167.001C335.665 76.0174 261.992 2.26099 171.113 2.26099C80.233 2.26099 6.56055 76.0174 6.56055 167.001C6.56055 257.984 80.233 331.74 171.113 331.74Z" fill="url(#paint0_linear)"/>
<path d="M252.172 266.609H111.281V68.0818H232.963L252.172 87.2914V266.609Z" fill="white"/>
<path d="M242.567 164.144H120.893V77.6865H223.358V96.903H242.567V164.144Z" fill="#E6E6E6"/>
<path d="M255.374 269.81H108.08V64.8799H234.288L255.374 85.9663V269.81ZM114.483 263.407H248.971V88.6228L231.638 71.2831H114.483V263.407Z" fill="#3C1A5E"/>
<path d="M252.173 90.4999H229.762V68.0818H236.165V84.0898H252.173V90.4999Z" fill="#3C1A5E"/>
<path d="M242.567 170.547H120.893V257.004H242.567V170.547Z" fill="#FC7450"/>
<path d="M140.102 208.973H133.699V244.197H140.102V208.973Z" fill="#3C1A5E"/>
<path d="M152.909 189.756H146.506V244.19H152.909V189.756Z" fill="#3C1A5E"/>
<path d="M165.716 196.167H159.312V244.197H165.716V196.167Z" fill="#3C1A5E"/>
<path d="M178.528 202.57H172.125V244.197H178.528V202.57Z" fill="#3C1A5E"/>
<path d="M191.335 183.353H184.932V244.19H191.335V183.353Z" fill="#3C1A5E"/>
<path d="M204.141 196.167H197.738V244.197H204.141V196.167Z" fill="#3C1A5E"/>
<path d="M216.948 202.57H210.545V244.197H216.948V202.57Z" fill="#3C1A5E"/>
<path d="M229.761 189.756H223.357V244.19H229.761V189.756Z" fill="#3C1A5E"/>
<path d="M140.102 90.4998H133.699V96.903H140.102V90.4998Z" fill="#3C1A5E"/>
<path d="M152.909 90.4998H146.506V96.903H152.909V90.4998Z" fill="#3C1A5E"/>
<path d="M165.716 90.4998H159.312V96.903H165.716V90.4998Z" fill="#3C1A5E"/>
<path d="M229.761 109.709H133.699V116.113H229.761V109.709Z" fill="#3C1A5E"/>
<path d="M229.761 122.516H133.699V128.919H229.761V122.516Z" fill="#3C1A5E"/>
<path d="M229.761 135.322H133.699V141.725H229.761V135.322Z" fill="#3C1A5E"/>
<path d="M98.4744 68.0818H85.668V80.8882H98.4744V68.0818Z" fill="white"/>
<path d="M85.668 80.8879H98.4744V253.802L92.0712 266.608L85.668 253.802V80.8879Z" fill="#E6E6E6"/>
<path d="M98.4744 212.174H85.668V237.794H98.4744V212.174Z" fill="white"/>
<path d="M92.0716 269.81C91.4774 269.81 90.8948 269.645 90.3891 269.333C89.8834 269.021 89.4745 268.575 89.2081 268.044L82.8049 255.23C82.5829 254.787 82.4671 254.298 82.4668 253.802V68.0815C82.4668 67.2324 82.8041 66.4181 83.4045 65.8176C84.0049 65.2172 84.8193 64.8799 85.6684 64.8799H98.4748C98.8964 64.8781 99.3142 64.9596 99.7042 65.1196C100.094 65.2797 100.449 65.5153 100.748 65.8127C101.046 66.1102 101.283 66.4638 101.445 66.8531C101.607 67.2425 101.69 67.6599 101.69 68.0815V253.802C101.69 254.298 101.574 254.787 101.352 255.23L94.9489 268.044C94.6821 268.577 94.2712 269.026 93.7627 269.338C93.2541 269.65 92.6683 269.814 92.0716 269.81V269.81ZM88.87 253.043L92.0716 259.46L95.2732 253.057V71.2831H88.87V253.043Z" fill="#3C1A5E"/>
<path d="M98.4744 234.585H85.668V240.989H98.4744V234.585Z" fill="#3C1A5E"/>
<path d="M98.4744 221.779H85.668V228.183H98.4744V221.779Z" fill="#3C1A5E"/>
<path d="M98.4744 208.973H85.668V215.376H98.4744V208.973Z" fill="#3C1A5E"/>
<path d="M98.4744 77.6865H85.668V84.0897H98.4744V77.6865Z" fill="#3C1A5E"/>
<defs>
<linearGradient id="paint0_linear" x1="36.0808" y1="270.293" x2="297.816" y2="70.5295" gradientUnits="userSpaceOnUse">
<stop stop-color="white"/>
<stop offset="0.16" stop-color="#FEFDFE" stop-opacity="0.99"/>
<stop offset="0.3" stop-color="#F9F8FB" stop-opacity="0.95"/>
<stop offset="0.42" stop-color="#F2EEF6" stop-opacity="0.89"/>
<stop offset="0.54" stop-color="#E8E1F0" stop-opacity="0.8"/>
<stop offset="0.66" stop-color="#DBD0E7" stop-opacity="0.69"/>
<stop offset="0.77" stop-color="#CCBBDC" stop-opacity="0.56"/>
<stop offset="0.89" stop-color="#B9A2CF" stop-opacity="0.4"/>
<stop offset="0.99" stop-color="#A486C1" stop-opacity="0.21"/>
<stop offset="1" stop-color="#A284C0" stop-opacity="0.2"/>
</linearGradient>
</defs>
</svg>
