<svg width="40" height="40" viewBox="0 0 40 40" fill="none" xmlns="http://www.w3.org/2000/svg">
<path d="M35.5556 0H4.44444C2 0 0 2 0 4.44444V35.5556C0 38 2 40 4.44444 40H35.5556C38 40 40 38 40 35.5556V4.44444C40 2 38 0 35.5556 0ZM32 29.7778H28.4444C27.7778 29.7778 27.1111 29.5556 26.6667 29.3333C25.3333 28.4444 24 25.7778 23.1111 26.2222C22.2222 26.6667 22.2222 28.6667 22.2222 28.6667C22.2222 28.8889 22.2222 29.1111 22 29.3333C21.7778 29.7778 19.5556 29.7778 19.5556 29.7778C17.1111 29.7778 14.6667 28.6667 12.8889 26.6667C10.4444 23.3333 8.22222 19.5556 6.66667 15.5556C6.66667 15.5556 6.44444 14.8889 6.66667 14.8889C6.88889 14.8889 7.11111 14.6667 7.55556 14.6667H11.3333C11.7778 14.6667 12 14.8889 12.2222 15.1111C12.6667 15.7778 12.8889 16.6667 13.5556 18.2222C15.1111 21.1111 15.7778 21.7778 16.4444 21.3333C17.1111 20.8889 16.8889 17.3333 16.8889 17.3333C16.8889 16.6667 16.6667 16 16.4444 15.3333C16.4444 15.1111 16 14.8889 15.5556 14.8889C15.3333 14.8889 15.7778 14.2222 16.2222 14C17.3333 13.7778 18.4444 13.5556 19.5556 13.5556C20.2222 13.5556 20.8889 13.5556 21.3333 13.7778C22.6667 14.2222 22.2222 15.5556 22.2222 18.6667C22.2222 19.7778 22 21.1111 22.6667 21.5556C22.8889 21.7778 23.7778 21.5556 25.5556 18.4444C26.4444 16.8889 26.6667 16 27.1111 15.1111C27.3333 14.8889 27.7778 14.6667 28 14.6667H32C32 14.6667 33.3333 14.2222 33.3333 14.8889C33.3333 15.5556 32.8889 16.8889 31.3333 19.1111C28.6667 22.8889 28.2222 22.4444 30.4444 24.6667C31.5556 25.5556 32.4444 26.6667 33.1111 27.7778C34 29.5556 32 29.7778 32 29.7778Z" fill="#3C1A5E"/>
</svg>
