<svg width="151" height="151" viewBox="0 0 151 151" fill="none" xmlns="http://www.w3.org/2000/svg">
<path d="M127.64 45.6654H125.379C125.368 43.8882 125.009 42.1304 124.322 40.4924C123.634 38.8544 122.632 37.3683 121.372 36.1189C120.112 34.8696 118.62 33.8815 116.979 33.211C115.339 32.5405 113.583 32.2008 111.812 32.2113C110.715 32.2087 109.622 32.3382 108.556 32.597C104.933 25.6462 98.7383 20.3976 91.3022 17.9776C83.866 15.5577 75.7808 16.1593 68.7817 19.6533C64.2549 21.8757 60.3808 25.2395 57.5389 29.4155C54.6969 33.5915 52.9845 38.4365 52.5692 43.476V45.7448H50.308C45.0578 45.8698 40.0645 48.0502 36.3952 51.8203C32.726 55.5903 30.6719 60.6509 30.6719 65.9204C30.6719 71.19 32.726 76.2505 36.3952 80.0205C40.0645 83.7906 45.0578 85.9711 50.308 86.096H127.606C130.293 86.2197 132.978 85.8012 135.502 84.8652C138.025 83.9292 140.336 82.4947 142.297 80.6467C144.258 78.7987 145.829 76.5747 146.919 74.1063C148.008 71.638 148.592 68.9755 148.638 66.2764C148.683 63.5773 148.188 60.8966 147.183 58.3928C146.177 55.889 144.681 53.613 142.783 51.6997C140.886 49.7863 138.625 48.2745 136.134 47.2536C133.644 46.2327 130.974 45.7235 128.284 45.7562H127.606L127.64 45.6654Z" fill="#B4F0E0"/>
<path d="M38.9297 111.213L17.6995 117.969H12.9766V97.6914V88.688V68.4219H17.6995L38.9297 75.1772V111.213Z" fill="#E6E6E6"/>
<path d="M21.2344 97.671C25.8376 102.818 37.0055 113.25 50.7926 113.25H114.455C132.596 113.25 146.281 94.9238 146.281 94.9238V90.2872C146.281 90.2872 132.676 71.9609 114.455 71.9609H50.7926C37.0169 71.9609 25.8489 82.4745 21.3137 87.5747L21.2344 97.671Z" fill="white"/>
<path d="M51.9062 121.508V128.007C51.93 129.733 52.6552 131.38 53.9249 132.593C55.1945 133.805 56.9064 134.485 58.69 134.484H104.209C105.982 134.481 107.681 133.798 108.934 132.583C110.187 131.369 110.891 129.723 110.891 128.007V128.007V121.508H51.9062Z" fill="#595857"/>
<path d="M101.453 125.047H97.9141V128.586H101.453V125.047Z" fill="#E6E6E6"/>
<path d="M92.0156 125.047H88.4766V128.586H92.0156V125.047Z" fill="#E6E6E6"/>
<path d="M84.9375 125.047H80.2188V128.586H84.9375V125.047Z" fill="#E6E6E6"/>
<path d="M75.5 125.047H70.7812V128.586H75.5V125.047Z" fill="#E6E6E6"/>
<path d="M66.0625 125.047H61.3438V128.586H66.0625V125.047Z" fill="#E6E6E6"/>
<path d="M113.663 86.1172H37.3252C21.6118 86.1172 5.89844 92.6 5.89844 92.6C5.89844 92.6 21.6118 99.0937 37.3252 99.0937H113.663C129.377 99.0937 145.102 92.6109 145.102 92.6109C145.102 92.6109 129.377 86.1172 113.663 86.1172Z" fill="#E6E6E6"/>
<path d="M114.356 102.633H36.6498C20.3673 102.633 4.41548 95.6627 3.75415 95.3557C3.18982 95.0971 2.74831 94.63 2.52281 94.053C2.2973 93.4759 2.30544 92.8341 2.54551 92.2629C2.77419 91.7106 3.20685 91.2669 3.75415 91.0235C4.41548 90.7279 20.3673 83.7578 36.6498 83.7578H114.356C130.639 83.7578 146.579 90.7279 147.252 91.0235C147.816 91.2819 148.257 91.7497 148.481 92.3274C148.704 92.905 148.693 93.5469 148.449 94.1163C148.228 94.6699 147.798 95.1149 147.252 95.3557C146.579 95.6513 130.639 102.633 114.356 102.633ZM11.3025 93.8662C17.2431 95.8787 27.0604 98.5963 36.6498 98.5963H114.356C123.991 98.5963 133.74 95.8901 139.704 93.8775C133.752 91.8536 123.991 89.1588 114.356 89.1588H36.6498C27.0148 89.1588 17.2659 91.8536 11.3025 93.8775V93.8662Z" fill="#3C1A5E"/>
<path d="M113.725 115.606H50.0947C35.2557 115.846 23.3188 104.377 18.875 99.4551L22.2758 96.3646C26.3115 100.863 37.1035 111.245 50.1174 111.531H113.781C128.813 111.256 143.493 94.3615 143.493 94.3615V91.4084C143.493 91.4084 128.756 74.5367 113.781 74.8916H50.0947C37.0695 74.5367 26.2888 84.9528 22.2532 89.4397L18.9203 86.3492C23.3755 81.4159 35.3011 69.9582 50.1401 70.8282H113.725C132.815 69.9582 146.769 88.4324 147.348 89.2222L147.461 89.8288V95.9525L147.348 96.5592C146.769 97.3604 132.815 115.846 113.725 115.606Z" fill="#3C1A5E"/>
<path d="M15.9043 88.4766H11.7969V66.0625H18.8663L40.1094 72.8445L38.6399 77.0805L18.1258 70.0205H15.9043V88.4766Z" fill="#3C1A5E"/>
<path d="M18.8663 119.148H11.7969V97.9141H15.9043V115.163H18.1258L38.6399 108.783L40.1094 113.048L18.8663 119.148Z" fill="#3C1A5E"/>
<path d="M97.9141 66.0625H94.375V121.508H97.9141V66.0625Z" fill="#3C1A5E"/>
<path d="M70.7812 66.0625H67.2422V121.508H70.7812V66.0625Z" fill="#3C1A5E"/>
<path d="M34.2109 130.945H2.35938V134.484H34.2109V130.945Z" fill="#3C1A5E"/>
<path d="M42.4688 130.945H38.9297V134.484H42.4688V130.945Z" fill="#3C1A5E"/>
<path d="M88.4766 51.9062H84.9375V56.625H88.4766V51.9062Z" fill="#3C1A5E"/>
<path d="M97.9141 51.9062H94.375V56.625H97.9141V51.9062Z" fill="#3C1A5E"/>
<path d="M107.352 51.9062H103.812V56.625H107.352V51.9062Z" fill="#3C1A5E"/>
<path d="M75.5 42.4688H34.2109V47.1875H75.5V42.4688Z" fill="#3C1A5E"/>
<path d="M29.4922 42.4688H20.0547V47.1875H29.4922V42.4688Z" fill="#3C1A5E"/>
</svg>
